<svg xmlns="http://www.w3.org/2000/svg" id="freepik_stories-typing" class="animated" viewBox="0 0 500 500"><style>@keyframes wind{0%{transform:rotate(0deg)}25%{transform:rotate(1deg)}75%{transform:rotate(-1deg)}}@keyframes floating{0%,to{opacity:1;transform:translateY(0)}50%{transform:translateY(-10px)}}svg#freepik_stories-typing:not(.animated) .animable{opacity:0}</style><g id="freepik--background-simple--inject-1--inject-3" class="animable" style="transform-origin:251.041px 240.936px"><path id="elcmx897rawv" d="M422.41 180c2.27-23.46 7.7-45.67-1.9-68.23-17.62-41.4-70.77-63.38-112.07-43.77-21.12 10-39.18 24.63-62.44 30-62.78 14.49-159.68-62.71-193.85 27.17-11.73 30.84-7 71.48 14.21 97.26 6.81 8.27 15.13 15.47 20.17 24.93 13.79 25.89-5.73 54.34-14.53 78.49-20.9 57.07 57.9 88.65 100.67 94.47C243.37 430 301.69 349 372 382c49 23 92-33 83-89-5.89-36.66-35.71-71.75-32.92-109.11.1-1.29.21-2.58.33-3.89" class="animable" style="fill:#2c9f45;transform-origin:251.041px 240.936px"/><g id="elm1v9eaq3ap"><path id="el0slytea7kkw" d="M422.41 180c2.27-23.46 7.7-45.67-1.9-68.23-17.62-41.4-70.77-63.38-112.07-43.77-21.12 10-39.18 24.63-62.44 30-62.78 14.49-159.68-62.71-193.85 27.17-11.73 30.84-7 71.48 14.21 97.26 6.81 8.27 15.13 15.47 20.17 24.93 13.79 25.89-5.73 54.34-14.53 78.49-20.9 57.07 57.9 88.65 100.67 94.47C243.37 430 301.69 349 372 382c49 23 92-33 83-89-5.89-36.66-35.71-71.75-32.92-109.11.1-1.29.21-2.58.33-3.89" class="animable" style="fill:#fff;opacity:.7;transform-origin:251.041px 240.936px"/></g></g><g id="freepik--Plant--inject-1--inject-3" class="animable" style="animation:6s Infinite linear wind;animation-delay:0s;transform-origin:80.2153px 147.3px"><circle id="elp3al2aolbth" cx="85.77" cy="160.73" r="34.53" class="animable" style="fill:#fff;stroke:#2e353a;stroke-linecap:round;stroke-linejoin:round;transform-origin:85.77px 160.73px"/><circle id="eln7v648tq4v" cx="83.2" cy="157.3" r="34.53" class="animable" style="fill:#fff;stroke:#2e353a;stroke-linecap:round;stroke-linejoin:round;transform-origin:83.2px 157.3px"/><circle id="elw319qkf1q7" cx="83.2" cy="157.3" r="31.1" class="animable" style="fill:#2e353a;stroke:#2e353a;stroke-linecap:round;stroke-linejoin:round;transform-origin:83.2px 157.3px"/><path id="elk6xpjmbsnbr" d="M79.55 133.92s-3.43-8.58-9.43-14.58-30.46-9.87-30.46-9.87a89.7 89.7 0 0 1 10.73 12.44c5.57 7.72 24 25.31 24 25.31s-9-7.72-17.16-8.58-28.74 3.43-30 3.43 7.72 3.43 14.16 6.43 31.31 5.58 31.31 5.58-10.72 3-18 5.58-14.18 21.44-14.18 21.44 9.44-8.58 17.59-10.72 19.73-6 19.73-6-7.29 8.15-9 13.73-.43 18.44-.43 18.44 3.86-12 8.58-16.73S86.84 167 86.84 167a118 118 0 0 1 6.44 12c3.43 7.29 5.57 18 5.57 18s5.58-12 5.15-18-6.86-16.73-6.86-16.73 4.29-3 10.72-.43 17.59 13.3 17.59 13.3-2.58-14.16-6.87-19.73-22.73-7.3-22.73-7.3 10.3-6 16.73-7.29 15 1.72 15 1.72-9.86-13.73-17.58-14.59-19.3 11.12-19.3 11.12l3.44-17.16c.85-4.29-.86-15-.86-15s-4.72 2.57-10.3 10.72a21.36 21.36 0 0 0-3.43 16.29" class="animable" style="fill:#2c9f45;transform-origin:77.3453px 151.955px"/><g id="eltg4oyvd9edi"><path id="el942zmwp5wrj" d="M79.55 133.92s-3.43-8.58-9.43-14.58-30.46-9.87-30.46-9.87a89.7 89.7 0 0 1 10.73 12.44c5.57 7.72 24 25.31 24 25.31s-9-7.72-17.16-8.58-28.74 3.43-30 3.43 7.72 3.43 14.16 6.43 31.31 5.58 31.31 5.58-10.72 3-18 5.58-14.18 21.44-14.18 21.44 9.44-8.58 17.59-10.72 19.73-6 19.73-6-7.29 8.15-9 13.73-.43 18.44-.43 18.44 3.86-12 8.58-16.73S86.84 167 86.84 167a118 118 0 0 1 6.44 12c3.43 7.29 5.57 18 5.57 18s5.58-12 5.15-18-6.86-16.73-6.86-16.73 4.29-3 10.72-.43 17.59 13.3 17.59 13.3-2.58-14.16-6.87-19.73-22.73-7.3-22.73-7.3 10.3-6 16.73-7.29 15 1.72 15 1.72-9.86-13.73-17.58-14.59-19.3 11.12-19.3 11.12l3.44-17.16c.85-4.29-.86-15-.86-15s-4.72 2.57-10.3 10.72a21.36 21.36 0 0 0-3.43 16.29" class="animable" style="opacity:.5;transform-origin:77.3453px 151.955px"/></g><path id="eldn7o9q7adhg" d="M88 120.86c.3-1.23.63-2.46 1-3.67" class="animable" style="fill:none;stroke:#2e353a;stroke-linecap:round;stroke-linejoin:round;stroke-width:.5px;transform-origin:88.5px 119.025px"/><path id="elw60p6ca3g4" d="M59.35 120.86c4 2.93 9 7 11.62 10.49 4.72 6.43 14.16 20.16 14.16 20.16A127.6 127.6 0 0 1 87.31 124" class="animable" style="fill:none;stroke:#2e353a;stroke-linecap:round;stroke-linejoin:round;stroke-width:.5px;transform-origin:73.33px 136.185px"/><path id="el0pkqa9z8lczq" d="M53.39 116.76s1.25.8 3.12 2.09" class="animable" style="fill:none;stroke:#2e353a;stroke-linecap:round;stroke-linejoin:round;stroke-width:.5px;transform-origin:54.95px 117.805px"/><path id="el3yag6rijmbs" d="M85.13 151.51s16.3-16.3 23.16-17.59 12.87 3.86 12.87 3.86" class="animable" style="fill:none;stroke:#2e353a;stroke-linecap:round;stroke-linejoin:round;stroke-width:.5px;transform-origin:103.145px 142.611px"/><path id="el5dq3tmofzos" d="M56 165.14c-4 2.52-4.33 4-4.33 4" class="animable" style="fill:none;stroke:#2e353a;stroke-linecap:round;stroke-linejoin:round;stroke-width:.5px;transform-origin:53.835px 167.14px"/><path id="el6zerwieqktc" d="M120.73 166.52s-2.57-6.44-11.58-9.44S86 153.65 86 153.65s-19.85 6.5-27.11 9.89" class="animable" style="fill:none;stroke:#2e353a;stroke-linecap:round;stroke-linejoin:round;stroke-width:.5px;transform-origin:89.81px 160.085px"/><path id="el7i3uum42w03" d="M77.32 151.2c4.8 1.4 8.67 2.45 8.67 2.45" class="animable" style="fill:none;stroke:#2e353a;stroke-linecap:round;stroke-linejoin:round;stroke-width:.5px;transform-origin:81.655px 152.425px"/><path id="eldl1ixbk1p64" d="M47.11 143.58c4.66.28 10.66.92 14 2.35 2.72 1.17 8.08 2.86 13.14 4.37" class="animable" style="fill:none;stroke:#2e353a;stroke-linecap:round;stroke-linejoin:round;stroke-width:.5px;transform-origin:60.68px 146.94px"/><path id="elzyud1iok8c" d="M40.52 143.36s1.57 0 3.88.09" class="animable" style="fill:none;stroke:#2e353a;stroke-linecap:round;stroke-linejoin:round;stroke-width:.5px;transform-origin:42.46px 143.405px"/><path id="elxppq7jd4ms" d="M85.13 156.22s-12 18-12.87 22.31a43.7 43.7 0 0 0-.86 7.72" class="animable" style="fill:none;stroke:#2e353a;stroke-linecap:round;stroke-linejoin:round;stroke-width:.5px;transform-origin:78.265px 171.235px"/><path id="elawk4hkingka" d="M90.47 161.89c2.31 3 5.08 7 6.24 10.2a70.4 70.4 0 0 1 3 12" class="animable" style="fill:none;stroke:#2e353a;stroke-linecap:round;stroke-linejoin:round;stroke-width:.5px;transform-origin:95.09px 172.99px"/><path id="elmr2fggoooqg" d="M86.84 157.51s1 1.06 2.29 2.69" class="animable" style="fill:none;stroke:#2e353a;stroke-linecap:round;stroke-linejoin:round;stroke-width:.5px;transform-origin:87.985px 158.855px"/><path id="elgfg2gb86gb6" d="M74.1 137.62s-2.21-9-.84-17.35 19-25.78 19-25.78a90 90 0 0 0-1.45 16.36c0 9.52-4.75 34.56-4.75 34.56s2.81-11.52 8.93-17 25.35-14 26.39-14.73-4.27 7.29-7.74 13.49S91.44 150 91.44 150s10.46-3.82 17.88-6 24 9.16 24 9.16-12.67-1.46-20.54 1.55-19.53 6.63-19.53 6.63 10.68 2.37 15.32 5.9S119.69 182 119.69 182s-10.14-7.51-16.73-8.59-15.52-4.69-15.52-4.69a121 121 0 0 0 1.78 13.5c1.47 7.93 6 17.89 6 17.89s-11.53-6.5-14.69-11.63-4.18-17.59-4.18-17.59-5.24.06-9 5.9-6.53 21.06-6.53 21.06-6.16-13-5.93-20 14.21-19.18 14.21-19.18-11.86 1.13-17.84 3.83-11.2 10.15-11.2 10.15 0-16.9 5.78-22.1 22.19-2.2 22.19-2.2l-12.8-11.93c-3.2-3-8.06-12.7-8.06-12.7s5.34-.66 14.62 2.71a21.3 21.3 0 0 1 12.31 11.19" class="animable" style="fill:#2c9f45;transform-origin:86.69px 147.3px"/><path id="elsv5ekoa8poi" d="M59.62 131.94c-1-.83-1.94-1.63-2.94-2.41" class="animable" style="fill:none;stroke:#2e353a;stroke-linecap:round;stroke-linejoin:round;stroke-width:.5px;transform-origin:58.15px 130.735px"/><path id="el5y0eqpm6hoy" d="M82.89 115.23c-1.55 4.72-3.28 10.93-3.32 15.29-.08 8 .26 24.63.26 24.63A127 127 0 0 0 62 134.09" class="animable" style="fill:none;stroke:#2e353a;stroke-linecap:round;stroke-linejoin:round;stroke-width:.5px;transform-origin:72.445px 135.19px"/><path id="elbkfo994wd7k" d="M85.35 108.42s-.56 1.38-1.32 3.51" class="animable" style="fill:none;stroke:#2e353a;stroke-linecap:round;stroke-linejoin:round;stroke-width:.5px;transform-origin:84.69px 110.175px"/><path id="elizxniy0x3io" d="M79.83 155.15s-22.75-3.73-29.07-.77-8.2 10.62-8.2 10.62" class="animable" style="fill:none;stroke:#2e353a;stroke-linecap:round;stroke-linejoin:round;stroke-width:.5px;transform-origin:61.195px 159.119px"/><path id="elosnppbs3iu" d="M111.45 149.23c4.69-.26 5.81.69 5.81.69" class="animable" style="fill:none;stroke:#2e353a;stroke-linecap:round;stroke-linejoin:round;stroke-width:.5px;transform-origin:114.355px 149.552px"/><path id="elgg2z47kfuw5" d="M59.67 188.11s-1.66-6.73 3.9-14.42 16.82-16.29 16.82-16.29 19.91-6.31 27.78-7.78" class="animable" style="fill:none;stroke:#2e353a;stroke-linecap:round;stroke-linejoin:round;stroke-width:.5px;transform-origin:83.804px 168.865px"/><path id="elsw3ac6xlpob" d="M86 150.35c-3.08 3.93-5.6 7.05-5.6 7.05" class="animable" style="fill:none;stroke:#2e353a;stroke-linecap:round;stroke-linejoin:round;stroke-width:.5px;transform-origin:83.2px 153.875px"/><path id="elvba7nvhdmu" d="M106.09 126.54c-3.62 3-8.12 7-10 10.07-1.53 2.54-4.9 7-8.13 11.21" class="animable" style="fill:none;stroke:#2e353a;stroke-linecap:round;stroke-linejoin:round;stroke-width:.5px;transform-origin:97.025px 137.18px"/><path id="elm1xntulpqf" d="M111.31 122.51s-1.27.92-3.1 2.34" class="animable" style="fill:none;stroke:#2e353a;stroke-linecap:round;stroke-linejoin:round;stroke-width:.5px;transform-origin:109.76px 123.68px"/><path id="elhnqgx78g60o" d="M82.58 159s20.27 7.62 23.46 10.61a43.4 43.4 0 0 1 5.2 5.77" class="animable" style="fill:none;stroke:#2e353a;stroke-linecap:round;stroke-linejoin:round;stroke-width:.5px;transform-origin:96.91px 167.19px"/><path id="elaikk3oavdto" d="M81.55 166.7c-.14 3.78-.07 8.63.88 11.93A69.7 69.7 0 0 0 87 190.14" class="animable" style="fill:none;stroke:#2e353a;stroke-linecap:round;stroke-linejoin:round;stroke-width:.5px;transform-origin:84.2474px 178.42px"/><path id="eluznqkowhrx8" d="M81.94 161s-.16 1.42-.28 3.52" class="animable" style="fill:none;stroke:#2e353a;stroke-linecap:round;stroke-linejoin:round;stroke-width:.5px;transform-origin:81.8px 162.76px"/></g><g id="freepik--Device--inject-1--inject-3" class="animable" style="transform-origin:253.489px 222.1px"><path id="elwbu73trc3j" d="M140.83 183.43H367.5a10.67 10.67 0 0 1 10.67 10.67v147a11.67 11.67 0 0 1-11.67 11.67H141.83a11.67 11.67 0 0 1-11.67-11.67v-147a10.67 10.67 0 0 1 10.67-10.67" class="animable" style="fill:#fff;stroke:#2e353a;stroke-linecap:round;stroke-linejoin:round;transform-origin:254.165px 268.1px"/><path id="eln8kwrya4dt" d="M209.83 200.1h13.96v9.17h-13.96z" class="animable" style="fill:#2e353a;transform-origin:216.81px 204.685px"/><path id="elv01d9m0lh9" d="M165.6 256.67h12.96v12.86H165.6z" class="animable" style="fill:#2e353a;transform-origin:172.08px 263.1px"/><path id="elytif06djbw" d="M222.76 211.47h13.06v12.86h-13.06z" class="animable" style="fill:#2e353a;transform-origin:229.29px 217.9px"/><path id="elu3aovu955j" d="M193.66 200.1h13.96v9.17h-13.96z" class="animable" style="fill:#2e353a;transform-origin:200.64px 204.685px"/><path id="el5rwr475mpse" d="M238.02 211.47h13.06v12.86h-13.06z" class="animable" style="fill:#2e353a;transform-origin:244.55px 217.9px"/><path id="el17410bfkj6ui" d="M225.99 200.1h13.96v9.17h-13.96z" class="animable" style="fill:#2e353a;transform-origin:232.97px 204.685px"/><path id="ellkdz7o9bjor" d="M146.17 241.6h24.56v12.86h-24.56z" class="animable" style="fill:#2e353a;transform-origin:158.45px 248.03px"/><path id="ely06si88i52" d="M192.23 211.47h13.06v12.86h-13.06z" class="animable" style="fill:#2e353a;transform-origin:198.76px 217.9px"/><path id="elz3vcckboix" d="M146.17 256.67h17.23v12.86h-17.23z" class="animable" style="fill:#2e353a;transform-origin:154.785px 263.1px"/><path id="eloouu74srtop" d="M242.16 200.1h13.96v9.17h-13.96z" class="animable" style="fill:#2e353a;transform-origin:249.14px 204.685px"/><path id="eljsc50ifm2m" d="M161.7 211.47h13.06v12.86H161.7z" class="animable" style="fill:#2e353a;transform-origin:168.23px 217.9px"/><path id="eloqq0pdepkc" d="M161.33 200.1h13.96v9.17h-13.96z" class="animable" style="fill:#2e353a;transform-origin:168.31px 204.685px"/><path id="elzxxkclv99p" d="M177.5 200.1h13.96v9.17H177.5z" class="animable" style="fill:#2e353a;transform-origin:184.48px 204.685px"/><path id="elxfwaio43te" d="M176.96 211.47h13.06v12.86h-13.06z" class="animable" style="fill:#2e353a;transform-origin:183.49px 217.9px"/><path id="el9qlcjfl0djt" d="M207.49 211.47h13.06v12.86h-13.06z" class="animable" style="fill:#2e353a;transform-origin:214.02px 217.9px"/><path id="elbjn6jyehtbu" d="M306.83 200.1h13.96v9.17h-13.96z" class="animable" style="fill:#2e353a;transform-origin:313.81px 204.685px"/><path id="eldy2usls5lg" d="M322.99 200.1h13.96v9.17h-13.96z" class="animable" style="fill:#2e353a;transform-origin:329.97px 204.685px"/><path id="elm1gzkqgxlg" d="M314.35 211.47h13.06v12.86h-13.06z" class="animable" style="fill:#2e353a;transform-origin:320.88px 217.9px"/><path id="el08bbwo5cwssj" d="M329.62 211.47h13.06v12.86h-13.06z" class="animable" style="fill:#2e353a;transform-origin:336.15px 217.9px"/><path id="eldcvlfa3qgt" d="M347.6 256.67h19.23v12.86H347.6z" class="animable" style="fill:#2e353a;transform-origin:357.215px 263.1px"/><path id="elsf6xjnwf15" d="M339.16 200.1h13.96v9.17h-13.96z" class="animable" style="fill:#2e353a;transform-origin:346.14px 204.685px"/><path id="eljmri4dkcbf" d="M146.17 211.47h13.33v12.86h-13.33z" class="animable" style="fill:#2e353a;transform-origin:152.835px 217.9px"/><path id="el4160o1g0yq7" d="M258.33 200.1h13.96v9.17h-13.96z" class="animable" style="fill:#2e353a;transform-origin:265.31px 204.685px"/><path id="elboykol3nsvg" d="M274.49 200.1h13.96v9.17h-13.96z" class="animable" style="fill:#2e353a;transform-origin:281.47px 204.685px"/><path id="elvo8jnjdo7q" d="M268.56 211.47h13.06v12.86h-13.06z" class="animable" style="fill:#2e353a;transform-origin:275.09px 217.9px"/><path id="el4wna4f39k4m" d="M299.09 211.47h13.06v12.86h-13.06z" class="animable" style="fill:#2e353a;transform-origin:305.62px 217.9px"/><path id="elqnceee2grxm" d="M253.29 211.47h13.06v12.86h-13.06z" class="animable" style="fill:#2e353a;transform-origin:259.82px 217.9px"/><path id="elwun6spj4vd" d="M283.82 211.47h13.06v12.86h-13.06z" class="animable" style="fill:#2e353a;transform-origin:290.35px 217.9px"/><path id="el7rr5los380w" d="M290.66 200.1h13.96v9.17h-13.96z" class="animable" style="fill:#2e353a;transform-origin:297.64px 204.685px"/><path id="elfr3wam4apjv" d="M271.77 256.67h12.96v12.86h-12.96z" class="animable" style="fill:#2e353a;transform-origin:278.25px 263.1px"/><path id="el5fjo41e9bqc" d="M339.77 241.6h12.96v12.86h-12.96z" class="animable" style="fill:#2e353a;transform-origin:346.25px 248.03px"/><path id="el1kzvdx4t6qz" d="M324.6 241.6h12.96v12.86H324.6z" class="animable" style="fill:#2e353a;transform-origin:331.08px 248.03px"/><path id="elbmxbus6o8e" d="M332.43 256.67h12.96v12.86h-12.96z" class="animable" style="fill:#2e353a;transform-origin:338.91px 263.1px"/><path id="el8ro9plh1d3x" d="M317.27 256.67h12.96v12.86h-12.96z" class="animable" style="fill:#2e353a;transform-origin:323.75px 263.1px"/><path id="elk5vsmecieuc" d="M286.93 256.67h12.96v12.86h-12.96z" class="animable" style="fill:#2e353a;transform-origin:293.41px 263.1px"/><path id="elcy93bijqoh" d="M302.1 256.67h12.96v12.86H302.1z" class="animable" style="fill:#2e353a;transform-origin:308.58px 263.1px"/><path id="ellk28neltq4e" d="M309.43 241.6h12.96v12.86h-12.96z" class="animable" style="fill:#2e353a;transform-origin:315.91px 248.03px"/><path id="els5h9n4mloqe" d="M294.27 241.6h12.96v12.86h-12.96z" class="animable" style="fill:#2e353a;transform-origin:300.75px 248.03px"/><path id="elqs66xzxf39c" d="M355.33 200.1h11.51v9.17h-11.51z" class="animable" style="fill:#2e353a;transform-origin:361.085px 204.685px"/><path id="eld1mmwi7dbn" d="M146.17 200.1h12.96v9.17h-12.96z" class="animable" style="fill:#2e353a;transform-origin:152.65px 204.685px"/><path id="elwfj5m92nbo" d="M146.17 271.73h220.67v13.37H146.17z" class="animable" style="fill:#2e353a;transform-origin:256.505px 278.415px"/><path id="elgekiewxkyo" d="M344.88 211.47h21.95v12.86h-21.95z" class="animable" style="fill:#2e353a;transform-origin:355.855px 217.9px"/><path id="elqw4szefmodd" d="M354.93 241.6h11.9v12.86h-11.9z" class="animable" style="fill:#2e353a;transform-origin:360.88px 248.03px"/><path id="elsf88vtwj94" d="M351.27 239.3h-2.21v-12.76H336.1v12.76h-2.2v-12.76h-12.96v12.76h-2.21v-12.76h-12.96v12.76h-2.21v-12.76H290.6v12.76h-2.2v-12.76h-12.96v12.76h-2.21v-12.76h-12.96v12.76h-2.21v-12.76H245.1v12.76h-2.2v-12.76h-12.96v12.76h-2.21v-12.76h-12.96v12.76h-2.21v-12.76H199.6v12.76h-2.2v-12.76h-12.96v12.76h-2.21v-12.76h-12.96v12.76h-2.21v-12.76h-20.89v12.86h220.66v-12.86h-15.56z" class="animable" style="fill:#2e353a;transform-origin:256.5px 232.97px"/><path id="elvj6tgdrucd" d="M233.6 241.6h12.96v12.86H233.6z" class="animable" style="fill:#2e353a;transform-origin:240.08px 248.03px"/><path id="elk6glm8zhzkk" d="M279.1 241.6h12.96v12.86H279.1z" class="animable" style="fill:#2e353a;transform-origin:285.58px 248.03px"/><path id="elbuy9c07ynyn" d="M203.27 241.6h12.96v12.86h-12.96z" class="animable" style="fill:#2e353a;transform-origin:209.75px 248.03px"/><path id="elid01h2li4e" d="M211.1 256.67h12.96v12.86H211.1z" class="animable" style="fill:#2e353a;transform-origin:217.58px 263.1px"/><path id="el43ju1e5v8f6" d="M218.43 241.6h12.96v12.86h-12.96z" class="animable" style="fill:#2e353a;transform-origin:224.91px 248.03px"/><path id="elobbl4facnd" d="M188.1 241.6h12.96v12.86H188.1z" class="animable" style="fill:#2e353a;transform-origin:194.58px 248.03px"/><path id="el0txparxrha6" d="M180.77 256.67h12.96v12.86h-12.96z" class="animable" style="fill:#2e353a;transform-origin:187.25px 263.1px"/><path id="elwci71vxfis" d="M195.93 256.67h12.96v12.86h-12.96z" class="animable" style="fill:#2e353a;transform-origin:202.41px 263.1px"/><path id="elva1m0phkkrk" d="M248.77 241.6h12.96v12.86h-12.96z" class="animable" style="fill:#2e353a;transform-origin:255.25px 248.03px"/><path id="elin6zg8ijmta" d="M256.6 256.67h12.96v12.86H256.6z" class="animable" style="fill:#2e353a;transform-origin:263.08px 263.1px"/><path id="eligxqq75h2yg" d="M263.93 241.6h12.96v12.86h-12.96z" class="animable" style="fill:#2e353a;transform-origin:270.41px 248.03px"/><path id="elimyc1yvske" d="M226.27 256.67h12.96v12.86h-12.96z" class="animable" style="fill:#2e353a;transform-origin:232.75px 263.1px"/><path id="elamvtxkfuwkt" d="M241.43 256.67h12.96v12.86h-12.96z" class="animable" style="fill:#2e353a;transform-origin:247.91px 263.1px"/><path id="elcns5qv9nuu" d="M172.93 241.6h12.96v12.86h-12.96z" class="animable" style="fill:#2e353a;transform-origin:179.41px 248.03px"/><path id="el2h5w4spntr7" d="M392.33 91.43H114.67a8.88 8.88 0 0 0-8.57 11.18l20.3 75.58a8.88 8.88 0 0 0 8.57 6.58h28.34V190H345v-5.2h27a8.88 8.88 0 0 0 8.57-6.58l20.3-75.58a8.88 8.88 0 0 0-8.54-11.21" class="animable" style="fill:#2e353a;stroke:#2e353a;stroke-linecap:round;stroke-linejoin:round;transform-origin:253.489px 140.715px"/><path id="el96nh4r2zgz" d="M360.93 178.1H146.07l-21.49-77.33h257.83z" class="animable" style="fill:#2c9f45;stroke:#2e353a;stroke-linecap:round;stroke-linejoin:round;transform-origin:253.495px 139.435px"/><path id="elzxmuogslpej" d="M160.33 144.16v1h-3.79v-1Z" class="animable" style="fill:#2e353a;transform-origin:158.435px 144.66px"/><path id="el3i3q2483606" d="M165.05 144.16v1h-3.8v-1Z" class="animable" style="fill:#2e353a;transform-origin:163.15px 144.66px"/><path id="el0dvya2507ceu" d="M169.77 144.16v1H166v-1Z" class="animable" style="fill:#2e353a;transform-origin:167.885px 144.66px"/><path id="elx2ggba9b4vb" d="M174.48 144.16v1h-3.79v-1Z" class="animable" style="fill:#2e353a;transform-origin:172.585px 144.66px"/><path id="elyuc0iokkk2" d="M179.2 144.16v1h-3.8v-1Z" class="animable" style="fill:#2e353a;transform-origin:177.3px 144.66px"/><path id="elo4kdy8z74b" d="M183.92 144.16v1h-3.8v-1Z" class="animable" style="fill:#2e353a;transform-origin:182.02px 144.66px"/><path id="elkdjpt2eacjs" d="M188.63 144.16v1h-3.79v-1Z" class="animable" style="fill:#2e353a;transform-origin:186.735px 144.66px"/><path id="elv6rqd5rbyvi" d="m193.3 149.43-4.18-11.14h1l4.18 11.14Z" class="animable" style="fill:#2e353a;transform-origin:191.71px 143.86px"/><path id="elk264630l228" d="M156.51 127.94v1h-3.79v-1Z" class="animable" style="fill:#2e353a;transform-origin:154.615px 128.44px"/><path id="eldcdnlep6bpb" d="M161.23 127.94v1h-3.79v-1Z" class="animable" style="fill:#2e353a;transform-origin:159.335px 128.44px"/><path id="el3tzgusrsh3f" d="M166 127.94v1h-3.8v-1Z" class="animable" style="fill:#2e353a;transform-origin:164.1px 128.44px"/><path id="elp6veskwc0b" d="M170.67 127.94v1h-3.8v-1Z" class="animable" style="fill:#2e353a;transform-origin:168.77px 128.44px"/><path id="el6o1slcqrqle" d="M175.38 127.94v1h-3.79v-1Z" class="animable" style="fill:#2e353a;transform-origin:173.485px 128.44px"/><path id="elmgzawuw1bo" d="M183.36 127.94v1h-3.8v-1Z" class="animable" style="fill:#2e353a;transform-origin:181.46px 128.44px"/><path id="el6c03eftsl3" d="M188.07 127.94v1h-3.79v-1Z" class="animable" style="fill:#2e353a;transform-origin:186.175px 128.44px"/><path id="elpee6stvz4im" d="M192.79 127.94v1H189v-1Z" class="animable" style="fill:#2e353a;transform-origin:190.895px 128.44px"/><path id="elph3ue97awc" d="M197.51 127.94v1h-3.8v-1Z" class="animable" style="fill:#2e353a;transform-origin:195.61px 128.44px"/><path id="eldjy9j24y9fs" d="M202.22 127.94v1h-3.79v-1Z" class="animable" style="fill:#2e353a;transform-origin:200.325px 128.44px"/><path id="elwovaie9a4dr" d="M206.94 127.94v1h-3.79v-1Z" class="animable" style="fill:#2e353a;transform-origin:205.045px 128.44px"/><path id="el4gozt5mrvw6" d="M211.66 127.94v1h-3.8v-1Z" class="animable" style="fill:#2e353a;transform-origin:209.76px 128.44px"/><path id="el8x7097yjein" d="M219.63 127.94v1h-3.79v-1Z" class="animable" style="fill:#2e353a;transform-origin:217.735px 128.44px"/><path id="elxyt9l0qkz1" d="M224.35 127.94v1h-3.8v-1Z" class="animable" style="fill:#2e353a;transform-origin:222.45px 128.44px"/><path id="elw75waa8xxq" d="M229.07 127.94v1h-3.8v-1Z" class="animable" style="fill:#2e353a;transform-origin:227.17px 128.44px"/><path id="elcnv90m8rz8d" d="M237 127.94v1h-3.79v-1Z" class="animable" style="fill:#2e353a;transform-origin:235.105px 128.44px"/><path id="el7v8p4nnc7m" d="M241.76 127.94v1H238v-1Z" class="animable" style="fill:#2e353a;transform-origin:239.88px 128.44px"/><path id="elrnmbghvwoal" d="M246.48 127.94v1h-3.8v-1Z" class="animable" style="fill:#2e353a;transform-origin:244.58px 128.44px"/><path id="eltofade0t9a9" d="M264.22 127.94v1h-3.79v-1Z" class="animable" style="fill:#2e353a;transform-origin:262.325px 128.44px"/><path id="elkafczp4vjsd" d="M268.94 127.94v1h-3.8v-1Z" class="animable" style="fill:#2e353a;transform-origin:267.04px 128.44px"/><path id="el3d98wsdeov5" d="M273.66 127.94v1h-3.8v-1Z" class="animable" style="fill:#2e353a;transform-origin:271.76px 128.44px"/><path id="elx538gh9v5m" d="M278.37 127.94v1h-3.79v-1Z" class="animable" style="fill:#2e353a;transform-origin:276.475px 128.44px"/><path id="elwutr6s1gryj" d="M283.09 127.94v1h-3.8v-1Z" class="animable" style="fill:#2e353a;transform-origin:281.19px 128.44px"/><path id="eltxqzcf1mcb" d="M291.06 127.94v1h-3.79v-1Z" class="animable" style="fill:#2e353a;transform-origin:289.165px 128.44px"/><path id="eltl5lr6mjg4" d="M295.78 127.94v1H292v-1Z" class="animable" style="fill:#2e353a;transform-origin:293.89px 128.44px"/><path id="elm7tq8zfftra" d="M300.5 127.94v1h-3.8v-1Z" class="animable" style="fill:#2e353a;transform-origin:298.6px 128.44px"/><path id="elsf0uvxz6s6e" d="M308.47 127.94v1h-3.79v-1Z" class="animable" style="fill:#2e353a;transform-origin:306.575px 128.44px"/><path id="elg5v4ygtlqgj" d="M316.45 127.94v1h-3.8v-1Z" class="animable" style="fill:#2e353a;transform-origin:314.55px 128.44px"/></g><g id="freepik--Notebook--inject-1--inject-3" class="animable" style="animation:6s Infinite linear floating;animation-delay:0s;transform-origin:420.949px 305.07px"><path id="elz22ngkh4s2q" d="m379.69 292.29-10.7 41.28 10.12 2.97z" class="animable" style="fill:#fff;stroke:#2e353a;stroke-linecap:round;stroke-linejoin:round;transform-origin:374.34px 314.415px"/><path id="elee7whct0mo" d="M384.49 248.66a8.55 8.55 0 0 1-1.23-6.28c.55-4.07 5.46-5 5.46-5s1.07-.81 5 .68 34.32 5.61 53.74 8.24 25.71.93 25.44 7.6-17.31 66.53-17.57 68.41-70.84-73.65-70.84-73.65Z" class="animable" style="fill:#fff;stroke:#2e353a;stroke-miterlimit:10;transform-origin:428.007px 279.752px"/><g id="el8zari18hci"><path id="el07gd5e3b42xn" d="M377.51 253.75h82.44v98.27h-82.44z" class="animable" style="fill:#fff;stroke:#2e353a;stroke-linecap:round;stroke-linejoin:round;transform-origin:418.73px 302.885px;transform:rotate(7.72deg)"/></g><path id="elp08j303meip" d="m450.99 279.16 4.75.65" class="animable" style="fill:none;stroke:#2e353a;stroke-linecap:round;stroke-linejoin:round;stroke-width:.5px;transform-origin:453.365px 279.485px"/><path id="elhgizix43yr7" d="m421.24 275.13 25.99 3.53" class="animable" style="fill:none;stroke:#2e353a;stroke-linecap:round;stroke-linejoin:round;stroke-width:.5px;transform-origin:434.235px 276.895px"/><path id="eljhlttaiwlwq" d="m389.74 270.86 27.74 3.76" class="animable" style="fill:none;stroke:#2e353a;stroke-linecap:round;stroke-linejoin:round;stroke-width:.5px;transform-origin:403.61px 272.74px"/><path id="elt71pl9inhh" d="m443.55 286.97 11.02 1.5" class="animable" style="fill:none;stroke:#2e353a;stroke-linecap:round;stroke-linejoin:round;stroke-width:.5px;transform-origin:449.06px 287.72px"/><path id="elf9v66qftagp" d="m388.57 279.52 43.71 5.92" class="animable" style="fill:none;stroke:#2e353a;stroke-linecap:round;stroke-linejoin:round;stroke-width:.5px;transform-origin:410.425px 282.48px"/><path id="el0nkidt2d01i" d="m410.75 291.34 42.65 5.78" class="animable" style="fill:none;stroke:#2e353a;stroke-linecap:round;stroke-linejoin:round;stroke-width:.5px;transform-origin:432.075px 294.23px"/><path id="ele3s4g4jm6te" d="m387.39 288.17 18.97 2.58" class="animable" style="fill:none;stroke:#2e353a;stroke-linecap:round;stroke-linejoin:round;stroke-width:.5px;transform-origin:396.875px 289.46px"/><path id="elktofm90sg4g" d="m424.92 302.08 27.3 3.7" class="animable" style="fill:none;stroke:#2e353a;stroke-linecap:round;stroke-linejoin:round;stroke-width:.5px;transform-origin:438.57px 303.93px"/><path id="el8tgk79suqul" d="m401.75 298.93 20.04 2.72" class="animable" style="fill:none;stroke:#2e353a;stroke-linecap:round;stroke-linejoin:round;stroke-width:.5px;transform-origin:411.77px 300.29px"/><path id="elj14h3nmeabq" d="m386.22 296.83 12.08 1.64" class="animable" style="fill:none;stroke:#2e353a;stroke-linecap:round;stroke-linejoin:round;stroke-width:.5px;transform-origin:392.26px 297.65px"/><path id="elilyqr6r0b9" d="m441.28 313.11 9.77 1.32" class="animable" style="fill:none;stroke:#2e353a;stroke-linecap:round;stroke-linejoin:round;stroke-width:.5px;transform-origin:446.165px 313.77px"/><path id="elelbq5ubpkrm" d="m385.05 305.49 49.66 6.73" class="animable" style="fill:none;stroke:#2e353a;stroke-linecap:round;stroke-linejoin:round;stroke-width:.5px;transform-origin:409.88px 308.855px"/><path id="elx50899zcul" d="m422.26 319.34 27.62 3.75" class="animable" style="fill:none;stroke:#2e353a;stroke-linecap:round;stroke-linejoin:round;stroke-width:.5px;transform-origin:436.07px 321.215px"/><path id="elwq1wo7970ym" d="m383.87 314.14 33.69 4.57" class="animable" style="fill:none;stroke:#2e353a;stroke-linecap:round;stroke-linejoin:round;stroke-width:.5px;transform-origin:400.715px 316.425px"/><path id="elky8wtnkcoj" d="m430.79 329.32 17.91 2.42" class="animable" style="fill:none;stroke:#2e353a;stroke-linecap:round;stroke-linejoin:round;stroke-width:.5px;transform-origin:439.745px 330.53px"/><path id="elaccdb25jihu" d="m394.47 324.39 31.94 4.33" class="animable" style="fill:none;stroke:#2e353a;stroke-linecap:round;stroke-linejoin:round;stroke-width:.5px;transform-origin:410.44px 326.555px"/><path id="el5tq3y9x49im" d="m382.7 322.8 8.01 1.08" class="animable" style="fill:none;stroke:#2e353a;stroke-linecap:round;stroke-linejoin:round;stroke-width:.5px;transform-origin:386.705px 323.34px"/><path id="elnei79p8y5m" d="M466.18 259.74s1.4-13.58 6.4-8.12" class="animable" style="fill:none;stroke:#2e353a;stroke-linecap:round;stroke-linejoin:round;transform-origin:469.38px 255.033px"/><path id="elgk6l1x7mvff" d="m438.48 364.35-.09 8.63-5.03-7.1-20.19-67.91 5.12-1.53z" class="animable" style="fill:#fff;stroke:#2e353a;stroke-linecap:round;stroke-linejoin:round;transform-origin:425.825px 334.71px"/><g id="eleqvl57zxusd"><path id="elmdqjqr8nhz" d="M424.37 295.74h2.91v70.85h-2.91z" class="animable" style="fill:#2c9f45;stroke:#2e353a;stroke-linecap:round;stroke-linejoin:round;stroke-width:.5px;transform-origin:425.825px 331.165px;transform:rotate(-16.2602deg)"/></g><path id="el3szcmv6o7hg" d="m438.48 364.37-5.11 1.52 5.02 7.09z" class="animable" style="fill:none;stroke:#2e353a;stroke-linecap:round;stroke-linejoin:round;transform-origin:435.925px 368.675px"/><path id="eloi2r4o0c9qp" d="m435.88 369.43 2.51 3.55.05-4.31z" class="animable" style="fill:#2e353a;stroke:#2e353a;stroke-linecap:round;stroke-linejoin:round;transform-origin:437.16px 370.825px"/><path id="el4hio12hue5" d="M413.47 289.6za2.68 2.68 0 0 0-1.8 3.32l1.5 5.05 5.12-1.52-1.5-5.05a2.68 2.68 0 0 0-3.32-1.8" class="animable" style="fill:#fff;stroke:#2e353a;stroke-linecap:round;stroke-linejoin:round;transform-origin:414.926px 293.731px"/><path id="elzdf1ukvs15d" d="M413.47 289.6za2.68 2.68 0 0 0-1.8 3.32l.72 2.41 5.11-1.52-.71-2.41a2.68 2.68 0 0 0-3.32-1.8" class="animable" style="fill:#2e353a;stroke:#2e353a;stroke-linecap:round;stroke-linejoin:round;transform-origin:414.531px 292.411px"/></g><g id="freepik--Character--inject-1--inject-3" class="animable" style="animation:6s Infinite linear wind;animation-delay:0s;transform-origin:250.665px 338.966px"><path id="el19ex62c1t62" d="M161.65 249.49c-.64.9-1.27 1.84-1.9 2.83" class="animable" style="fill:none;stroke:#fff;stroke-linecap:round;stroke-linejoin:round;transform-origin:160.7px 250.905px"/><path id="el6gqzsh0q66s" d="M172.11 237.45a72 72 0 0 0-7.71 8.37" class="animable" style="fill:none;stroke:#fff;stroke-linecap:round;stroke-linejoin:round;transform-origin:168.255px 241.635px"/><path id="elqvpau7hb2f" d="M160.76 242.76a107 107 0 0 0-7.41 12" class="animable" style="fill:none;stroke:#fff;stroke-linecap:round;stroke-linejoin:round;transform-origin:157.055px 248.76px"/><path id="el5xuz5eu5bcw" d="M231.29 264.75c-.63.9-1.27 1.84-1.9 2.82" class="animable" style="fill:none;stroke:#fff;stroke-linecap:round;stroke-linejoin:round;transform-origin:230.34px 266.16px"/><path id="elq714oxuic0q" d="M241.75 252.71a73 73 0 0 0-7.7 8.37" class="animable" style="fill:none;stroke:#fff;stroke-linecap:round;stroke-linejoin:round;transform-origin:237.9px 256.895px"/><path id="elc7dmt2m0sjd" d="M230.41 258a108 108 0 0 0-7.41 12.06" class="animable" style="fill:none;stroke:#fff;stroke-linecap:round;stroke-linejoin:round;transform-origin:226.705px 264.03px"/><path id="elhru4s6faei" d="M331.11 240c-.91-.62-1.87-1.24-2.86-1.86" class="animable" style="fill:none;stroke:#fff;stroke-linecap:round;stroke-linejoin:round;transform-origin:329.68px 239.07px"/><path id="elbbq1oanmi2" d="M343.31 250.28a73.4 73.4 0 0 0-8.49-7.57" class="animable" style="fill:none;stroke:#fff;stroke-linecap:round;stroke-linejoin:round;transform-origin:339.065px 246.495px"/><path id="el8svwm4f051w" d="M337.83 239a108 108 0 0 0-12.16-7.23" class="animable" style="fill:none;stroke:#fff;stroke-linecap:round;stroke-linejoin:round;transform-origin:331.75px 235.385px"/><path id="elchmmh6s78s" d="M228.25 302c-.52 3.76-1.3 9-2.08 12.11" class="animable" style="fill:none;stroke:#2e353a;stroke-linecap:round;stroke-linejoin:round;transform-origin:227.21px 308.055px"/><path id="elwt0i175k9b" d="M228.83 297.43s-.08.71-.23 1.86" class="animable" style="fill:none;stroke:#2e353a;stroke-linecap:round;stroke-linejoin:round;transform-origin:228.715px 298.36px"/><path id="elf0dcuhjsexk" d="M231.5 308.1a84.6 84.6 0 0 1-4 10.67" class="animable" style="fill:none;stroke:#2e353a;stroke-linecap:round;stroke-linejoin:round;transform-origin:229.5px 313.435px"/><path id="elsyf3lf9z5rd" d="M281.5 313.43s.67 8.67 5.33 13.34" class="animable" style="fill:none;stroke:#2e353a;stroke-linecap:round;stroke-linejoin:round;transform-origin:284.165px 320.1px"/><path id="el3kmc5na0yyo" d="M280.83 322.1s2 6 6 8.67" class="animable" style="fill:none;stroke:#2e353a;stroke-linecap:round;stroke-linejoin:round;transform-origin:283.83px 326.435px"/><path id="elu3yi1yzqsjh" d="M145 368.44s4.44-3.57 4.44-34.26 5.11-53.11 11.41-62.94 12.19-13.77 14.95-13.77.78 3.54-3.15 8.65-7.47 7.87-9.05 14.17-1.57 14.16.4 13.37 5.11-16.52 7.86-22.42 9.45-13.38 13.38-16.92 12.59-14.16 16.52-11.41 1.58 6.69-.78 8.26-11.81 11-16.13 16.92-7.08 20.85-4.72 21.24 9.44-21.63 13.37-26.35 19.67-17.71 23.21-18.1 3.94 5.11.79 7.87-13.77 14.55-17.31 21.63-5.12 20.07-2 16.92 8.26-16.13 12.59-20.46 17.31-18.09 20.46-16.52 2.36 5.51-.39 8.26-13.38 17.71-16.13 25.57-5.91 29.9-4.33 26.76 6.69-19.28 9.44-26 8.26-9.83 9.05-6.69-.79 4.72-2.76 11.81-2 26-7.86 36.58-29.38 33.22-32.52 41.08a107 107 0 0 1-8.12 15.6" class="animable" style="fill:#2c9f45;mix-blend-mode:multiply;transform-origin:189.14px 314.875px"/><path id="el9u6ifa40cpr" d="M363.55 371.1s-4.55-6.23-4.55-36.92-5.12-53.11-11.41-62.94-12.2-13.77-14.95-13.77-.79 3.54 3.15 8.65 7.47 7.87 9 14.17 1.58 14.16-.39 13.37-5.11-16.52-7.87-22.42-9.44-13.38-13.37-16.92-12.59-14.16-16.53-11.41-1.57 6.69.79 8.26 11.8 11 16.13 16.92 7.08 20.85 4.72 21.24-9.41-21.63-13.34-26.33-19.68-17.71-23.22-18.1-3.93 5.11-.78 7.87 13.77 14.55 17.31 21.63 5.11 20.07 2 16.92-8.26-16.13-12.58-20.46-17.31-18.09-20.46-16.52-2.36 5.51.39 8.26 13.38 17.71 16.13 25.57 5.9 29.9 4.33 26.76-6.69-19.28-9.44-26-8.26-9.83-9.05-6.69.79 4.72 2.75 11.81 2 26 7.87 36.58 28.72 31.23 31.87 39.1S330.9 390 330.9 390" class="animable" style="fill:#2c9f45;mix-blend-mode:multiply;transform-origin:319.355px 316.23px"/><path id="elok5pg3z8zr" d="M143.5 376s5.9-19.27 5.9-50 5.11-53.11 11.41-62.94 12.19-13.77 14.95-13.77.78 3.54-3.15 8.65-7.47 7.87-9.05 14.16-1.57 14.17.4 13.38 5.11-16.52 7.86-22.42 9.45-13.38 13.38-16.92 12.59-14.16 16.52-11.41 1.58 6.69-.78 8.26-11.81 11-16.13 16.92-7.08 20.85-4.72 21.24 9.44-21.63 13.37-26.36 19.67-17.7 23.21-18.09 3.94 5.11.79 7.87-13.77 14.55-17.31 21.63-5.12 20.07-2 16.92 8.26-16.13 12.59-20.46 17.31-18.09 20.46-16.52 2.36 5.51-.39 8.26-13.38 17.7-16.13 25.57-5.91 29.9-4.33 26.75 6.69-19.27 9.44-26 8.26-9.84 9.05-6.69-.79 4.72-2.76 11.8-2 26-7.86 36.59-28.72 39.34-31.87 47.21-10.23 25.18-10.23 25.18" class="animable" style="fill:#fff;stroke:#2e353a;stroke-linecap:round;stroke-linejoin:round;transform-origin:188.37px 314.545px"/><path id="el2804x7gwcgy" d="M364.89 376s-5.9-19.27-5.9-50-5.12-53.11-11.41-62.94-12.2-13.77-14.95-13.77-.79 3.54 3.15 8.65 7.47 7.87 9 14.16 1.58 14.17-.39 13.38-5.11-16.52-7.87-22.42-9.44-13.38-13.37-16.92-12.59-14.16-16.53-11.41-1.57 6.69.79 8.26 11.8 11 16.13 16.92 7.08 20.85 4.72 21.24-9.44-21.63-13.37-26.36-19.68-17.7-23.22-18.09-3.93 5.11-.78 7.87 13.77 14.55 17.31 21.63 5.11 20.07 2 16.92-8.26-16.13-12.58-20.46-17.31-18.09-20.46-16.52-2.36 5.51.39 8.26 13.38 17.7 16.13 25.57 5.9 29.9 4.33 26.75-6.69-19.27-9.44-26-8.26-9.84-9.05-6.69.79 4.72 2.75 11.8 2 26 7.87 36.59 28.72 39.34 31.87 47.21 10.23 25.18 10.23 25.18" class="animable" style="fill:#fff;stroke:#2e353a;stroke-linecap:round;stroke-linejoin:round;transform-origin:320.005px 314.545px"/><path id="elqio2af0vlqk" d="M118.6 436h60c.78-3 1.76-6.36 3-10 4.72-14.14 20-31.82 20-31.82A103.4 103.4 0 0 0 163.84 373c-23-7.08-39.84-5-39.84-5a92.6 92.6 0 0 1 1 39c-3 14.56-5 23.77-6.4 29" class="animable" style="fill:#2e353a;stroke:#2e353a;stroke-linecap:round;stroke-linejoin:round;transform-origin:160.1px 401.858px"/><path id="elm2g6b12mjb" d="M329.4 436h62.34c-2-5.18-6.32-16.43-10.64-27.68-5.9-15.32-3.54-35.94-5.9-35.94s-28.87-1.77-41.83 2.35-27.7 15.91-27.7 15.91A130.3 130.3 0 0 1 322.76 416a87.7 87.7 0 0 1 6.64 20" class="animable" style="fill:#2e353a;stroke:#2e353a;stroke-linecap:round;stroke-linejoin:round;transform-origin:348.705px 404.001px"/><path id="el5b7splq5xbs" d="M156.08 380.2c-.43-1.7-6.83.86-6.83.86s2.14-8.1-1.27-8.1-3.84 6-3.84 6-6.4-2.55-6.4 1.28S142 384 142 384s-5.12 6.4-1.28 7.67 6.39-3.41 6.39-3.41 2.56 4.27 6 2.56.85-5.54.85-5.54 2.54-3.37 2.12-5.08m-8.53 6.4a1.75 1.75 0 1 1 2.13-1.71 2 2 0 0 1-2.13 1.71m17.91 41.4c-.43-1.7-6.83.86-6.83.86s2.14-8.1-1.28-8.1-3.83 6-3.83 6-6.4-2.56-6.4 1.27 4.27 3.84 4.27 3.84-5.12 6.4-1.28 7.68 6.39-3.42 6.39-3.42 2.56 4.27 6 2.56.85-5.54.85-5.54 2.53-3.49 2.11-5.15m-8.53 6.4a1.75 1.75 0 1 1 2.13-1.71 1.95 1.95 0 0 1-2.13 1.66Zm-29 0c-.43-1.71-6.82.85-6.82.85s2.13-8.1-1.28-8.1-3.84 6-3.84 6-6.4-2.56-6.4 1.28 4.27 3.84 4.27 3.84-5.12 6.39-1.28 7.67 6.39-3.41 6.39-3.41 2.56 4.26 6 2.56.86-5.54.86-5.54 2.53-3.5 2.11-5.2Zm-8.53 6.39a1.75 1.75 0 1 1 2.13-1.7 1.95 1.95 0 0 1-2.12 1.65Zm55-39.65h4.69c3.41 0 5.54 3.84 5.54 3.84-7.24 2.08-10.22-3.89-10.22-3.89Zm-4.69 33.26h4.69c3.41 0 5.54 3.84 5.54 3.84-7.24 2.08-10.22-3.89-10.22-3.89Zm-40.92-6.4h4.69c3.41 0 5.54 3.84 5.54 3.84-7.25 2.08-10.23-3.84-10.23-3.84m22.67-30.09 2.74 3.81c2 2.78.11 6.74.11 6.74-5.96-4.69-2.85-10.6-2.85-10.6ZM128 410.65l2.14-4.17c1.57-3 5.95-3.18 5.95-3.18-1.47 7.42-8.09 7.35-8.09 7.35" class="animable" style="fill:#fff;transform-origin:147.11px 409.561px"/><path id="el2yr8s81dytl" d="M356.89 388.3c-.43-1.7-6.83.86-6.83.86s2.14-8.1-1.27-8.1-3.84 6-3.84 6-6.4-2.55-6.4 1.28 4.27 3.84 4.27 3.84-5.12 6.4-1.28 7.68 6.39-3.42 6.39-3.42 2.56 4.27 6 2.56.85-5.54.85-5.54 2.53-3.46 2.11-5.16m-8.53 6.4a1.75 1.75 0 1 1 2.13-1.71 1.95 1.95 0 0 1-2.13 1.71m28.56 26.86c-.42-1.71-6.82.85-6.82.85s2.13-8.1-1.28-8.1-3.83 6-3.83 6-6.4-2.56-6.4 1.28 4.26 3.84 4.26 3.84-5.11 6.39-1.27 7.67 6.39-3.41 6.39-3.41 2.56 4.26 6 2.56.85-5.54.85-5.54 2.53-3.45 2.1-5.15M368.4 428a1.75 1.75 0 1 1 2.13-1.7 1.95 1.95 0 0 1-2.13 1.7m-12.79 6.4c-.43-1.71-6.82.85-6.82.85s2.13-8.1-1.28-8.1-3.84 6-3.84 6-6.4-2.56-6.4 1.28 4.27 3.84 4.27 3.84-5.12 6.39-1.28 7.67 6.39-3.41 6.39-3.41 2.56 4.26 6 2.56.86-5.54.86-5.54 2.49-3.5 2.1-5.2Zm-8.53 6.39a1.75 1.75 0 1 1 2.13-1.7 1.95 1.95 0 0 1-2.13 1.65Zm28.14-31.55h4.69c3.41 0 5.54 3.84 5.54 3.84-7.25 2.08-10.23-3.89-10.23-3.89Zm-50.31 24.26h4.69c3.41 0 5.54 3.83 5.54 3.83-7.25 2.14-10.23-3.83-10.23-3.83m27.36-27.5 2.74 3.81c2 2.78.11 6.74.11 6.74-5.96-4.68-2.85-10.55-2.85-10.55M380 429.84l2.73 3.81c2 2.77.11 6.74.11 6.74-5.96-4.65-2.84-10.55-2.84-10.55m-51.23-11.09 2.14-4.17c1.57-3 6-3.18 6-3.18-1.48 7.42-8.15 7.35-8.15 7.35Z" class="animable" style="fill:#fff;transform-origin:355.18px 413.611px"/></g><defs><filter id="active" height="200%"><feMorphology in="SourceAlpha" operator="dilate" radius="2" result="DILATED"/><feFlood flood-color="#32dfec" flood-opacity="1" result="PINK"/><feComposite in="PINK" in2="DILATED" operator="in" result="OUTLINE"/><feMerge><feMergeNode in="OUTLINE"/><feMergeNode in="SourceGraphic"/></feMerge></filter><filter id="hover" height="200%"><feMorphology in="SourceAlpha" operator="dilate" radius="2" result="DILATED"/><feFlood flood-color="red" flood-opacity=".5" result="PINK"/><feComposite in="PINK" in2="DILATED" operator="in" result="OUTLINE"/><feMerge><feMergeNode in="OUTLINE"/><feMergeNode in="SourceGraphic"/></feMerge><feColorMatrix values="0 0 0 0 0 0 1 0 0 0 0 0 0 0 0 0 0 0 1 0"/></filter></defs></svg>