<svg xmlns="http://www.w3.org/2000/svg" id="freepik_stories-image-upload" class="animated" viewBox="0 0 500 500"><style>@keyframes zoomIn{0%{opacity:0;transform:scale(.5)}to{opacity:1;transform:scale(1)}}@keyframes shake{10%,90%{transform:translate3d(-1px,0,0)}20%,80%{transform:translate3d(2px,0,0)}30%,50%,70%{transform:translate3d(-4px,0,0)}40%,60%{transform:translate3d(4px,0,0)}}@keyframes slideRight{0%{opacity:0;transform:translateX(30px)}to{opacity:1;transform:translateX(0)}}@keyframes slideDown{0%{opacity:0;transform:translateY(-30px)}to{opacity:1;transform:translateY(0)}}@keyframes wind{0%{transform:rotate(0deg)}25%{transform:rotate(1deg)}75%{transform:rotate(-1deg)}}@keyframes floating{0%,to{opacity:1;transform:translateY(0)}50%{transform:translateY(-10px)}}svg#freepik_stories-image-upload:not(.animated) .animable{opacity:0}</style><g id="freepik--background-simple--inject-72" class="animable" style="animation:1s 1 forwards cubic-bezier(.36,-.01,.5,1.38) zoomIn,6s Infinite linear shake;animation-delay:0s,1s;transform-origin:250.899px 250.402px"><path id="elc9my35pqqtj" d="M368.44 167.79C327.25 123.86 264.79 98 205.81 118.61c-49.06 17.12-89.63 59.53-111.69 106.79C78.6 258.66 70 301.75 79.45 338c8.2 31.44 34.4 45.42 64.36 47.66 47.38 3.55 94.93-1.59 142.34-.68 33.65.64 85 13.09 115-6.89 28.35-18.88 26.58-60 23.47-90.17-4.62-45.01-25.9-87.82-56.18-120.13" class="animable" style="fill:#2c9f45;transform-origin:250.899px 250.402px"/><g id="elfhvegfvelrl"><path id="ela7ybqnjaczb" d="M368.44 167.79C327.25 123.86 264.79 98 205.81 118.61c-49.06 17.12-89.63 59.53-111.69 106.79C78.6 258.66 70 301.75 79.45 338c8.2 31.44 34.4 45.42 64.36 47.66 47.38 3.55 94.93-1.59 142.34-.68 33.65.64 85 13.09 115-6.89 28.35-18.88 26.58-60 23.47-90.17-4.62-45.01-25.9-87.82-56.18-120.13" class="animable" style="fill:#fff;opacity:.7;transform-origin:250.899px 250.402px"/></g></g><g id="freepik--Arrows--inject-72" class="animable" style="animation:1s 1 forwards cubic-bezier(.36,-.01,.5,1.38) zoomIn;animation-delay:0s;transform-origin:246.507px 275.264px"><path id="elxq9ywsjtfj" d="M119.27 313.61h-22a.5.5 0 0 1-.5-.5v-33.7h-6.53a.49.49 0 0 1-.45-.28.51.51 0 0 1 0-.53l18-22.72a.51.51 0 0 1 .78 0l18 22.72a.5.5 0 0 1-.39.81h-6.56v33.7a.5.5 0 0 1-.35.5m-21.48-1h21v-33.7a.5.5 0 0 1 .5-.5h6l-17-21.41-17 21.41h6a.5.5 0 0 1 .5.5Z" class="animable" style="fill:#2c9f45;transform-origin:108.197px 284.654px"/><path id="elgkxkqsb4ifg" d="M340.11 313.61h-22a.5.5 0 0 1-.5-.5v-33.7h-6.56a.5.5 0 0 1-.39-.81l18.05-22.72a.51.51 0 0 1 .78 0l18.05 22.72a.5.5 0 0 1-.39.81h-6.56v33.7a.5.5 0 0 1-.48.5m-21.48-1h21v-33.7a.5.5 0 0 1 .5-.5h6l-17-21.41-17 21.41h6a.5.5 0 0 1 .5.5Z" class="animable" style="fill:#2c9f45;transform-origin:329.1px 284.654px"/><path id="eldm3p6yf6kjd" d="M395.83 369.56h-22a.5.5 0 0 1-.5-.5v-33.7h-6.53a.5.5 0 0 1-.39-.81l18-22.71a.51.51 0 0 1 .78 0l18 22.71a.5.5 0 0 1-.39.81h-6.56v33.7a.5.5 0 0 1-.41.5m-21.47-1h21v-33.7a.5.5 0 0 1 .5-.5h6l-17-21.41-17 21.41h6a.51.51 0 0 1 .5.5Z" class="animable" style="fill:#2c9f45;transform-origin:384.8px 340.609px"/><path id="el2uglrrp8mel" d="M373 238.88h-22a.5.5 0 0 1-.5-.5v-33.7h-6.56a.49.49 0 0 1-.45-.29.51.51 0 0 1 .06-.53l18-22.71a.52.52 0 0 1 .79 0l18 22.71a.51.51 0 0 1-.39.82h-6.56v33.7a.5.5 0 0 1-.39.5m-21.47-1h21v-33.7a.5.5 0 0 1 .5-.5h6l-17-21.42-17 21.42h6a.5.5 0 0 1 .5.5Z" class="animable" style="fill:#2c9f45;transform-origin:361.944px 209.924px"/><path id="elun4asnwvgy" d="M165.16 242.81h-22a.5.5 0 0 1-.5-.5v-33.7h-6.55a.5.5 0 0 1-.4-.81l18.05-22.72a.51.51 0 0 1 .78 0l18.05 22.72a.5.5 0 0 1-.39.81h-6.56v33.7a.5.5 0 0 1-.48.5m-21.48-1h21v-33.7a.5.5 0 0 1 .5-.5h6l-17-21.41-17 21.41h6a.5.5 0 0 1 .5.5Z" class="animable" style="fill:#2c9f45;transform-origin:154.15px 213.854px"/><path id="elmzgiltzyivb" d="M200.16 369.56h-22a.5.5 0 0 1-.5-.5v-33.7h-6.56a.5.5 0 0 1-.39-.81l18.05-22.71a.51.51 0 0 1 .78 0l18.05 22.71a.5.5 0 0 1-.4.81h-6.55v33.7a.5.5 0 0 1-.48.5m-21.48-1h21v-33.7a.5.5 0 0 1 .5-.5h6l-17-21.41-17 21.41h6a.5.5 0 0 1 .5.5Z" class="animable" style="fill:#2c9f45;transform-origin:189.15px 340.609px"/></g><g id="freepik--Floor--inject-72" class="animable" style="animation:1s 1 forwards cubic-bezier(.36,-.01,.5,1.38) slideRight;animation-delay:0s;transform-origin:254px 418.83px"><ellipse id="elv9zkm8kk8oc" cx="254" cy="418.83" class="animable" rx="102" ry="11.83" style="fill:#2c9f45;transform-origin:254px 418.83px"/><g id="elra5p74mrk6q"><ellipse id="eleqlpqit48qg" cx="254" cy="418.83" class="animable" rx="102" ry="11.83" style="fill:#fff;opacity:.5;transform-origin:254px 418.83px"/></g></g><g id="freepik--Cloud--inject-72" class="animable" style="animation:1s 1 forwards cubic-bezier(.36,-.01,.5,1.38) slideDown,3s Infinite linear wind;animation-delay:0s,1s;transform-origin:240.181px 121.738px"><path id="elbk06jpmp1au" d="M319.27 134.91a37.65 37.65 0 0 0-57.94-38.24A50.8 50.8 0 0 0 163.55 116v1.87a33.07 33.07 0 0 0 4.52 64.56v.35h149.58a24 24 0 0 0 1.62-47.86Z" class="animable" style="fill:#263238;stroke:#263238;stroke-linecap:round;stroke-linejoin:round;transform-origin:240.181px 123.988px"/><path id="el0xbuu3pywlu" d="M319.27 130.41a37.65 37.65 0 0 0-57.94-38.24 50.8 50.8 0 0 0-97.78 19.32v1.87a33.07 33.07 0 0 0 4.52 64.56v.35h149.58a24 24 0 0 0 1.62-47.86" class="animable" style="fill:#2c9f45;stroke:#263238;stroke-linecap:round;stroke-linejoin:round;transform-origin:240.181px 119.483px"/></g><g id="freepik--Character--inject-72" class="animable" style="animation:1s 1 forwards cubic-bezier(.36,-.01,.5,1.38) slideRight,6s Infinite linear floating;animation-delay:0s,1s;transform-origin:266.053px 267.513px"><path id="elc597y9rfk3b" d="m267.4 264.46-6.29 3.3s-6.89 3-11.39 5.39-26.67 19.48-26.67 19.48l-4.49.3-2.7 1.8s-4.5.9-4.5 1.8.9 1.19 1.8 1.19a17.7 17.7 0 0 0 3.9-1.49s-3.05 4.46-1.85 4.46a47 47 0 0 1 5.17.83 59 59 0 0 1 6-.8c1.5 0 5.09-8.09 5.09-8.09s25.77-10.19 29.07-12.59 12.88-8.39 12.88-8.39Z" class="animable" style="fill:#fff;stroke:#263238;stroke-linecap:round;stroke-linejoin:round;transform-origin:242.39px 282.99px"/><path id="elfdcdvx9fwv8" d="m291.59 239.84-28.09 25.52 8.1 9.59 15.58-5.99 5.39-28.77z" class="animable" style="fill:#2c9f45;stroke:#263238;stroke-linecap:round;stroke-linejoin:round;transform-origin:278.035px 257.395px"/><path id="el3j81e4u9k08" d="m267.25 261.96-3.75 3.4 8.1 9.59 4.83-1.86z" class="animable" style="fill:#263238;stroke:#263238;stroke-linecap:round;stroke-linejoin:round;transform-origin:269.965px 268.455px"/><path id="elgdl5m7s3j7" d="M340.62 399.53s8.92 9.28 9.83 13.83-1.27 8.56-4.91 7.46-6.92-12.37-7.83-14.37-2-4.19-2-4.19 2.73-3.64 4.91-2.73" class="animable" style="fill:#2c9f45;stroke:#263238;stroke-linecap:round;stroke-linejoin:round;transform-origin:343.183px 410.194px"/><path id="elyydobraobwe" d="M350.53 413.85c.66 4.34-1.49 8-5 7-1.27-.37-2.49-2-3.58-4 2.38-3.85 6.21-3.64 8.58-3" class="animable" style="fill:#fff;stroke:#263238;stroke-linecap:round;stroke-linejoin:round;transform-origin:346.299px 417.251px"/><path id="el198yg09rhy5" d="M340.71 414.22c2 2.73 4.54 5.66 6.46 5.15s2.93-4.12 3.28-6c.9 4.54-1.28 8.52-4.91 7.43-1.78-.51-3.46-3.46-4.83-6.58" class="animable" style="fill:#fff;stroke:#263238;stroke-linecap:round;stroke-linejoin:round;transform-origin:345.681px 417.176px"/><path id="el8yas9yqzbo" d="M338.8 404.63s4-2.19 4.19-1.46-3.82 2.73-4.37 2.73-.91-.18.18-1.27" class="animable" style="fill:#fff;stroke:#263238;stroke-linecap:round;stroke-linejoin:round;stroke-width:.5px;transform-origin:340.545px 404.461px"/><path id="elsxcbk001ueb" d="M339.71 405.9s4-2.18 4.19-1.45-3.82 2.73-4.37 2.73-.91-.18.18-1.28" class="animable" style="fill:#fff;stroke:#263238;stroke-linecap:round;stroke-linejoin:round;stroke-width:.5px;transform-origin:341.455px 405.74px"/><path id="eliu0lrq2yca" d="M340.62 407.18s4-2.19 4.19-1.46-3.82 2.73-4.37 2.73-.91-.18.18-1.27" class="animable" style="fill:#fff;stroke:#263238;stroke-linecap:round;stroke-linejoin:round;stroke-width:.5px;transform-origin:342.365px 407.011px"/><path id="elrchhk44p2te" d="M341.53 408.45s4-2.18 4.19-1.46-3.82 2.73-4.37 2.73-.91-.18.18-1.27" class="animable" style="fill:#fff;stroke:#263238;stroke-linecap:round;stroke-linejoin:round;stroke-width:.5px;transform-origin:343.275px 408.282px"/><path id="el9uu0gzbturu" d="M268.75 407.88s3.48 4.85 3.79 7.6-2 2.82-4.94 2.51-6.45 1.86-10.59 1.75-8.93-1.92-6.63-3.89 8.3-3.59 9.6-4.72a22.5 22.5 0 0 0 2.18-2.19Z" class="animable" style="fill:#2c9f45;stroke:#263238;stroke-linecap:round;stroke-linejoin:round;transform-origin:261.175px 413.812px"/><path id="elw7ufnl1r6ro" d="M250.38 415.85a11.9 11.9 0 0 1 2.64-1.57 8.8 8.8 0 0 1 4.34 5.46H257c-4.14-.11-8.92-1.92-6.62-3.89" class="animable" style="fill:#fff;stroke:#263238;stroke-linecap:round;stroke-linejoin:round;transform-origin:253.571px 417.01px"/><path id="el0ng8t67blc8g" d="M260.36 410.49s4.27 2.23 3.19 2.67-4.32-2.06-3.19-2.67" class="animable" style="fill:#fff;stroke:#263238;stroke-linecap:round;stroke-linejoin:round;stroke-width:.5px;transform-origin:261.925px 411.851px"/><path id="ellmnv35pnlnj" d="M258.7 410.94s4.27 2.23 3.19 2.67-4.32-2.06-3.19-2.67" class="animable" style="fill:#fff;stroke:#263238;stroke-linecap:round;stroke-linejoin:round;stroke-width:.5px;transform-origin:260.265px 412.301px"/><path id="ellpaqg9075qm" d="M257.74 411.6s4.27 2.23 3.19 2.67-4.32-2.06-3.19-2.67" class="animable" style="fill:#fff;stroke:#263238;stroke-linecap:round;stroke-linejoin:round;stroke-width:.5px;transform-origin:259.305px 412.961px"/><path id="elpd5vxva35nq" d="M256 412.4s4.27 2.23 3.19 2.67-4.34-2.07-3.19-2.67" class="animable" style="fill:#fff;stroke:#263238;stroke-linecap:round;stroke-linejoin:round;stroke-width:.5px;transform-origin:257.561px 413.761px"/><path id="elaaaiy3vdfxq" d="M249.9 416.46a13.36 13.36 0 0 0 9.93 1.47 61 61 0 0 1 9.52-1.32 11.9 11.9 0 0 0 3.21-.54c-.08 2.17-2.24 2.21-5 1.92-2.94-.32-6.45 1.86-10.59 1.75-3.68-.1-7.88-1.56-7.07-3.28" class="animable" style="fill:#fff;stroke:#263238;stroke-linecap:round;stroke-linejoin:round;transform-origin:261.179px 417.907px"/><path id="elqt3aydtx7wk" d="M312.48 301s-2.1 29.24-.83 36.33 4.4 28.2 4.4 28.2 4.74 3.46 9.47 11.1 15.1 22.93 15.1 22.93.37 2.73-2.91 3.64c0 0-1.64.73-2.55 0s-32-29.48-35.67-35.48-8.55-42.92-8.55-42.92l-4.73-.91-20 38.22 3.48 46.46s.27 1.6-2 2.25-4.1.88-5.46-.29-11.89-52.05-11-53.87 21.07-51.84 21.07-51.84l1.63-4.18s19.11 2.18 27.66.54 10.17-2.94 10.89-.18" class="animable" style="fill:#263238;stroke:#263238;stroke-linecap:round;stroke-linejoin:round;transform-origin:295.905px 355.377px"/><path id="elmo9r184qj4" d="m286.21 323.86-10.38-3.09" class="animable" style="fill:none;stroke:#fff;stroke-linecap:round;stroke-linejoin:round;transform-origin:281.02px 322.315px"/><path id="elq3itnngqx3" d="m285.11 324.41-14.19-1.64" class="animable" style="fill:none;stroke:#fff;stroke-linecap:round;stroke-linejoin:round;transform-origin:278.015px 323.59px"/><path id="elb8rj4h7iudf" d="M309.22 306.66s-7.68 4.9 0 8.17" class="animable" style="fill:none;stroke:#fff;stroke-linecap:round;stroke-linejoin:round;transform-origin:307.513px 310.745px"/><path id="elteodbuellc" d="m287.48 308.66-1.18 4.72-3.16 3.16 3.94 3.54" class="animable" style="fill:none;stroke:#fff;stroke-linecap:round;stroke-linejoin:round;transform-origin:285.31px 314.37px"/><path id="elhd6ctmmeedu" d="M332.47 252.72c-7-5.68-15.69-12.54-15.69-12.54s-18.43-.42-25.19-.34l-9.5 30.32s-8.73 30.2-8.37 31.48 6.56 4.18 20.39 5.82 19.65-4.18 20-6a15.1 15.1 0 0 0-.36-4.92l4.73-8.37 15.65-25.74a7.49 7.49 0 0 0-1.66-9.71" class="animable" style="fill:#2c9f45;stroke:#263238;stroke-linecap:round;stroke-linejoin:round;transform-origin:304.469px 273.789px"/><path id="elul25wk00slh" d="M327 248.29c-5.36-4.3-10.19-8.11-10.19-8.11s-6.12-.14-12.59-.24c-1.64 3.74-4.47 11.38-2.14 15.16 2.84 4.66 12.23 6.05 24.92-6.81" class="animable" style="fill:#263238;stroke:#263238;stroke-linecap:round;stroke-linejoin:round;transform-origin:314.098px 249.184px"/><path id="elqfggsj6azcd" d="M318.67 209s-5.27 1.46-7.46 4.73-8.55 22.39-8.37 24 8.37 0 8.37 0-5.64 11.83-5.64 13.83 2.55 3.1 5.82 2.37S325.83 234 325.83 234s3.31 3.84 5.4 2.52c2.4-1.51 1.64-4.55-.18-4.55s5.09-7.46 2.73-12.37-12.92-12.23-15.11-10.6" class="animable" style="fill:#fff;stroke:#263238;stroke-linecap:round;stroke-linejoin:round;transform-origin:318.557px 231.462px"/><path id="elh11giqb1hhw" d="M316.67 203.19s-10.19 0-10.74 4.91 4.74 7.1 10.56 6.19 11.1-.55 11.83.36-7.1 2.73-5.28 4a5.88 5.88 0 0 0 3.64 1.1s-2.55.72-2.37 2.54 1.77 9.86 3 9.86 3.7-.16 3.7-.16a23 23 0 0 0 6.19-4.55c2.73-2.91 3.45-9.1 0-12.73s-6.19-7.16-8.92-10.07-5.28-6-10.74-6.73-8.33 1.45-.87 5.28" class="animable" style="fill:#263238;stroke:#263238;stroke-linecap:round;stroke-linejoin:round;transform-origin:322.708px 214.96px"/><path id="elnnlnw6lku9" d="M337.92 222a11.5 11.5 0 0 1 .11 3.23" class="animable" style="fill:none;stroke:#fff;stroke-linecap:round;stroke-linejoin:round;transform-origin:338.008px 223.615px"/><path id="elbabi12n6i7e" d="M319.22 208.93s-11.17 1.09-7 3.22 10.68-1.86 18.81 1.36a10.43 10.43 0 0 1 6.11 5.86" class="animable" style="fill:none;stroke:#fff;stroke-linecap:round;stroke-linejoin:round;transform-origin:324.214px 214.15px"/><path id="elva0gydrc0bd" d="M326 217.41s7.63 3.73 8.64 9.15" class="animable" style="fill:none;stroke:#fff;stroke-linecap:round;stroke-linejoin:round;transform-origin:330.32px 221.985px"/><path id="elwusdlgjmhfm" d="M311.21 237.76s8.74-.54 11.1-2.54" class="animable" style="fill:none;stroke:#263238;stroke-linecap:round;stroke-linejoin:round;transform-origin:316.76px 236.49px"/><path id="el5ko4xsdpoab" d="M308.48 230.48s6.37 1.82 8.19-2" class="animable" style="fill:none;stroke:#263238;stroke-linecap:round;stroke-linejoin:round;transform-origin:312.575px 229.697px"/><path id="elu21nh8mjlep" d="m315.58 227.75 2.73 1.1" class="animable" style="fill:none;stroke:#263238;stroke-linecap:round;stroke-linejoin:round;transform-origin:316.945px 228.3px"/><path id="el7i7qqj14l72" d="M310.48 222.11s-5.64.73-5.64 1.64 3.64 3.46 3.64 3.46" class="animable" style="fill:#fff;stroke:#263238;stroke-linecap:round;stroke-linejoin:round;transform-origin:307.66px 224.66px"/><path id="elqv7e2dxiej" d="M311.2 220.36c-.26.79-.79 1.32-1.19 1.19s-.5-.87-.23-1.66.79-1.32 1.19-1.19.5.88.23 1.66" class="animable" style="fill:#263238;transform-origin:310.49px 220.125px"/><path id="eluqttquj4yg" d="M316 222.79c-.27.79-.8 1.32-1.19 1.19s-.5-.88-.24-1.66.8-1.32 1.19-1.19.49.87.24 1.66" class="animable" style="fill:#263238;transform-origin:315.283px 222.555px"/><path id="eltcf6jjrjcnm" d="M316.25 217.62s2.76.25 2.5 4Z" class="animable" style="fill:#263238;stroke:#263238;stroke-linecap:round;stroke-linejoin:round;transform-origin:317.509px 219.62px"/><path id="elpqy6w9vrjr" d="M313.75 215.87s-1.51-2-3.51.75Z" class="animable" style="fill:#263238;stroke:#263238;stroke-linecap:round;stroke-linejoin:round;transform-origin:311.995px 215.894px"/><path id="el3giyiufl0f5" d="m263.53 149.31-26.34-33.15-26.33 33.15h10.3v49.91h32.07v-49.91z" class="animable" style="fill:#263238;stroke:#263238;stroke-linecap:round;stroke-linejoin:round;transform-origin:237.195px 157.69px"/><path id="elav2u87tezl" d="m263.53 147.16-26.34-33.15-26.33 33.15h10.3v49.91h32.07v-49.91z" class="animable" style="fill:#fff;stroke:#263238;stroke-linecap:round;stroke-linejoin:round;transform-origin:237.195px 155.54px"/><path id="elwhi18daer8" d="M181.45 191.44h107.11v107.11H181.45z" class="animable" style="fill:#fff;stroke:#263238;stroke-linecap:round;stroke-linejoin:round;transform-origin:235.005px 244.995px"/><path id="elqapuuwjeyw" d="M186.43 196.42h97.15v97.15h-97.15z" class="animable" style="fill:#263238;stroke:#263238;stroke-linecap:round;stroke-linejoin:round;transform-origin:235.005px 244.995px"/><path id="eli38rihejc7" d="m261.05 229.13-22.66 23.68-17.64-4.94a6 6 0 0 0-5.13.92L186.43 270v23.61h97.15v-50l-13.9-14.49a6 6 0 0 0-8.63.01" class="animable" style="fill:#fff;stroke:#263238;stroke-linecap:round;stroke-linejoin:round;transform-origin:235.005px 260.452px"/><g id="elpbdfox9f36"><circle id="elquxmx3fobk" cx="222.46" cy="222.57" r="12.26" class="animable" style="fill:#fff;stroke:#263238;stroke-linecap:round;stroke-linejoin:round;transform-origin:222.46px 222.57px;transform:rotate(-67.68deg)"/></g><path id="elgzduc5seoo" d="m319.09 257.35-26.77 27.52-40.8 11.24s-3.64-4.23-6.26-4.26-11.06 3-11.06 3-1.07 2.62 1 2.64a37 37 0 0 0 6.31-1l-11.57 2a3.77 3.77 0 0 0 3.69 3.18h5.21l8.91 1.13 8.43-2.55s39.94-4.35 42.05-4.86 36-29.6 36-29.6 3.83-3.37 2.37-7.28-8.93-6.68-8.93-6.68" class="animable" style="fill:#fff;stroke:#263238;stroke-linecap:round;stroke-linejoin:round;transform-origin:283.436px 277.315px"/><path id="elc96wtor4pzc" d="m314.26 260.22-20.41 20.47L309 291.62l26.32-24.79a7.71 7.71 0 0 0 1.35-9.58l-.09-.14a19.4 19.4 0 0 0-7.72-7" class="animable" style="fill:#2c9f45;stroke:#263238;stroke-linecap:round;stroke-linejoin:round;transform-origin:315.805px 270.865px"/><path id="el9jzm3pwhe9" d="m309.04 291.62 3.56-3.36-15.23-11.1-3.52 3.53z" class="animable" style="fill:#263238;stroke:#263238;stroke-linecap:round;stroke-linejoin:round;transform-origin:303.225px 284.39px"/><path id="elbde42mracsk" d="m211.36 296.53 3.85 4.16 3.73.41-5.79-4.96z" class="animable" style="fill:#fff;stroke:#263238;stroke-linecap:round;stroke-linejoin:round;transform-origin:215.15px 298.62px"/><path id="elz45jmsjh3eo" d="m218.6 296.53 3.85 4.16 3.72.41-5.79-4.96z" class="animable" style="fill:#fff;stroke:#263238;stroke-linecap:round;stroke-linejoin:round;transform-origin:222.385px 298.62px"/><path id="elrv1h9dqg4ld" d="m218.94 301.1-4.35-5.58h2.69l5.38 5.58-2.28.42z" class="animable" style="fill:#fff;stroke:#263238;stroke-linecap:round;stroke-linejoin:round;transform-origin:218.625px 298.52px"/><path id="el60wgv9bz89f" d="m209.84 296.97 1.86 3.51 3.51.21-3.85-4.16z" class="animable" style="fill:#fff;stroke:#263238;stroke-linecap:round;stroke-linejoin:round;transform-origin:212.525px 298.61px"/></g><defs><filter id="active" height="200%"><feMorphology in="SourceAlpha" operator="dilate" radius="2" result="DILATED"/><feFlood flood-color="#32dfec" flood-opacity="1" result="PINK"/><feComposite in="PINK" in2="DILATED" operator="in" result="OUTLINE"/><feMerge><feMergeNode in="OUTLINE"/><feMergeNode in="SourceGraphic"/></feMerge></filter><filter id="hover" height="200%"><feMorphology in="SourceAlpha" operator="dilate" radius="2" result="DILATED"/><feFlood flood-color="red" flood-opacity=".5" result="PINK"/><feComposite in="PINK" in2="DILATED" operator="in" result="OUTLINE"/><feMerge><feMergeNode in="OUTLINE"/><feMergeNode in="SourceGraphic"/></feMerge><feColorMatrix values="0 0 0 0 0 0 1 0 0 0 0 0 0 0 0 0 0 0 1 0"/></filter></defs></svg>