<svg xmlns="http://www.w3.org/2000/svg" id="freepik_stories-security-on" class="animated" viewBox="0 0 500 500"><style>@keyframes floating{0%,to{opacity:1;transform:translateY(0)}50%{transform:translateY(-10px)}}@keyframes slideRight{0%{opacity:0;transform:translateX(30px)}to{opacity:1;transform:translateX(0)}}@keyframes wind{0%{transform:rotate(0deg)}25%{transform:rotate(1deg)}75%{transform:rotate(-1deg)}}@keyframes slideLeft{0%{opacity:0;transform:translateX(-30px)}to{opacity:1;transform:translateX(0)}}svg#freepik_stories-security-on:not(.animated) .animable{opacity:0}</style><g id="freepik--background-simple--inject-63" class="animable" style="transform-origin:241.959px 225.645px"><path id="el5rq0tn7n7nj" d="M394.5 162s3.75-50.56-48.69-84.27-127.35-27.16-177.92-.94-43.07 86.11-59.89 124.5-55.25 45-52.44 97.39 35.59 77.72 73 86.15 72.11-1.87 105.82 3.74 80.53 16.86 134.84-4.68 64.61-80.53 57.12-127.35S394.5 192.87 394.5 162" class="animable" style="fill:#2c9f45;transform-origin:241.959px 225.645px"/><g id="elq5vp3o6ulem"><path id="elfk1oo2qh9y8" d="M394.5 162s3.75-50.56-48.69-84.27-127.35-27.16-177.92-.94-43.07 86.11-59.89 124.5-55.25 45-52.44 97.39 35.59 77.72 73 86.15 72.11-1.87 105.82 3.74 80.53 16.86 134.84-4.68 64.61-80.53 57.12-127.35S394.5 192.87 394.5 162" class="animable" style="fill:#fff;opacity:.7;transform-origin:241.959px 225.645px"/></g></g><g id="freepik--Device--inject-63" class="animable" style="animation:6s Infinite linear floating;animation-delay:0s;transform-origin:247.6px 231.175px"><path id="elwutq2d3ymdp" d="M344.1 361.12H151.32l15.22-14.69h162.34z" class="animable" style="fill:#fff;stroke:#263238;stroke-linecap:round;stroke-linejoin:round;transform-origin:247.71px 353.775px"/><path id="el8vuwtxcbnkm" d="M322.68 352.1c0 3-34.91 5.47-78 5.47s-78-2.45-78-5.47 34.91-5.48 78-5.48 78 2.45 78 5.48" class="animable" style="fill:#2c9f45;transform-origin:244.68px 352.095px"/><g id="elcgepyo4vmmi"><path id="elmogp6jb4qg" d="M322.68 352.1c0 3-34.91 5.47-78 5.47s-78-2.45-78-5.47 34.91-5.48 78-5.48 78 2.45 78 5.48" class="animable" style="fill:#fff;opacity:.5;transform-origin:244.68px 352.095px"/></g><path id="el6uv4ptz1zt5" d="M151.32 361.12H344.1v13.61H151.32z" class="animable" style="fill:#263238;stroke:#263238;stroke-linecap:round;stroke-linejoin:round;transform-origin:247.71px 367.925px"/><path id="elztsmujag88" d="M357.74 389.41H137.68l13.64-14.68H344.1z" class="animable" style="fill:#fff;stroke:#263238;stroke-linecap:round;stroke-linejoin:round;transform-origin:247.71px 382.07px"/><path id="elousamsh5oc" d="M137.72 389.41H357.7v14.32H137.72z" class="animable" style="fill:#263238;stroke:#263238;stroke-linecap:round;stroke-linejoin:round;transform-origin:247.71px 396.57px"/><path id="eleanyc2gouhf" d="M245.58 215.93V124.4h34.83V85.89" class="animable" style="fill:none;stroke:#263238;stroke-miterlimit:10;transform-origin:262.995px 150.91px"/><path id="elgzfvhvd559" d="M259.19 123.97V85.89" class="animable" style="fill:none;stroke:#263238;stroke-miterlimit:10;transform-origin:259.19px 104.93px"/><path id="el1i0wl6wiq7y" d="M248.18 230.52h160.36v-22.8h30.65" class="animable" style="fill:none;stroke:#263238;stroke-miterlimit:10;transform-origin:343.685px 219.12px"/><path id="el8hdxnjpbkhl" d="M240.32 229.73H87.83v-24.36H54.82" class="animable" style="fill:none;stroke:#263238;stroke-miterlimit:10;transform-origin:147.57px 217.55px"/><path id="elz6wef92soi" d="M214.38 61.52v34.59h-19.65v22h24.37V192" class="animable" style="fill:none;stroke:#263238;stroke-miterlimit:10;transform-origin:206.915px 126.76px"/><path id="elcrixmhjwajo" d="M322.07 163.7v-49.52h13.36V92.96h11.01" class="animable" style="fill:none;stroke:#263238;stroke-miterlimit:10;transform-origin:334.255px 128.33px"/><path id="eluur446ox2y" d="M160.15 158.99v-37.73l-11.01-11.01V82.74" class="animable" style="fill:none;stroke:#263238;stroke-miterlimit:10;transform-origin:154.645px 120.865px"/><path id="el4eycvec7rpk" d="M351.94 181h27.51v-18.08h18.08V152.7h15.72" class="animable" style="fill:none;stroke:#263238;stroke-miterlimit:10;transform-origin:382.595px 166.85px"/><path id="ell7jbjq7m99d" d="M132.63 187.29h-29.08v-22.8H62.68" class="animable" style="fill:none;stroke:#263238;stroke-miterlimit:10;transform-origin:97.655px 175.89px"/><path id="eldq5coxjcaw" d="M159.36 310.69v20.44H146v22.8h-38.52" class="animable" style="fill:none;stroke:#263238;stroke-miterlimit:10;transform-origin:133.42px 332.31px"/><path id="eltnuej0effdf" d="M306.35 313.84v21.22H337v-8.64h8.65v18.07h26.73" class="animable" style="fill:none;stroke:#263238;stroke-miterlimit:10;transform-origin:339.365px 329.165px"/><path id="elzl7bmrx2vdb" d="M282.65 85.89a2.24 2.24 0 1 1-2.24-2.25 2.24 2.24 0 0 1 2.24 2.25" class="animable" style="fill:#263238;stroke:#263238;stroke-linecap:round;stroke-linejoin:round;transform-origin:280.41px 85.88px"/><path id="el5krxopogceq" d="M261.51 85.89a2.24 2.24 0 1 1-2.24-2.25 2.24 2.24 0 0 1 2.24 2.25" class="animable" style="fill:#263238;stroke:#263238;stroke-linecap:round;stroke-linejoin:round;transform-origin:259.27px 85.88px"/><path id="elu3q5bn6n5ma" d="M216.64 60.87a2.25 2.25 0 1 1-2.24-2.25 2.24 2.24 0 0 1 2.24 2.25" class="animable" style="fill:#263238;stroke:#263238;stroke-linecap:round;stroke-linejoin:round;transform-origin:214.39px 60.87px"/><path id="elq6mfin9cbye" d="M151.4 81.61a2.24 2.24 0 1 1-2.24-2.25 2.24 2.24 0 0 1 2.24 2.25" class="animable" style="fill:#263238;stroke:#263238;stroke-linecap:round;stroke-linejoin:round;transform-origin:149.16px 81.6px"/><path id="ela3t9fh691p" d="M64.92 164.49a2.25 2.25 0 1 1-2.24-2.24 2.24 2.24 0 0 1 2.24 2.24" class="animable" style="fill:#263238;stroke:#263238;stroke-linecap:round;stroke-linejoin:round;transform-origin:62.67px 164.5px"/><path id="elgejcb8tm89k" d="M57.13 205.3a2.25 2.25 0 1 1-2.25-2.25 2.25 2.25 0 0 1 2.25 2.25" class="animable" style="fill:#263238;stroke:#263238;stroke-linecap:round;stroke-linejoin:round;transform-origin:54.88px 205.3px"/><path id="elniiui4ce6zf" d="M109.92 353.5a2.25 2.25 0 1 1-2.24-2.25 2.24 2.24 0 0 1 2.24 2.25" class="animable" style="fill:#263238;stroke:#263238;stroke-linecap:round;stroke-linejoin:round;transform-origin:107.67px 353.5px"/><path id="elih4swoayr1s" d="M375.76 344.05a2.25 2.25 0 1 1-2.25-2.24 2.24 2.24 0 0 1 2.25 2.24" class="animable" style="fill:#263238;stroke:#263238;stroke-linecap:round;stroke-linejoin:round;transform-origin:373.51px 344.06px"/><path id="elnrq85ifbmti" d="M442.57 207.28a2.24 2.24 0 1 1-2.24-2.24 2.24 2.24 0 0 1 2.24 2.24" class="animable" style="fill:#263238;stroke:#263238;stroke-linecap:round;stroke-linejoin:round;transform-origin:440.33px 207.28px"/><path id="elcsn17uw2vcl" d="M416.55 152.22a2.24 2.24 0 1 1-2.24-2.24 2.24 2.24 0 0 1 2.24 2.24" class="animable" style="fill:#263238;stroke:#263238;stroke-linecap:round;stroke-linejoin:round;transform-origin:414.31px 152.22px"/><path id="el0sxqagav9ypc" d="M350.13 92.9a2.24 2.24 0 1 1-2.24-2.24 2.24 2.24 0 0 1 2.24 2.24" class="animable" style="fill:#263238;stroke:#263238;stroke-linecap:round;stroke-linejoin:round;transform-origin:347.89px 92.9px"/><path id="elm54i4r9hn5" d="M274.92 330.5V311h-58.68v19.5A27.88 27.88 0 0 1 210 348l-2.57 3.18h76.28l-2.56-3.18a27.83 27.83 0 0 1-6.23-17.5" class="animable" style="fill:#fff;transform-origin:245.57px 331.09px"/><g id="el7ugr0vh7rpd" class="animable" style="clip-path:url(#freepik--clip-path--inject-63);transform-origin:245.58px 317.3px"><path id="ell7ah665fnvh" d="M212.64 344.16h65.88a27.77 27.77 0 0 1-3.6-13.66V311h-58.68v19.5a27.77 27.77 0 0 1-3.6 13.66" class="animable" style="fill:#2c9f45;transform-origin:245.58px 327.58px"/><g id="ely0e5zs4f6v8"><path id="el5uxzbm53gy7" d="M212.64 344.16h65.88a27.77 27.77 0 0 1-3.6-13.66V311h-58.68v19.5a27.77 27.77 0 0 1-3.6 13.66" class="animable" style="fill:#fff;opacity:.3;transform-origin:245.58px 327.58px"/></g><path id="elj5dsqgeeg1" d="M212.64 323.6h65.88a27.77 27.77 0 0 1-3.6-13.66v-19.5h-58.68v19.5a27.77 27.77 0 0 1-3.6 13.66" class="animable" style="fill:#263238;transform-origin:245.58px 307.02px"/></g><path id="el71l6ofxejv5" d="M274.92 330.5V311h-58.68v19.5A27.88 27.88 0 0 1 210 348l-2.57 3.18h76.28l-2.56-3.18a27.83 27.83 0 0 1-6.23-17.5" class="animable" style="fill:none;stroke:#263238;stroke-linecap:round;stroke-linejoin:round;transform-origin:245.57px 331.09px"/><rect id="elapgwued6p8p" width="235.82" height="173.15" x="127.67" y="143.99" class="animable" rx="8.48" style="fill:#263238;stroke:#263238;stroke-linecap:round;stroke-linejoin:round;transform-origin:245.58px 230.565px"/><path id="elqnmvvo2rq8" d="M127.67 290.23h235.82v18.43a8.48 8.48 0 0 1-8.48 8.48H136.15a8.48 8.48 0 0 1-8.48-8.48z" class="animable" style="fill:#fff;stroke:#263238;stroke-linecap:round;stroke-linejoin:round;transform-origin:245.58px 303.685px"/><path id="eld8y23p8jxuj" d="M139.53 154.77h212.09V277.1H139.53z" class="animable" style="fill:#fff;stroke:#263238;stroke-linecap:round;stroke-linejoin:round;transform-origin:245.575px 215.935px"/><path id="elumhks86k9c" d="M249.93 308a4.35 4.35 0 1 0-4.35 4.26 4.31 4.31 0 0 0 4.35-4.26" class="animable" style="fill:#263238;stroke:#263238;stroke-linecap:round;stroke-linejoin:round;transform-origin:245.581px 307.91px"/><path id="eldbjij2wt1rg" d="M207.44 351.21h76.29v3.48h-76.29z" class="animable" style="fill:#fff;stroke:#263238;stroke-linecap:round;stroke-linejoin:round;transform-origin:245.585px 352.95px"/><path id="elkiifirzo5o" d="M245.9 148.42c-10.66 10-38 20-69.81 41.29 0 0 2 72 69.81 111.31Z" class="animable" style="fill:#2c9f45;stroke:#263238;stroke-linecap:round;stroke-linejoin:round;transform-origin:210.995px 224.72px"/><path id="elplyoye0sfl" d="M245.9 148.42c10.67 10 38 20 69.82 41.29 0 0-2 72-69.82 111.31Z" class="animable" style="fill:#263238;stroke:#263238;stroke-linecap:round;stroke-linejoin:round;transform-origin:280.81px 224.72px"/><path id="el7o13httu40d" d="M245.9 154.55c-12.9 8.94-35.19 17.45-64.69 37.19 0 0 1.85 66.7 64.69 103.16 62.85-36.46 64.7-103.16 64.7-103.16-29.5-19.74-51.72-28.25-64.7-37.19" class="animable" style="fill:#263238;stroke:#263238;stroke-linecap:round;stroke-linejoin:round;transform-origin:245.905px 224.725px"/><path id="elnoyy8rtpd1q" d="M310.6 191.74c-29.5-19.73-51.72-28.25-64.7-37.19V294.9c62.85-36.46 64.7-103.16 64.7-103.16" class="animable" style="fill:#2c9f45;stroke:#263238;stroke-linecap:round;stroke-linejoin:round;transform-origin:278.25px 224.725px"/><path id="elc1ysasbkf08" d="M126.94 227.05h237.28v15.36H126.94z" class="animable" style="fill:#263238;stroke:#263238;stroke-linecap:round;stroke-linejoin:round;transform-origin:245.58px 234.73px"/><path id="ele8tepuspx6r" d="M131.61 229.49a1.59 1.59 0 1 1-1.59-1.56 1.57 1.57 0 0 1 1.59 1.56" class="animable" style="fill:#fff;transform-origin:130.02px 229.52px"/><path id="elo7igfqt4c3q" d="M129.11 230.35a1.27 1.27 0 0 0 2.19-.86 1.22 1.22 0 0 0-.32-.81 18 18 0 0 0-1.87 1.67" class="animable" style="fill:#263238;transform-origin:130.205px 229.712px"/><path id="elpmo0dyns4tl" d="M137.85 229.49a1.6 1.6 0 1 1-1.6-1.56 1.58 1.58 0 0 1 1.6 1.56" class="animable" style="fill:#fff;transform-origin:136.25px 229.53px"/><path id="elrhhbx7sq5n" d="M135.34 230.35a1.27 1.27 0 0 0 2.19-.86 1.22 1.22 0 0 0-.32-.81 20 20 0 0 0-1.87 1.67" class="animable" style="fill:#263238;transform-origin:136.435px 229.712px"/><path id="el90ll48z3nnw" d="M144.08 229.49a1.6 1.6 0 0 1-3.19 0 1.6 1.6 0 0 1 3.19 0" class="animable" style="fill:#fff;transform-origin:142.485px 229.49px"/><path id="el7ybhgttatwe" d="M141.57 230.35a1.28 1.28 0 0 0 .92.39 1.26 1.26 0 0 0 1.27-1.25 1.18 1.18 0 0 0-.32-.81 20 20 0 0 0-1.87 1.67" class="animable" style="fill:#263238;transform-origin:142.665px 229.71px"/><path id="el7zsoj3yybus" d="M150.31 229.49a1.59 1.59 0 1 1-1.59-1.56 1.57 1.57 0 0 1 1.59 1.56" class="animable" style="fill:#fff;transform-origin:148.72px 229.52px"/><path id="elpzrgz4f6458" d="M147.8 230.35a1.28 1.28 0 0 0 2.2-.86 1.22 1.22 0 0 0-.32-.81 18.5 18.5 0 0 0-1.88 1.67" class="animable" style="fill:#263238;transform-origin:148.9px 229.71px"/><path id="elz8osko0gzj" d="M156.54 229.49a1.59 1.59 0 1 1-1.59-1.56 1.57 1.57 0 0 1 1.59 1.56" class="animable" style="fill:#fff;transform-origin:154.95px 229.52px"/><path id="eli0hggl04c28" d="M154 230.35a1.3 1.3 0 0 0 .92.39 1.26 1.26 0 0 0 1.28-1.25 1.22 1.22 0 0 0-.32-.81 20 20 0 0 0-1.88 1.67" class="animable" style="fill:#263238;transform-origin:155.1px 229.71px"/><path id="el5bjinnmm8zb" d="M162.77 229.49a1.59 1.59 0 1 1-1.59-1.56 1.57 1.57 0 0 1 1.59 1.56" class="animable" style="fill:#fff;transform-origin:161.18px 229.52px"/><path id="el0f5jvr2avlx" d="M160.27 230.35a1.27 1.27 0 0 0 2.19-.86 1.22 1.22 0 0 0-.32-.81 18 18 0 0 0-1.87 1.67" class="animable" style="fill:#263238;transform-origin:161.365px 229.712px"/><path id="elomf3t77io48" d="M169 229.49a1.6 1.6 0 1 1-1.6-1.56 1.58 1.58 0 0 1 1.6 1.56" class="animable" style="fill:#fff;transform-origin:167.401px 229.53px"/><path id="elu4lrozqoe9m" d="M166.5 230.35a1.27 1.27 0 0 0 2.19-.86 1.22 1.22 0 0 0-.32-.81 20 20 0 0 0-1.87 1.67" class="animable" style="fill:#263238;transform-origin:167.595px 229.712px"/><path id="ellg74pxctrq" d="M175.24 229.49a1.59 1.59 0 1 1-1.59-1.56 1.57 1.57 0 0 1 1.59 1.56" class="animable" style="fill:#fff;transform-origin:173.65px 229.52px"/><path id="eltba69dq79vn" d="M172.73 230.35a1.28 1.28 0 0 0 .92.39 1.26 1.26 0 0 0 1.27-1.25 1.18 1.18 0 0 0-.32-.81 20 20 0 0 0-1.87 1.67" class="animable" style="fill:#263238;transform-origin:173.825px 229.71px"/><path id="eltc5v54j510i" d="M181.47 229.49a1.59 1.59 0 1 1-1.59-1.56 1.57 1.57 0 0 1 1.59 1.56" class="animable" style="fill:#fff;transform-origin:179.88px 229.52px"/><path id="elnqiae1fs6cn" d="M179 230.35a1.28 1.28 0 0 0 2.2-.86 1.22 1.22 0 0 0-.32-.81 20 20 0 0 0-1.88 1.67" class="animable" style="fill:#263238;transform-origin:180.1px 229.71px"/><path id="elthxmzpulnpd" d="M187.7 229.49a1.59 1.59 0 1 1-1.59-1.56 1.57 1.57 0 0 1 1.59 1.56" class="animable" style="fill:#fff;transform-origin:186.11px 229.52px"/><path id="elycu0fb7ci0g" d="M185.19 230.35a1.3 1.3 0 0 0 .92.39 1.26 1.26 0 0 0 1.28-1.25 1.22 1.22 0 0 0-.32-.81 20 20 0 0 0-1.88 1.67" class="animable" style="fill:#263238;transform-origin:186.29px 229.71px"/><path id="elsfjfxamxszn" d="M193.93 229.49a1.59 1.59 0 1 1-1.59-1.56 1.57 1.57 0 0 1 1.59 1.56" class="animable" style="fill:#fff;transform-origin:192.34px 229.52px"/><path id="elxjkn3ve8b5p" d="M191.43 230.35a1.27 1.27 0 0 0 2.19-.86 1.22 1.22 0 0 0-.32-.81 20 20 0 0 0-1.87 1.67" class="animable" style="fill:#263238;transform-origin:192.525px 229.712px"/><path id="elbw07ikkdnwb" d="M200.17 229.49a1.6 1.6 0 1 1-1.59-1.56 1.57 1.57 0 0 1 1.59 1.56" class="animable" style="fill:#fff;transform-origin:198.57px 229.53px"/><path id="eltwib8zokil" d="M197.66 230.35a1.27 1.27 0 0 0 2.19-.86 1.18 1.18 0 0 0-.32-.81 20 20 0 0 0-1.87 1.67" class="animable" style="fill:#263238;transform-origin:198.755px 229.712px"/><path id="els2rqxezg2jb" d="M206.4 229.49a1.59 1.59 0 1 1-1.59-1.56 1.57 1.57 0 0 1 1.59 1.56" class="animable" style="fill:#fff;transform-origin:204.81px 229.52px"/><path id="elpfsekdixjg" d="M203.89 230.35a1.28 1.28 0 0 0 2.2-.86 1.22 1.22 0 0 0-.32-.81 18.5 18.5 0 0 0-1.88 1.67" class="animable" style="fill:#263238;transform-origin:204.99px 229.71px"/><path id="elbcty88vfheb" d="M212.63 229.49a1.59 1.59 0 1 1-1.59-1.56 1.57 1.57 0 0 1 1.59 1.56" class="animable" style="fill:#fff;transform-origin:211.04px 229.52px"/><path id="elj5xerspbnnt" d="M210.12 230.35a1.3 1.3 0 0 0 .92.39 1.26 1.26 0 0 0 1.28-1.25 1.22 1.22 0 0 0-.32-.81 20 20 0 0 0-1.88 1.67" class="animable" style="fill:#263238;transform-origin:211.22px 229.71px"/><path id="el0zw6ubiz6efi" d="M131.61 239.4a1.59 1.59 0 1 1-1.59-1.55 1.57 1.57 0 0 1 1.59 1.55" class="animable" style="fill:#fff;transform-origin:130.021px 239.44px"/><path id="elwx8wl74oc7r" d="M129.11 240.27a1.25 1.25 0 0 0 .91.39 1.27 1.27 0 0 0 1.28-1.26 1.22 1.22 0 0 0-.32-.8 18 18 0 0 0-1.87 1.67" class="animable" style="fill:#263238;transform-origin:130.205px 239.63px"/><path id="el91wqxd8vwu8" d="M137.85 239.4a1.6 1.6 0 1 1-1.6-1.55 1.58 1.58 0 0 1 1.6 1.55" class="animable" style="fill:#fff;transform-origin:136.251px 239.45px"/><path id="elcvepd6rxlq8" d="M135.34 240.27a1.25 1.25 0 0 0 .91.39 1.27 1.27 0 0 0 1.28-1.26 1.22 1.22 0 0 0-.32-.8 20 20 0 0 0-1.87 1.67" class="animable" style="fill:#263238;transform-origin:136.435px 239.63px"/><path id="el9tuhp9d5e6" d="M144.08 239.4a1.6 1.6 0 1 1-1.59-1.55 1.57 1.57 0 0 1 1.59 1.55" class="animable" style="fill:#fff;transform-origin:142.481px 239.45px"/><path id="elnq2pywc1bvs" d="M141.57 240.27a1.27 1.27 0 0 0 2.19-.87 1.17 1.17 0 0 0-.32-.8 20 20 0 0 0-1.87 1.67" class="animable" style="fill:#263238;transform-origin:142.665px 239.632px"/><path id="eln6ljm3e85xs" d="M150.31 239.4a1.59 1.59 0 1 1-1.59-1.55 1.57 1.57 0 0 1 1.59 1.55" class="animable" style="fill:#fff;transform-origin:148.721px 239.44px"/><path id="elve8h9g15va9" d="M147.8 240.27a1.28 1.28 0 0 0 2.2-.87 1.22 1.22 0 0 0-.32-.8 18.5 18.5 0 0 0-1.88 1.67" class="animable" style="fill:#263238;transform-origin:148.9px 239.63px"/><path id="el2hlf8vn0zfq" d="M156.54 239.4a1.59 1.59 0 1 1-1.59-1.55 1.57 1.57 0 0 1 1.59 1.55" class="animable" style="fill:#fff;transform-origin:154.95px 239.44px"/><path id="el6vmircsgkgk" d="M154 240.27a1.3 1.3 0 0 0 .92.39 1.27 1.27 0 0 0 1.28-1.26 1.22 1.22 0 0 0-.32-.8 20 20 0 0 0-1.88 1.67" class="animable" style="fill:#263238;transform-origin:155.1px 239.63px"/><path id="elbdmn1zawbgc" d="M162.77 239.4a1.59 1.59 0 1 1-1.59-1.55 1.57 1.57 0 0 1 1.59 1.55" class="animable" style="fill:#fff;transform-origin:161.181px 239.44px"/><path id="elu4k1o46jtfn" d="M160.27 240.27a1.25 1.25 0 0 0 .91.39 1.27 1.27 0 0 0 1.28-1.26 1.22 1.22 0 0 0-.32-.8 18 18 0 0 0-1.87 1.67" class="animable" style="fill:#263238;transform-origin:161.365px 239.63px"/><path id="el31plvsv46pr" d="M169 239.4a1.6 1.6 0 1 1-1.6-1.55 1.58 1.58 0 0 1 1.6 1.55" class="animable" style="fill:#fff;transform-origin:167.401px 239.45px"/><path id="elr5xp2ud0wjf" d="M166.5 240.27a1.25 1.25 0 0 0 .91.39 1.27 1.27 0 0 0 1.28-1.26 1.22 1.22 0 0 0-.32-.8 20 20 0 0 0-1.87 1.67" class="animable" style="fill:#263238;transform-origin:167.595px 239.63px"/><path id="elixl2cu337z" d="M175.24 239.4a1.59 1.59 0 1 1-1.59-1.55 1.57 1.57 0 0 1 1.59 1.55" class="animable" style="fill:#fff;transform-origin:173.651px 239.44px"/><path id="ele0fkyzt0lkk" d="M172.73 240.27a1.27 1.27 0 0 0 2.19-.87 1.17 1.17 0 0 0-.32-.8 20 20 0 0 0-1.87 1.67" class="animable" style="fill:#263238;transform-origin:173.825px 239.632px"/><path id="ellrh3izhyilo" d="M181.47 239.4a1.59 1.59 0 1 1-1.59-1.55 1.57 1.57 0 0 1 1.59 1.55" class="animable" style="fill:#fff;transform-origin:179.881px 239.44px"/><path id="elipsp07816ob" d="M179 240.27a1.28 1.28 0 0 0 2.2-.87 1.22 1.22 0 0 0-.32-.8 20 20 0 0 0-1.88 1.67" class="animable" style="fill:#263238;transform-origin:180.1px 239.63px"/><path id="elpzxjepf5p2j" d="M187.7 239.4a1.59 1.59 0 1 1-1.59-1.55 1.57 1.57 0 0 1 1.59 1.55" class="animable" style="fill:#fff;transform-origin:186.111px 239.44px"/><path id="elo10b4iwauo8" d="M185.19 240.27a1.3 1.3 0 0 0 .92.39 1.27 1.27 0 0 0 1.28-1.26 1.22 1.22 0 0 0-.32-.8 20 20 0 0 0-1.88 1.67" class="animable" style="fill:#263238;transform-origin:186.29px 239.63px"/><path id="elwkgw81rtap" d="M193.93 239.4a1.59 1.59 0 1 1-1.59-1.55 1.57 1.57 0 0 1 1.59 1.55" class="animable" style="fill:#fff;transform-origin:192.34px 239.44px"/><path id="el7qb842e1es" d="M191.43 240.27a1.25 1.25 0 0 0 .91.39 1.27 1.27 0 0 0 1.28-1.26 1.22 1.22 0 0 0-.32-.8 20 20 0 0 0-1.87 1.67" class="animable" style="fill:#263238;transform-origin:192.525px 239.63px"/><path id="elhg4qoyq7i6r" d="M200.17 239.4a1.6 1.6 0 1 1-1.59-1.55 1.57 1.57 0 0 1 1.59 1.55" class="animable" style="fill:#fff;transform-origin:198.571px 239.45px"/><path id="el5xj8lrzkkhp" d="M197.66 240.27a1.27 1.27 0 0 0 2.19-.87 1.17 1.17 0 0 0-.32-.8 20 20 0 0 0-1.87 1.67" class="animable" style="fill:#263238;transform-origin:198.755px 239.632px"/><path id="el8hroaib07ln" d="M206.4 239.4a1.59 1.59 0 1 1-1.59-1.55 1.57 1.57 0 0 1 1.59 1.55" class="animable" style="fill:#fff;transform-origin:204.811px 239.44px"/><path id="elpr1qf43gzup" d="M203.89 240.27a1.28 1.28 0 0 0 2.2-.87 1.22 1.22 0 0 0-.32-.8 18.5 18.5 0 0 0-1.88 1.67" class="animable" style="fill:#263238;transform-origin:204.99px 239.63px"/><path id="elnedprmmttbk" d="M212.63 239.4a1.59 1.59 0 1 1-1.59-1.55 1.57 1.57 0 0 1 1.59 1.55" class="animable" style="fill:#fff;transform-origin:211.04px 239.44px"/><path id="elvelz0873z4h" d="M210.12 240.27a1.3 1.3 0 0 0 .92.39 1.27 1.27 0 0 0 1.28-1.26 1.22 1.22 0 0 0-.32-.8 20 20 0 0 0-1.88 1.67" class="animable" style="fill:#263238;transform-origin:211.22px 239.63px"/><path id="elel54u8b3of7" d="M281.68 229.49a1.59 1.59 0 1 1-1.59-1.56 1.57 1.57 0 0 1 1.59 1.56" class="animable" style="fill:#fff;transform-origin:280.09px 229.52px"/><path id="eltc8f0ax09c" d="M279.18 230.35a1.27 1.27 0 0 0 2.19-.86 1.22 1.22 0 0 0-.32-.81 20 20 0 0 0-1.87 1.67" class="animable" style="fill:#263238;transform-origin:280.275px 229.712px"/><path id="elwuf31rwnszh" d="M287.92 229.49a1.6 1.6 0 1 1-1.59-1.56 1.57 1.57 0 0 1 1.59 1.56" class="animable" style="fill:#fff;transform-origin:286.321px 229.53px"/><path id="elsvker735iub" d="M285.41 230.35a1.27 1.27 0 0 0 2.19-.86 1.18 1.18 0 0 0-.32-.81 20 20 0 0 0-1.87 1.67" class="animable" style="fill:#263238;transform-origin:286.505px 229.712px"/><path id="elvzmsqbhebxh" d="M294.15 229.49a1.59 1.59 0 1 1-1.59-1.56 1.57 1.57 0 0 1 1.59 1.56" class="animable" style="fill:#fff;transform-origin:292.56px 229.52px"/><path id="elcipzixqqej6" d="M291.64 230.35a1.28 1.28 0 0 0 2.2-.86 1.22 1.22 0 0 0-.32-.81 18.5 18.5 0 0 0-1.88 1.67" class="animable" style="fill:#263238;transform-origin:292.74px 229.71px"/><path id="el7g83s7mff48" d="M300.38 229.49a1.59 1.59 0 1 1-1.59-1.56 1.57 1.57 0 0 1 1.59 1.56" class="animable" style="fill:#fff;transform-origin:298.79px 229.52px"/><path id="el79pz8mhye8r" d="M297.87 230.35a1.3 1.3 0 0 0 .92.39 1.26 1.26 0 0 0 1.28-1.25 1.22 1.22 0 0 0-.32-.81 20 20 0 0 0-1.88 1.67" class="animable" style="fill:#263238;transform-origin:298.97px 229.71px"/><path id="el4rn8xgxi4y5" d="M306.61 229.49a1.59 1.59 0 1 1-1.59-1.56 1.57 1.57 0 0 1 1.59 1.56" class="animable" style="fill:#fff;transform-origin:305.02px 229.52px"/><path id="el50y1byg2o5f" d="M304.11 230.35a1.27 1.27 0 0 0 2.19-.86 1.22 1.22 0 0 0-.32-.81 18 18 0 0 0-1.87 1.67" class="animable" style="fill:#263238;transform-origin:305.205px 229.712px"/><path id="elo3kzi3h58ri" d="M312.85 229.49a1.6 1.6 0 1 1-1.6-1.56 1.58 1.58 0 0 1 1.6 1.56" class="animable" style="fill:#fff;transform-origin:311.25px 229.53px"/><path id="el571oy2ifxwb" d="M310.34 230.35a1.27 1.27 0 0 0 2.19-.86 1.22 1.22 0 0 0-.32-.81 20 20 0 0 0-1.87 1.67" class="animable" style="fill:#263238;transform-origin:311.435px 229.712px"/><path id="eluaandw24g8g" d="M319.08 229.49a1.6 1.6 0 1 1-1.59-1.56 1.57 1.57 0 0 1 1.59 1.56" class="animable" style="fill:#fff;transform-origin:317.48px 229.53px"/><path id="eln9ywjudhybp" d="M316.57 230.35a1.27 1.27 0 0 0 2.19-.86 1.18 1.18 0 0 0-.32-.81 20 20 0 0 0-1.87 1.67" class="animable" style="fill:#263238;transform-origin:317.665px 229.712px"/><path id="elu79dlvo0gl" d="M325.31 229.49a1.59 1.59 0 1 1-1.59-1.56 1.57 1.57 0 0 1 1.59 1.56" class="animable" style="fill:#fff;transform-origin:323.72px 229.52px"/><path id="elqteuxk1h9c" d="M322.8 230.35a1.28 1.28 0 0 0 2.2-.86 1.22 1.22 0 0 0-.32-.81 18.5 18.5 0 0 0-1.88 1.67" class="animable" style="fill:#263238;transform-origin:323.9px 229.71px"/><path id="elan5xwsz70k9" d="M331.54 229.49a1.59 1.59 0 1 1-1.59-1.56 1.57 1.57 0 0 1 1.59 1.56" class="animable" style="fill:#fff;transform-origin:329.95px 229.52px"/><path id="ela472hurpnhr" d="M329 230.35a1.3 1.3 0 0 0 .92.39 1.26 1.26 0 0 0 1.28-1.25 1.22 1.22 0 0 0-.32-.81 20 20 0 0 0-1.88 1.67" class="animable" style="fill:#263238;transform-origin:330.1px 229.71px"/><path id="el0hyxohm14dh" d="M337.77 229.49a1.59 1.59 0 1 1-1.59-1.56 1.57 1.57 0 0 1 1.59 1.56" class="animable" style="fill:#fff;transform-origin:336.18px 229.52px"/><path id="el9oiu8w28f1f" d="M335.27 230.35a1.27 1.27 0 0 0 2.19-.86 1.22 1.22 0 0 0-.32-.81 18 18 0 0 0-1.87 1.67" class="animable" style="fill:#263238;transform-origin:336.365px 229.712px"/><path id="elis34t2z61v" d="M344 229.49a1.6 1.6 0 1 1-1.6-1.56 1.58 1.58 0 0 1 1.6 1.56" class="animable" style="fill:#fff;transform-origin:342.4px 229.53px"/><path id="eluyue80etm9" d="M341.5 230.35a1.27 1.27 0 0 0 2.19-.86 1.22 1.22 0 0 0-.32-.81 20 20 0 0 0-1.87 1.67" class="animable" style="fill:#263238;transform-origin:342.595px 229.712px"/><path id="elneoq6g7jn4" d="M350.24 229.49a1.59 1.59 0 1 1-1.59-1.56 1.57 1.57 0 0 1 1.59 1.56" class="animable" style="fill:#fff;transform-origin:348.65px 229.52px"/><path id="el1t6oz5yrlvu" d="M347.73 230.35a1.28 1.28 0 0 0 .92.39 1.26 1.26 0 0 0 1.27-1.25 1.18 1.18 0 0 0-.32-.81 20 20 0 0 0-1.87 1.67" class="animable" style="fill:#263238;transform-origin:348.825px 229.71px"/><path id="elqte05hbxb5" d="M356.47 229.49a1.59 1.59 0 1 1-1.59-1.56 1.57 1.57 0 0 1 1.59 1.56" class="animable" style="fill:#fff;transform-origin:354.88px 229.52px"/><path id="el3c1zm8nvase" d="M354 230.35a1.28 1.28 0 0 0 2.2-.86 1.22 1.22 0 0 0-.32-.81 20 20 0 0 0-1.88 1.67" class="animable" style="fill:#263238;transform-origin:355.1px 229.71px"/><path id="eljzuogix74f" d="M362.7 229.49a1.59 1.59 0 1 1-1.59-1.56 1.57 1.57 0 0 1 1.59 1.56" class="animable" style="fill:#fff;transform-origin:361.11px 229.52px"/><path id="elwd45zd9ilwq" d="M360.19 230.35a1.3 1.3 0 0 0 .92.39 1.26 1.26 0 0 0 1.28-1.25 1.22 1.22 0 0 0-.32-.81 20 20 0 0 0-1.88 1.67" class="animable" style="fill:#263238;transform-origin:361.29px 229.71px"/><path id="elep81s506s25" d="M281.68 239.4a1.59 1.59 0 1 1-1.59-1.55 1.57 1.57 0 0 1 1.59 1.55" class="animable" style="fill:#fff;transform-origin:280.09px 239.44px"/><path id="elgwf0qeebtsh" d="M279.18 240.27a1.25 1.25 0 0 0 .91.39 1.27 1.27 0 0 0 1.28-1.26 1.22 1.22 0 0 0-.32-.8 20 20 0 0 0-1.87 1.67" class="animable" style="fill:#263238;transform-origin:280.275px 239.63px"/><path id="eljl3c6bw33tp" d="M287.92 239.4a1.6 1.6 0 1 1-1.59-1.55 1.57 1.57 0 0 1 1.59 1.55" class="animable" style="fill:#fff;transform-origin:286.321px 239.45px"/><path id="elbelviutnofm" d="M285.41 240.27a1.27 1.27 0 0 0 2.19-.87 1.17 1.17 0 0 0-.32-.8 20 20 0 0 0-1.87 1.67" class="animable" style="fill:#263238;transform-origin:286.505px 239.632px"/><path id="el0yjk9jygm2ll" d="M294.15 239.4a1.59 1.59 0 1 1-1.59-1.55 1.57 1.57 0 0 1 1.59 1.55" class="animable" style="fill:#fff;transform-origin:292.561px 239.44px"/><path id="el4v1wrs5o225" d="M291.64 240.27a1.28 1.28 0 0 0 2.2-.87 1.22 1.22 0 0 0-.32-.8 18.5 18.5 0 0 0-1.88 1.67" class="animable" style="fill:#263238;transform-origin:292.74px 239.63px"/><path id="el3tv5dd0ttuo" d="M300.38 239.4a1.59 1.59 0 1 1-1.59-1.55 1.57 1.57 0 0 1 1.59 1.55" class="animable" style="fill:#fff;transform-origin:298.791px 239.44px"/><path id="el6ogcp2tclt6" d="M297.87 240.27a1.3 1.3 0 0 0 .92.39 1.27 1.27 0 0 0 1.28-1.26 1.22 1.22 0 0 0-.32-.8 20 20 0 0 0-1.88 1.67" class="animable" style="fill:#263238;transform-origin:298.97px 239.63px"/><path id="elmoktby7rm38" d="M306.61 239.4a1.59 1.59 0 1 1-1.59-1.55 1.57 1.57 0 0 1 1.59 1.55" class="animable" style="fill:#fff;transform-origin:305.02px 239.44px"/><path id="elm65ybdx3lq" d="M304.11 240.27a1.25 1.25 0 0 0 .91.39 1.27 1.27 0 0 0 1.28-1.26 1.22 1.22 0 0 0-.32-.8 18 18 0 0 0-1.87 1.67" class="animable" style="fill:#263238;transform-origin:305.205px 239.63px"/><path id="elwpy3eka3m" d="M312.85 239.4a1.6 1.6 0 1 1-1.6-1.55 1.58 1.58 0 0 1 1.6 1.55" class="animable" style="fill:#fff;transform-origin:311.251px 239.45px"/><path id="elnzubh6onmw" d="M310.34 240.27a1.25 1.25 0 0 0 .91.39 1.27 1.27 0 0 0 1.28-1.26 1.22 1.22 0 0 0-.32-.8 20 20 0 0 0-1.87 1.67" class="animable" style="fill:#263238;transform-origin:311.435px 239.63px"/><path id="elh6x3japje3" d="M319.08 239.4a1.6 1.6 0 1 1-1.59-1.55 1.57 1.57 0 0 1 1.59 1.55" class="animable" style="fill:#fff;transform-origin:317.481px 239.45px"/><path id="elpl7c112zwx8" d="M316.57 240.27a1.27 1.27 0 0 0 2.19-.87 1.17 1.17 0 0 0-.32-.8 20 20 0 0 0-1.87 1.67" class="animable" style="fill:#263238;transform-origin:317.665px 239.632px"/><path id="elj5wo4378ece" d="M325.31 239.4a1.59 1.59 0 1 1-1.59-1.55 1.57 1.57 0 0 1 1.59 1.55" class="animable" style="fill:#fff;transform-origin:323.72px 239.44px"/><path id="el0hhymljo4v0j" d="M322.8 240.27a1.28 1.28 0 0 0 2.2-.87 1.22 1.22 0 0 0-.32-.8 18.5 18.5 0 0 0-1.88 1.67" class="animable" style="fill:#263238;transform-origin:323.9px 239.63px"/><path id="elyta08za487i" d="M331.54 239.4a1.59 1.59 0 1 1-1.59-1.55 1.57 1.57 0 0 1 1.59 1.55" class="animable" style="fill:#fff;transform-origin:329.951px 239.44px"/><path id="eli4ipwbfi4j" d="M329 240.27a1.3 1.3 0 0 0 .92.39 1.27 1.27 0 0 0 1.28-1.26 1.22 1.22 0 0 0-.32-.8 20 20 0 0 0-1.88 1.67" class="animable" style="fill:#263238;transform-origin:330.1px 239.63px"/><path id="elzdmg79qcpjm" d="M337.77 239.4a1.59 1.59 0 1 1-1.59-1.55 1.57 1.57 0 0 1 1.59 1.55" class="animable" style="fill:#fff;transform-origin:336.181px 239.44px"/><path id="eldj9n2ogiudn" d="M335.27 240.27a1.25 1.25 0 0 0 .91.39 1.27 1.27 0 0 0 1.28-1.26 1.22 1.22 0 0 0-.32-.8 18 18 0 0 0-1.87 1.67" class="animable" style="fill:#263238;transform-origin:336.365px 239.63px"/><path id="elx1v9cou0t5" d="M344 239.4a1.6 1.6 0 1 1-1.6-1.55 1.58 1.58 0 0 1 1.6 1.55" class="animable" style="fill:#fff;transform-origin:342.401px 239.45px"/><path id="elf6bwyo2p0uc" d="M341.5 240.27a1.25 1.25 0 0 0 .91.39 1.27 1.27 0 0 0 1.28-1.26 1.22 1.22 0 0 0-.32-.8 20 20 0 0 0-1.87 1.67" class="animable" style="fill:#263238;transform-origin:342.595px 239.63px"/><path id="elz1kn681z3wi" d="M350.24 239.4a1.59 1.59 0 1 1-1.59-1.55 1.57 1.57 0 0 1 1.59 1.55" class="animable" style="fill:#fff;transform-origin:348.65px 239.44px"/><path id="elujyd3dnyi7h" d="M347.73 240.27a1.27 1.27 0 0 0 2.19-.87 1.17 1.17 0 0 0-.32-.8 20 20 0 0 0-1.87 1.67" class="animable" style="fill:#263238;transform-origin:348.825px 239.632px"/><path id="elykxgbcntt6" d="M356.47 239.4a1.59 1.59 0 1 1-1.59-1.55 1.57 1.57 0 0 1 1.59 1.55" class="animable" style="fill:#fff;transform-origin:354.88px 239.44px"/><path id="ellgtostdgq3" d="M354 240.27a1.28 1.28 0 0 0 2.2-.87 1.22 1.22 0 0 0-.32-.8 20 20 0 0 0-1.88 1.67" class="animable" style="fill:#263238;transform-origin:355.1px 239.63px"/><path id="elxyos5sff1ca" d="M362.7 239.4a1.59 1.59 0 1 1-1.59-1.55 1.57 1.57 0 0 1 1.59 1.55" class="animable" style="fill:#fff;transform-origin:361.111px 239.44px"/><path id="elbwqurapuqmw" d="M360.19 240.27a1.3 1.3 0 0 0 .92.39 1.27 1.27 0 0 0 1.28-1.26 1.22 1.22 0 0 0-.32-.8 20 20 0 0 0-1.88 1.67" class="animable" style="fill:#263238;transform-origin:361.29px 239.63px"/><path id="eljsmdhpi2pv" d="M270.41 221.8H222.2a4 4 0 0 1-4-3.92v-22.24c0-15.17 12.61-27.52 28.11-27.52s28.12 12.35 28.12 27.52v22.24a4 4 0 0 1-4.02 3.92M226.2 214h40.2v-18.36a20.1 20.1 0 0 0-40.2 0Z" class="animable" style="fill:#fff;stroke:#263238;stroke-linecap:round;stroke-linejoin:round;transform-origin:246.315px 194.96px"/><path id="eldr5740rllva" d="M215.21 211.08h61.38v50.78h-61.38z" class="animable" style="fill:#2c9f45;stroke:#263238;stroke-linecap:round;stroke-linejoin:round;transform-origin:245.9px 236.47px"/><path id="el1np71mpt2h1j" d="M252.29 232.17a6.69 6.69 0 0 0-13.37 0 6.53 6.53 0 0 0 3.51 5.76l-1.12 11.53h8.59l-1.12-11.53a6.53 6.53 0 0 0 3.51-5.76" class="animable" style="fill:#263238;stroke:#263238;stroke-linecap:round;stroke-linejoin:round;transform-origin:245.605px 237.599px"/></g><g id="freepik--character-2--inject-63" class="animable" style="animation:1s 1 forwards cubic-bezier(.36,-.01,.5,1.38) slideRight,6s Infinite linear wind;animation-delay:0s,1s;transform-origin:387.48px 320.694px"><ellipse id="elqf78k7rqtmn" cx="384.5" cy="426.5" class="animable" rx="47.5" ry="10.5" style="fill:#2c9f45;transform-origin:384.5px 426.5px"/><g id="elj6ds7eemmi"><ellipse id="elu03bnmhj7j" cx="384.5" cy="426.5" class="animable" rx="47.5" ry="10.5" style="fill:#fff;opacity:.5;transform-origin:384.5px 426.5px"/></g><path id="elab4mqqbyude" d="M359.66 415.76s-11.52 6.48-11.52 9.6 7.11 1.2 11.76-1 8.34-3.84 8.34-8.16-8.58-.44-8.58-.44Z" class="animable" style="fill:#2c9f45;stroke:#263238;stroke-miterlimit:10;transform-origin:358.19px 420.577px"/><path id="ellsf5a5aedys" d="M414.81 415.76s11.52 6.48 11.52 9.6-7.11 1.2-11.76-1-8.34-3.84-8.34-8.16 8.58-.44 8.58-.44Z" class="animable" style="fill:#2c9f45;stroke:#263238;stroke-miterlimit:10;transform-origin:416.28px 420.577px"/><path id="el2pbg7b1yrnb" d="M364.32 309.69 359.41 417a6.52 6.52 0 0 0 4.91 1.44 6.4 6.4 0 0 0 3.92-2.16l16.67-87.59h3.43L406 417.92a8.1 8.1 0 0 0 3.43 1c1.71 0 4.41-2.16 4.41-2.16l-5.64-107Z" class="animable" style="fill:#263238;stroke:#263238;stroke-miterlimit:10;transform-origin:386.625px 364.305px"/><path id="el2edxldk8hwm" d="m381.48 244.66-22.31 9.11 5.88 51.84h42.65l7.85-53.76-24.27-7.67z" class="animable" style="fill:#2c9f45;stroke:#263238;stroke-miterlimit:10;transform-origin:387.36px 274.895px"/><path id="el3ollue6x808" d="m383.93 252.09 2.69 4.32-4.41 37.2 5.39 7.92 4.66-8.64-3.68-36.96 3.19-5.03-4.66-2.04z" class="animable" style="fill:#263238;stroke:#263238;stroke-miterlimit:10;transform-origin:387.235px 275.195px"/><path id="el1gf7ffal3gu" d="m387.11 248.86-3.58 6.13-6.38-8.5 3.57-4.25z" class="animable" style="fill:#2c9f45;stroke:#263238;stroke-miterlimit:10;transform-origin:382.13px 248.615px"/><path id="eldrj9fck2qpv" d="m387.11 248.86 4.34 6.75 5.23-9.62-3.06-3.88z" class="animable" style="fill:#2c9f45;stroke:#263238;stroke-miterlimit:10;transform-origin:391.895px 248.86px"/><path id="eltmqrfm1nys" d="M378.45 263.37h-15.03v5.12l7.52 2.88 7.51-3.2z" class="animable" style="fill:#2c9f45;stroke:#263238;stroke-miterlimit:10;transform-origin:370.935px 267.37px"/><path id="elj3bgwwsh60p" d="M408.52 263.37h-15.03v5.12l7.51 2.88 7.52-3.2z" class="animable" style="fill:#2c9f45;stroke:#263238;stroke-miterlimit:10;transform-origin:401.005px 267.37px"/><path id="eluoqbxg9yz8q" d="M364.32 304.65h43.88v5.04h-43.88z" class="animable" style="fill:#263238;stroke:#263238;stroke-miterlimit:10;transform-origin:386.26px 307.17px"/><path id="eltc9qw37puf" d="m363.58 308.73-7.6 3.12a24.5 24.5 0 0 0 .49 6.48c.74 2.88 1.72 9.12 2.45 10.32s4.42 3.6 4.91 2.88 2.94-21.84 2.94-21.84Z" class="animable" style="fill:#263238;stroke:#263238;stroke-miterlimit:10;transform-origin:361.355px 320.196px"/><path id="eltcvp1jd1k7f" d="M380.72 233.49v8.75l6.39 6.62 6.51-6.75v-8.75z" class="animable" style="fill:#fff;stroke:#263238;stroke-miterlimit:10;transform-origin:387.17px 241.11px"/><path id="elny4p4t4rgdh" d="M376.26 225.37s-1.15-2.63-1.92-1 .13 4.12 1.28 5.12a4.1 4.1 0 0 0 2.93.75l-.64-3.75Z" class="animable" style="fill:#fff;stroke:#263238;stroke-miterlimit:10;transform-origin:376.302px 227.055px"/><path id="elzyd5bbgu43" d="M397.06 225.37s1.15-2.63 1.92-1-.13 4.12-1.28 5.12a4.13 4.13 0 0 1-2.94.75l.64-3.75Z" class="animable" style="fill:#fff;stroke:#263238;stroke-miterlimit:10;transform-origin:397.013px 227.055px"/><path id="eluo0n34ajtbo" d="M378.43 208s-5.37 2.25-5.37 6 .77 8 2.05 9.63 2.29 2.75 2.29 2.75l.26-5.38 3.7-6.37s6.13 3.87 9.19 3.87a31.6 31.6 0 0 0 5.11-.37l1.15 6.37 1.66-4.62v-4.25s3.06-2.88 2.42-4.75-11-7.75-17.36-6.25-5.1 3.37-5.1 3.37Z" class="animable" style="fill:#263238;stroke:#263238;stroke-miterlimit:10;transform-origin:387.019px 215.384px"/><path id="elik3yq46gos" d="M375.87 220.62s1.53 9.37 2.81 11.87a34.7 34.7 0 0 0 6.13 7.5c.89.62 4.21.12 5.49.12s5-7.5 5.61-8.87 1-13.12 1-13.12l-1.12-2.12s-5.49 1.38-9.83-.37a15 15 0 0 1-6.13-4.13s-.38 4.25-1.92 6.75-2.04 2.37-2.04 2.37Z" class="animable" style="fill:#fff;stroke:#263238;stroke-miterlimit:10;transform-origin:386.39px 225.9px"/><path id="el2k39gy47rzh" d="M385.7 221.62a11 11 0 0 0-5-1.25 9.4 9.4 0 0 0-4.34.87s0 4.25 1.41 5.88 5.49 1.12 6.64-.25 1.29-5.25 1.29-5.25Z" class="animable" style="fill:#263238;stroke:#263238;stroke-miterlimit:10;transform-origin:381.03px 224.25px"/><path id="elw34krvf4he" d="M387.49 221.62a11 11 0 0 1 5-1.25 9.4 9.4 0 0 1 4.34.87s0 4.25-1.41 5.88-5.49 1.12-6.63-.25-1.3-5.25-1.3-5.25Z" class="animable" style="fill:#263238;stroke:#263238;stroke-miterlimit:10;transform-origin:392.16px 224.25px"/><path id="elhgboqx5grwl" d="M385.7 221.62h1.79" class="animable" style="fill:#fff;stroke:#263238;stroke-miterlimit:10;transform-origin:386.595px 221.62px"/><path id="elcsiribtk8ir" d="m359.41 300.81 8.09-.24 6.13 5.52a3 3 0 0 1-.73 1.92c-.74.72-2.7.24-2.7.24s-1.47 3.6-4.17 3.6-10-5-10-5Z" class="animable" style="fill:#fff;stroke:#263238;stroke-miterlimit:10;transform-origin:364.83px 306.21px"/><path id="elywltshgpso" d="m359.17 253.77-27.21 35.76 24.02 17.28 3.43-6-7.35-14.16 10.05-9.12z" class="animable" style="fill:#2c9f45;stroke:#263238;stroke-miterlimit:10;transform-origin:347.035px 280.29px"/><path id="elu9opbfetu5n" d="m357.45 296.73-4.16 7.44" class="animable" style="fill:none;stroke:#263238;stroke-linecap:round;stroke-linejoin:round;transform-origin:355.37px 300.45px"/><path id="el1z0gfdhaupe" d="m352.06 286.65-3.19-8.16" class="animable" style="fill:none;stroke:#263238;stroke-linecap:round;stroke-linejoin:round;transform-origin:350.465px 282.57px"/><path id="elwbf6gchpvwf" d="m415.55 300.81-8.09-.24-6.13 5.52a3 3 0 0 0 .74 1.92c.73.72 2.69.24 2.69.24s1.47 3.6 4.17 3.6 10.05-5 10.05-5Z" class="animable" style="fill:#fff;stroke:#263238;stroke-miterlimit:10;transform-origin:410.155px 306.21px"/><path id="el23g5nxhafta" d="M415.55 251.85 443 289.53l-24.02 17.28-3.43-6 7.35-14.16-11.52-9.36z" class="animable" style="fill:#2c9f45;stroke:#263238;stroke-miterlimit:10;transform-origin:427.19px 279.33px"/><path id="elupmbjyw46u" d="m417.51 296.73 4.16 7.44" class="animable" style="fill:none;stroke:#263238;stroke-linecap:round;stroke-linejoin:round;transform-origin:419.59px 300.45px"/><path id="elvfjjf056av9" d="m422.9 286.65 3.19-8.16" class="animable" style="fill:none;stroke:#263238;stroke-linecap:round;stroke-linejoin:round;transform-origin:424.495px 282.57px"/></g><g id="freepik--character-1--inject-63" class="animable" style="animation:1s 1 forwards cubic-bezier(.36,-.01,.5,1.38) slideLeft,6s Infinite linear wind;animation-delay:0s,.5s;transform-origin:109.64px 320.694px"><ellipse id="eldqgamtg82fq" cx="106.5" cy="426.5" class="animable" rx="47.5" ry="10.5" style="fill:#2c9f45;transform-origin:106.5px 426.5px"/><g id="el7jxs0bn7bj"><ellipse id="elwm6jf7sgwv" cx="106.5" cy="426.5" class="animable" rx="47.5" ry="10.5" style="fill:#fff;opacity:.5;transform-origin:106.5px 426.5px"/></g><path id="elxe25tvwvc9" d="M81.82 415.76s-11.52 6.48-11.52 9.6 7.11 1.2 11.77-1 8.33-3.84 8.33-8.16-8.58-.44-8.58-.44Z" class="animable" style="fill:#2c9f45;stroke:#263238;stroke-miterlimit:10;transform-origin:80.35px 420.577px"/><path id="el8ab27ya742" d="M137 415.76s11.52 6.48 11.52 9.6-7.1 1.2-11.76-1-8.34-3.84-8.34-8.16 8.58-.44 8.58-.44Z" class="animable" style="fill:#2c9f45;stroke:#263238;stroke-miterlimit:10;transform-origin:138.47px 420.577px"/><path id="elavja1f7zhi" d="M86.48 309.69 81.58 417a6.5 6.5 0 0 0 4.9 1.44 6.4 6.4 0 0 0 3.92-2.16l16.67-87.59h3.43l17.65 89.27a8.1 8.1 0 0 0 3.43 1c1.72 0 4.41-2.16 4.41-2.16l-5.64-107Z" class="animable" style="fill:#263238;stroke:#263238;stroke-miterlimit:10;transform-origin:108.785px 364.325px"/><path id="elsb153hehzie" d="m103.64 244.66-22.31 9.11 5.88 51.84h42.66l7.84-53.76-24.27-7.67z" class="animable" style="fill:#2c9f45;stroke:#263238;stroke-miterlimit:10;transform-origin:109.52px 274.895px"/><path id="elmfg5w4p03t" d="M86.48 304.65h43.88v5.04H86.48z" class="animable" style="fill:#263238;stroke:#263238;stroke-miterlimit:10;transform-origin:108.42px 307.17px"/><path id="elnhz2df1hrv" d="m85.74 308.73-7.6 3.12a24.5 24.5 0 0 0 .49 6.48c.74 2.88 1.72 9.12 2.46 10.32s4.41 3.6 4.9 2.88 2.94-21.84 2.94-21.84Z" class="animable" style="fill:#263238;stroke:#263238;stroke-miterlimit:10;transform-origin:83.5148px 320.196px"/><path id="elre7p67r34z" d="M102.89 233.49v8.75l6.38 6.62 6.51-6.75v-8.75z" class="animable" style="fill:#fff;stroke:#263238;stroke-miterlimit:10;transform-origin:109.335px 241.11px"/><path id="el97iptjnw0mw" d="M98.42 225.37s-1.15-2.63-1.92-1 .13 4.12 1.28 5.12a4.13 4.13 0 0 0 2.94.75l-.64-3.75Z" class="animable" style="fill:#fff;stroke:#263238;stroke-miterlimit:10;transform-origin:98.4666px 227.055px"/><path id="el0u1k0pxkx3p9" d="M119.22 225.37s1.15-2.63 1.92-1-.13 4.12-1.28 5.12a4.1 4.1 0 0 1-2.93.75l.63-3.75Z" class="animable" style="fill:#fff;stroke:#263238;stroke-miterlimit:10;transform-origin:119.178px 227.055px"/><path id="el1mmvdccuar8" d="M100.59 208s-5.36 2.25-5.36 6 .76 8 2 9.63 2.3 2.75 2.3 2.75l.25-5.38 3.7-6.37s6.13 3.87 9.19 3.87a31.6 31.6 0 0 0 5.11-.37l1.15 6.37 1.66-4.62v-4.25s3.06-2.88 2.42-4.75-11-7.75-17.36-6.25-5.06 3.37-5.06 3.37Z" class="animable" style="fill:#263238;stroke:#263238;stroke-miterlimit:10;transform-origin:109.164px 215.384px"/><path id="eljsu2o9bc3ur" d="M98 220.62s1.54 9.37 2.81 11.87A35 35 0 0 0 107 240c.89.62 4.21.12 5.49.12s5-7.5 5.62-8.87 1-13.12 1-13.12L118 216s-5.49 1.38-9.83-.37a15 15 0 0 1-6.13-4.13s-.38 4.25-1.91 6.75-2.13 2.37-2.13 2.37Z" class="animable" style="fill:#fff;stroke:#263238;stroke-miterlimit:10;transform-origin:108.555px 225.905px"/><path id="elc7ie7jbyagb" d="M107.86 221.62a11 11 0 0 0-5-1.25 9.4 9.4 0 0 0-4.34.87s0 4.25 1.4 5.88 5.49 1.12 6.64-.25 1.3-5.25 1.3-5.25Z" class="animable" style="fill:#263238;stroke:#263238;stroke-miterlimit:10;transform-origin:103.19px 224.25px"/><path id="elu1gh7jlwcs" d="M109.65 221.62a11 11 0 0 1 5-1.25 9.4 9.4 0 0 1 4.34.87s0 4.25-1.41 5.88-5.48 1.12-6.63-.25-1.3-5.25-1.3-5.25Z" class="animable" style="fill:#263238;stroke:#263238;stroke-miterlimit:10;transform-origin:114.32px 224.25px"/><path id="ellbrhh7ibug" d="M107.86 221.62h1.79" class="animable" style="fill:#fff;stroke:#263238;stroke-miterlimit:10;transform-origin:108.755px 221.62px"/><path id="el0i8fpdmpy9es" d="m106.09 252.09 2.69 4.32-4.41 37.2 5.4 7.92 4.65-8.64-3.67-36.96 3.18-5.03-4.66-2.04z" class="animable" style="fill:#263238;stroke:#263238;stroke-miterlimit:10;transform-origin:109.395px 275.195px"/><path id="elak5pgnv8eh6" d="m109.27 248.86-3.58 6.13-6.38-8.5 3.58-4.25z" class="animable" style="fill:#2c9f45;stroke:#263238;stroke-miterlimit:10;transform-origin:104.29px 248.615px"/><path id="eli1x6ysjwvq" d="m109.27 248.86 4.34 6.75 5.23-9.62-3.06-3.88z" class="animable" style="fill:#2c9f45;stroke:#263238;stroke-miterlimit:10;transform-origin:114.055px 248.86px"/><path id="elf6q7ajrzuxd" d="m81.33 253.77-27.21 35.76 24.02 17.28 3.44-6-7.36-14.16 10.05-9.12z" class="animable" style="fill:#2c9f45;stroke:#263238;stroke-miterlimit:10;transform-origin:69.195px 280.29px"/><path id="els1f5c12rlr" d="m81.58 300.81 8.08-.24 6.13 5.52a3 3 0 0 1-.73 1.92c-.74.72-2.7.24-2.7.24s-1.47 3.6-4.17 3.6-10-5-10-5Z" class="animable" style="fill:#fff;stroke:#263238;stroke-miterlimit:10;transform-origin:86.99px 306.21px"/><path id="elwlok9hlc46f" d="m79.62 296.73-4.17 7.44" class="animable" style="fill:none;stroke:#263238;stroke-linecap:round;stroke-linejoin:round;transform-origin:77.535px 300.45px"/><path id="elpkpg51n2kh" d="m74.22 286.65-3.18-8.16" class="animable" style="fill:none;stroke:#263238;stroke-linecap:round;stroke-linejoin:round;transform-origin:72.63px 282.57px"/><path id="elzjiamofop6" d="m137.71 251.85 27.45 37.68-24.02 17.28-3.43-6 7.35-14.16-11.52-9.36z" class="animable" style="fill:#2c9f45;stroke:#263238;stroke-miterlimit:10;transform-origin:149.35px 279.33px"/><path id="elpdtgjw3ff7" d="m137.71 300.81-8.09-.24-6.13 5.52a3 3 0 0 0 .74 1.92c.73.72 2.69.24 2.69.24s1.47 3.6 4.17 3.6 10-5 10-5Z" class="animable" style="fill:#fff;stroke:#263238;stroke-miterlimit:10;transform-origin:132.29px 306.21px"/><path id="el37eg5qvgeqm" d="m139.67 296.73 4.17 7.44" class="animable" style="fill:none;stroke:#263238;stroke-linecap:round;stroke-linejoin:round;transform-origin:141.755px 300.45px"/><path id="elhosxlwuvkok" d="m145.06 286.65 3.19-8.16" class="animable" style="fill:none;stroke:#263238;stroke-linecap:round;stroke-linejoin:round;transform-origin:146.655px 282.57px"/><path id="elg54p2p8yq5e" d="M100.61 263.37H85.58v5.12l7.52 2.88 7.51-3.2z" class="animable" style="fill:#2c9f45;stroke:#263238;stroke-miterlimit:10;transform-origin:93.095px 267.37px"/><path id="elb2h1wti8zm7" d="M130.68 263.37h-15.03v5.12l7.52 2.88 7.51-3.2z" class="animable" style="fill:#2c9f45;stroke:#263238;stroke-miterlimit:10;transform-origin:123.165px 267.37px"/></g><defs><clipPath id="freepik--clip-path--inject-63"><path d="M274.92 330.5V311h-58.68v19.5A27.88 27.88 0 0 1 210 348l-2.57 3.18h76.28l-2.56-3.18a27.83 27.83 0 0 1-6.23-17.5" style="fill:#fff;stroke:#263238;stroke-linecap:round;stroke-linejoin:round"/></clipPath></defs><defs><filter id="active" height="200%"><feMorphology in="SourceAlpha" operator="dilate" radius="2" result="DILATED"/><feFlood flood-color="#32dfec" flood-opacity="1" result="PINK"/><feComposite in="PINK" in2="DILATED" operator="in" result="OUTLINE"/><feMerge><feMergeNode in="OUTLINE"/><feMergeNode in="SourceGraphic"/></feMerge></filter><filter id="hover" height="200%"><feMorphology in="SourceAlpha" operator="dilate" radius="2" result="DILATED"/><feFlood flood-color="red" flood-opacity=".5" result="PINK"/><feComposite in="PINK" in2="DILATED" operator="in" result="OUTLINE"/><feMerge><feMergeNode in="OUTLINE"/><feMergeNode in="SourceGraphic"/></feMerge><feColorMatrix values="0 0 0 0 0 0 1 0 0 0 0 0 0 0 0 0 0 0 1 0"/></filter></defs></svg>