<svg xmlns="http://www.w3.org/2000/svg" id="freepik_stories-search-engines" class="animated" viewBox="0 0 500 500"><style>@keyframes zoomOut{0%{opacity:0;transform:scale(1.5)}to{opacity:1;transform:scale(1)}}@keyframes wind{0%{transform:rotate(0deg)}25%{transform:rotate(1deg)}75%{transform:rotate(-1deg)}}@keyframes slideDown{0%{opacity:0;transform:translateY(-30px)}to{opacity:1;transform:translateY(0)}}@keyframes floating{0%,to{opacity:1;transform:translateY(0)}50%{transform:translateY(-10px)}}@keyframes fadeIn{0%{opacity:0}to{opacity:1}}svg#freepik_stories-search-engines:not(.animated) .animable{opacity:0}</style><g id="freepik--background-simple--inject-62" class="animable" style="animation:1s 1 forwards cubic-bezier(.36,-.01,.5,1.38) zoomOut;animation-delay:0s;transform-origin:253.996px 249.198px"><path id="el7h7l2pnb1sd" d="M98.17 313.63c46.24 53 92.93 59.71 158.56 72.27s113.82 3.88 149.33-28.13c41-37 39.38-121.76-23.36-151.94-19.6-9.45-42.94-12.31-60.11-25.6-32.79-25.36-59.31-64.82-111.95-72.23s-88.13 27.9-88.13 27.9c-43.23 47.34-70.58 124.69-24.34 177.73" class="animable" style="fill:#2c9f45;transform-origin:253.996px 249.198px"/><g id="el4vldfdvie2t"><path id="ely3c3m9kd1to" d="M98.17 313.63c46.24 53 92.93 59.71 158.56 72.27s113.82 3.88 149.33-28.13c41-37 39.38-121.76-23.36-151.94-19.6-9.45-42.94-12.31-60.11-25.6-32.79-25.36-59.31-64.82-111.95-72.23s-88.13 27.9-88.13 27.9c-43.23 47.34-70.58 124.69-24.34 177.73" class="animable" style="fill:#fff;opacity:.7;isolation:isolate;transform-origin:253.996px 249.198px"/></g></g><g id="freepik--Shadow--inject-62" class="animable" style="animation:6s Infinite linear wind;animation-delay:0s;transform-origin:255.95px 406.38px"><path id="ely2dp7qcvwe" d="M60.95 398.38h390v16h-390z" class="animable" style="fill:#2c9f45;transform-origin:255.95px 406.38px"/><g id="el99n8t9ogazt"><path id="elpoulsp5rcz" d="M60.95 398.38h390v16h-390z" class="animable" style="fill:#fff;opacity:.5;isolation:isolate;transform-origin:255.95px 406.38px"/></g></g><g id="freepik--Plants--inject-62" class="animable" style="animation:1s 1 forwards cubic-bezier(.36,-.01,.5,1.38) slideDown,6s Infinite linear floating;animation-delay:0s,2s;transform-origin:237.88px 287.755px"><path id="el7zx5rrc3ln" d="M152.92 226.29a56 56 0 0 0-5.61 2.17c1-.73 2-1.49 3-2.26A146 146 0 0 0 163 214.7a138 138 0 0 1-15 12.63 32 32 0 0 0 1.92-3.94c1-2.49 1.18-5-1.19-6.33-2.93-1.64-6.47.81-5.54 5a15.46 15.46 0 0 0 3.23 6.35 96 96 0 0 1-10.8 6.47l-.35.18a36 36 0 0 0 2.09-4.25c.94-2.48 1.18-5-1.2-6.32-2.93-1.65-6.47.81-5.53 5a15.5 15.5 0 0 0 3.16 6.28c-4.49 2.21-9.13 4.09-13.75 6.13l-.67.3a31 31 0 0 0 2.51-3.07c1.5-2.2 2.31-4.58.31-6.43-2.46-2.28-6.49-.72-6.55 3.6a15.45 15.45 0 0 0 1.62 6.87 70.7 70.7 0 0 0-12.26 7.32l-.12.1a27 27 0 0 0 1.42-2.54c1.13-2.41 1.55-4.89-.73-6.4a3.72 3.72 0 0 0-5.58 1.73 3.5 3.5 0 0 0-1.19-1.14c-2.29-1.32-4.54.11-6.47 2.13-.5.53-1 1.1-1.43 1.66a70.5 70.5 0 0 1 5.59-11.9 17.1 17.1 0 0 0 6.73 1.43c4.56 0 6.48-3.8 4.24-6.16-1.82-1.91-4.38-1.18-6.8.22a26 26 0 0 0-2.31 1.52 69 69 0 0 1 7.86-9.78 17.1 17.1 0 0 0 6.5 3.27c4.43 1.09 7.21-2.12 5.61-4.95-1.3-2.3-4-2.21-6.65-1.44a31 31 0 0 0-3.72 1.38c1.21-1.18 2.46-2.31 3.73-3.43 1.66-1.42 3.38-2.79 5.13-4.13a17.1 17.1 0 0 0 6.39 3.19c4.43 1.09 7.21-2.12 5.61-4.95-1.3-2.3-4-2.21-6.66-1.44-.62.18-1.25.4-1.86.63 2.31-1.65 4.65-3.26 7-4.86l2.17-1.49a17.2 17.2 0 0 0 6.72 3.46c4.43 1.09 7.22-2.12 5.62-4.95-1.31-2.3-4-2.21-6.66-1.44q-1.57.48-3.09 1.11l1.34-1c.82-.59 1.64-1.19 2.44-1.82 1-.75 1.95-1.58 2.92-2.38.56-.44 1.09-.91 1.62-1.39a17.1 17.1 0 0 0 6.76 3.49c4.43 1.09 7.21-2.12 5.61-4.95-1.3-2.3-4-2.21-6.65-1.44a38 38 0 0 0-4.36 1.65c1.81-1.68 3.56-3.43 5.22-5.25.11-.13.21-.26.33-.38.71-.79 1.41-1.59 2.09-2.42s1.56-1.92 2.3-2.92a57.2 57.2 0 0 0 7.44-13 57 57 0 0 1-7.69 12.8 80.5 80.5 0 0 1-10.27 10.85l-.41.35A38 38 0 0 0 143 189c.95-2.48 1.18-5-1.2-6.32-2.92-1.65-6.47.81-5.53 5a15.55 15.55 0 0 0 3.51 6.68l-.88.76-1 .86c-.58.47-1.18.92-1.78 1.37-.32.24-.63.49-1 .73-.85.63-1.71 1.24-2.58 1.84l-1.25.85-1.42 1a35 35 0 0 0 2.18-4.41c.95-2.49 1.18-5-1.19-6.32-2.93-1.65-6.48.81-5.54 5a15.5 15.5 0 0 0 3.35 6.51l-1 .68-3.89 2.55-.77.5-2.17 1.45-.94.63c-1 .69-2 1.39-3 2.11A35 35 0 0 0 119 206c1-2.48 1.18-5-1.19-6.32-2.93-1.65-6.47.81-5.53 5a15.4 15.4 0 0 0 3.42 6.58c-1.7 1.25-3.38 2.53-5 3.87-1.19 1-2.36 2-3.51 3.08a28 28 0 0 0 1.34-2.86c.94-2.49 1.18-5-1.2-6.32-2.93-1.65-6.47.81-5.53 5a15.5 15.5 0 0 0 3.16 6.28 70.2 70.2 0 0 0-8.71 10.53 27 27 0 0 0 .66-3.32c.32-2.64-.06-5.12-2.69-5.84-3.24-.89-6.08 2.35-4.15 6.21a15.5 15.5 0 0 0 4.64 5.37 72.8 72.8 0 0 0-6.28 13 27 27 0 0 0-.28-2.83c-.45-2.63-1.51-4.9-4.24-4.85-3.36.07-5.17 4-2.22 7.14a15.24 15.24 0 0 0 5.62 3.71 91 91 0 0 0-2.77 10.67c-.12.57-.21 1.14-.32 1.71-.12.11-.24.22-.35.34-.12-.49-.26-1-.42-1.47-.84-2.52-2.24-4.61-4.93-4.13-3.3.58-4.49 4.72-1.09 7.39a15.1 15.1 0 0 0 5.84 2.73c0 .1.08.19.13.29-.37 2.71-.65 5.44-.82 8.18-.13 2-.2 4.09-.24 6.14-2.86 0-4.88 3.14-2.91 6.54a14.4 14.4 0 0 0 3.15 3.72c.24 3.85.62 7.7 1.13 11.52a3.17 3.17 0 0 0-3.06-.71c-1.8.49-2.61 1.94-2.9 3.72a3.56 3.56 0 0 0-1 2.47c-1.34-2-2.61-4-3.84-6.11a17 17 0 0 0 4.57-5.33c2.15-4-.28-7.51-3.41-6.66-2.56.7-3.12 3.3-3 6.09a28 28 0 0 0 .3 3.16l-1.32-2.32c-1.1-2-2-4-3.08-6-.26-.49-.49-1-.7-1.5a17 17 0 0 0 5.47-4.37c2.87-3.54 1.14-7.43-2.1-7.18-2.64.21-3.69 2.66-4.13 5.42a34 34 0 0 0-.32 3.63l-.94-2.17a111.5 111.5 0 0 1-4.93-15.14 17 17 0 0 0 6.34-4c3.21-3.25 1.88-7.28-1.37-7.36-2.64-.06-3.93 2.27-4.65 5a37 37 0 0 0-.79 4.4q-1.05-4.44-1.8-9c-.34-1.86-.56-3.75-.79-5.63a17.24 17.24 0 0 0 7.06-3.17c3.6-2.8 2.81-7-.41-7.47-2.61-.41-4.19 1.74-5.25 4.33a43 43 0 0 0-1.56 5c-.2-2.18-.43-4.37-.53-6.56a103 103 0 0 1 0-13.58 103 103 0 0 0-.47 13.6c0 2.09.18 4.17.31 6.26a33.4 33.4 0 0 0-2-4.13c-1.36-2.29-3.18-4-5.7-3-3.11 1.28-3.38 5.58.52 7.46a15.5 15.5 0 0 0 7.31 1.39c.18 1.87.34 3.73.62 5.58.39 3 .89 5.88 1.48 8.79a30 30 0 0 0-2.13-3.21c-1.65-2.09-3.67-3.57-6-2.22-2.91 1.67-2.63 6 1.48 7.33a15.5 15.5 0 0 0 7.19.48 116 116 0 0 0 4.49 15.35l.59 1.5a22 22 0 0 0-1.71-2c-1.85-1.92-4-3.19-6.23-1.6-2.73 2-2 6.2 2.2 7.14a15.5 15.5 0 0 0 7-.2c.21.51.42 1 .67 1.52 1 2.06 1.89 4.17 2.94 6.19L69 300c-.52-.45-1.06-.88-1.62-1.28-2.18-1.53-4.54-2.37-6.42-.4-2.32 2.43-.82 6.47 3.5 6.6a15.3 15.3 0 0 0 6.54-1.3c1.24 2.24 2.51 4.45 3.89 6.62.51.83 1 1.65 1.58 2.47a26 26 0 0 0-2.48-2c-2.18-1.53-4.54-2.37-6.43-.4-2.31 2.43-.81 6.47 3.51 6.6a15.55 15.55 0 0 0 7.12-1.63q1.08 1.5 2.22 3c-1.61 1.87-1.08 5 2.19 6.43a14.6 14.6 0 0 0 5 1.11c.2.16.4.32.62.47l.1.08q3.1 11.58 7.35 22.82c1.2 3.19 2.49 6.35 3.82 9.49h-12V406h36.67v-47.36h-19.52a258 258 0 0 1-4.78-11.07c-2.45-6.12-4.67-12.34-6.6-18.65a9 9 0 0 0 1 .23 4.4 4.4 0 0 0 1.35.06l-.52-3.29h-.35a6 6 0 0 1-.62-.12 9.5 9.5 0 0 1-1.35-.5l-.52-.24a16.9 16.9 0 0 0 5.29-3c3.47-3 2.49-7.1-.75-7.45-2.62-.29-4.1 1.93-5 4.56-.27.75-.49 1.53-.68 2.29-.19-.7-.38-1.4-.56-2.1-.53-2.07-1-4.16-1.48-6.25A16.8 16.8 0 0 0 94.8 310c3.47-3 2.48-7.09-.75-7.44-2.63-.29-4.1 1.93-5 4.56-.27.76-.5 1.55-.7 2.33-.3-1.52-.59-3.05-.86-4.58-.19-1.13-.37-2.27-.54-3.41-.06-1.62-.09-3.24-.07-4.87 0-.89 0-1.78.08-2.67a17.1 17.1 0 0 0 6.07.77c4.56-.3 6.24-4.2 3.86-6.41-1.94-1.81-4.45-.91-6.78.63a32 32 0 0 0-3 2.31 73 73 0 0 1 1.73-11.3 58 58 0 0 1 1.91-6.46 17.1 17.1 0 0 0 6.51.91c4.56-.29 6.24-4.19 3.86-6.41-1.93-1.8-4.45-.91-6.78.64a26 26 0 0 0-2.34 1.81 48 48 0 0 1 3.06-6A44.1 44.1 0 0 1 103.6 254a16.9 16.9 0 0 0 6.05 3.59c4.34 1.42 7.35-1.58 6-4.52-1.13-2.39-3.79-2.5-6.53-1.93a28 28 0 0 0-3.12.86l.07-.06a69 69 0 0 1 12-7.52 17.2 17.2 0 0 0 5.58 4.74c4.06 2.09 7.51-.39 6.61-3.51-.73-2.54-3.34-3.07-6.13-3a30 30 0 0 0-3.27.36c4.51-2.13 9.11-4.14 13.55-6.49h.1a17 17 0 0 0 6.89 3.6c4.43 1.1 7.21-2.12 5.61-5-1.3-2.3-4-2.2-6.65-1.44-.75.22-1.5.49-2.23.77a99 99 0 0 0 8.61-5.62l.23.25v-.13a17.36 17.36 0 0 0 6.95 3.65c4.42 1.09 7.21-2.12 5.61-5-1.26-2.17-3.92-2.08-6.61-1.31M83 316.9c-.91-1.06-1.77-2.17-2.61-3.29.2-.18.42-.38.64-.6a15.7 15.7 0 0 0 3.85.69v.21l.61-.13c.32 1.58.65 3.15 1 4.72a4.09 4.09 0 0 0-3.49-1.6m3.26-37.65c-.31 1.18-.57 2.36-.82 3.55l-.15-.21q0-3.66.11-7.3c.07-1.7.19-3.39.34-5.09a17.6 17.6 0 0 0 2.7 2.25 66 66 0 0 0-2.17 6.8Zm4.1-11.2c.06-.44.11-.89.13-1.33v-.67c.36-.11.73-.24 1.09-.39-.4.79-.82 1.59-1.21 2.39Zm5.21-8.45a3.2 3.2 0 0 0-1.83-1.72c-2.47-1-4.47.8-6.06 3.1l-.08.11h-.16a3 3 0 0 0-.51-.07.83.83 0 0 1 .07-.41 89 89 0 0 1 2.56-10.69 17 17 0 0 0 6.85-.53 5.83 5.83 0 0 0 3.36-2.39 15.4 15.4 0 0 0 2.47 5.61 46 46 0 0 0-6.66 7Z" class="animable" style="fill:#2c9f45;transform-origin:104.17px 287.755px"/><g id="eldoh431cml5"><path id="ell5tfxoazyw" d="M152.92 226.29a56 56 0 0 0-5.61 2.17c1-.73 2-1.49 3-2.26A146 146 0 0 0 163 214.7a138 138 0 0 1-15 12.63 32 32 0 0 0 1.92-3.94c1-2.49 1.18-5-1.19-6.33-2.93-1.64-6.47.81-5.54 5a15.46 15.46 0 0 0 3.23 6.35 96 96 0 0 1-10.8 6.47l-.35.18a36 36 0 0 0 2.09-4.25c.94-2.48 1.18-5-1.2-6.32-2.93-1.65-6.47.81-5.53 5a15.5 15.5 0 0 0 3.16 6.28c-4.49 2.21-9.13 4.09-13.75 6.13l-.67.3a31 31 0 0 0 2.51-3.07c1.5-2.2 2.31-4.58.31-6.43-2.46-2.28-6.49-.72-6.55 3.6a15.45 15.45 0 0 0 1.62 6.87 70.7 70.7 0 0 0-12.26 7.32l-.12.1a27 27 0 0 0 1.42-2.54c1.13-2.41 1.55-4.89-.73-6.4a3.72 3.72 0 0 0-5.58 1.73 3.5 3.5 0 0 0-1.19-1.14c-2.29-1.32-4.54.11-6.47 2.13-.5.53-1 1.1-1.43 1.66a70.5 70.5 0 0 1 5.59-11.9 17.1 17.1 0 0 0 6.73 1.43c4.56 0 6.48-3.8 4.24-6.16-1.82-1.91-4.38-1.18-6.8.22a26 26 0 0 0-2.31 1.52 69 69 0 0 1 7.86-9.78 17.1 17.1 0 0 0 6.5 3.27c4.43 1.09 7.21-2.12 5.61-4.95-1.3-2.3-4-2.21-6.65-1.44a31 31 0 0 0-3.72 1.38c1.21-1.18 2.46-2.31 3.73-3.43 1.66-1.42 3.38-2.79 5.13-4.13a17.1 17.1 0 0 0 6.39 3.19c4.43 1.09 7.21-2.12 5.61-4.95-1.3-2.3-4-2.21-6.66-1.44-.62.18-1.25.4-1.86.63 2.31-1.65 4.65-3.26 7-4.86l2.17-1.49a17.2 17.2 0 0 0 6.72 3.46c4.43 1.09 7.22-2.12 5.62-4.95-1.31-2.3-4-2.21-6.66-1.44q-1.57.48-3.09 1.11l1.34-1c.82-.59 1.64-1.19 2.44-1.82 1-.75 1.95-1.58 2.92-2.38.56-.44 1.09-.91 1.62-1.39a17.1 17.1 0 0 0 6.76 3.49c4.43 1.09 7.21-2.12 5.61-4.95-1.3-2.3-4-2.21-6.65-1.44a38 38 0 0 0-4.36 1.65c1.81-1.68 3.56-3.43 5.22-5.25.11-.13.21-.26.33-.38.71-.79 1.41-1.59 2.09-2.42s1.56-1.92 2.3-2.92a57.2 57.2 0 0 0 7.44-13 57 57 0 0 1-7.69 12.8 80.5 80.5 0 0 1-10.27 10.85l-.41.35A38 38 0 0 0 143 189c.95-2.48 1.18-5-1.2-6.32-2.92-1.65-6.47.81-5.53 5a15.55 15.55 0 0 0 3.51 6.68l-.88.76-1 .86c-.58.47-1.18.92-1.78 1.37-.32.24-.63.49-1 .73-.85.63-1.71 1.24-2.58 1.84l-1.25.85-1.42 1a35 35 0 0 0 2.18-4.41c.95-2.49 1.18-5-1.19-6.32-2.93-1.65-6.48.81-5.54 5a15.5 15.5 0 0 0 3.35 6.51l-1 .68-3.89 2.55-.77.5-2.17 1.45-.94.63c-1 .69-2 1.39-3 2.11A35 35 0 0 0 119 206c1-2.48 1.18-5-1.19-6.32-2.93-1.65-6.47.81-5.53 5a15.4 15.4 0 0 0 3.42 6.58c-1.7 1.25-3.38 2.53-5 3.87-1.19 1-2.36 2-3.51 3.08a28 28 0 0 0 1.34-2.86c.94-2.49 1.18-5-1.2-6.32-2.93-1.65-6.47.81-5.53 5a15.5 15.5 0 0 0 3.16 6.28 70.2 70.2 0 0 0-8.71 10.53 27 27 0 0 0 .66-3.32c.32-2.64-.06-5.12-2.69-5.84-3.24-.89-6.08 2.35-4.15 6.21a15.5 15.5 0 0 0 4.64 5.37 72.8 72.8 0 0 0-6.28 13 27 27 0 0 0-.28-2.83c-.45-2.63-1.51-4.9-4.24-4.85-3.36.07-5.17 4-2.22 7.14a15.24 15.24 0 0 0 5.62 3.71 91 91 0 0 0-2.77 10.67c-.12.57-.21 1.14-.32 1.71-.12.11-.24.22-.35.34-.12-.49-.26-1-.42-1.47-.84-2.52-2.24-4.61-4.93-4.13-3.3.58-4.49 4.72-1.09 7.39a15.1 15.1 0 0 0 5.84 2.73c0 .1.08.19.13.29-.37 2.71-.65 5.44-.82 8.18-.13 2-.2 4.09-.24 6.14-2.86 0-4.88 3.14-2.91 6.54a14.4 14.4 0 0 0 3.15 3.72c.24 3.85.62 7.7 1.13 11.52a3.17 3.17 0 0 0-3.06-.71c-1.8.49-2.61 1.94-2.9 3.72a3.56 3.56 0 0 0-1 2.47c-1.34-2-2.61-4-3.84-6.11a17 17 0 0 0 4.57-5.33c2.15-4-.28-7.51-3.41-6.66-2.56.7-3.12 3.3-3 6.09a28 28 0 0 0 .3 3.16l-1.32-2.32c-1.1-2-2-4-3.08-6-.26-.49-.49-1-.7-1.5a17 17 0 0 0 5.47-4.37c2.87-3.54 1.14-7.43-2.1-7.18-2.64.21-3.69 2.66-4.13 5.42a34 34 0 0 0-.32 3.63l-.94-2.17a111.5 111.5 0 0 1-4.93-15.14 17 17 0 0 0 6.34-4c3.21-3.25 1.88-7.28-1.37-7.36-2.64-.06-3.93 2.27-4.65 5a37 37 0 0 0-.79 4.4q-1.05-4.44-1.8-9c-.34-1.86-.56-3.75-.79-5.63a17.24 17.24 0 0 0 7.06-3.17c3.6-2.8 2.81-7-.41-7.47-2.61-.41-4.19 1.74-5.25 4.33a43 43 0 0 0-1.56 5c-.2-2.18-.43-4.37-.53-6.56a103 103 0 0 1 0-13.58 103 103 0 0 0-.47 13.6c0 2.09.18 4.17.31 6.26a33.4 33.4 0 0 0-2-4.13c-1.36-2.29-3.18-4-5.7-3-3.11 1.28-3.38 5.58.52 7.46a15.5 15.5 0 0 0 7.31 1.39c.18 1.87.34 3.73.62 5.58.39 3 .89 5.88 1.48 8.79a30 30 0 0 0-2.13-3.21c-1.65-2.09-3.67-3.57-6-2.22-2.91 1.67-2.63 6 1.48 7.33a15.5 15.5 0 0 0 7.19.48 116 116 0 0 0 4.49 15.35l.59 1.5a22 22 0 0 0-1.71-2c-1.85-1.92-4-3.19-6.23-1.6-2.73 2-2 6.2 2.2 7.14a15.5 15.5 0 0 0 7-.2c.21.51.42 1 .67 1.52 1 2.06 1.89 4.17 2.94 6.19L69 300c-.52-.45-1.06-.88-1.62-1.28-2.18-1.53-4.54-2.37-6.42-.4-2.32 2.43-.82 6.47 3.5 6.6a15.3 15.3 0 0 0 6.54-1.3c1.24 2.24 2.51 4.45 3.89 6.62.51.83 1 1.65 1.58 2.47a26 26 0 0 0-2.48-2c-2.18-1.53-4.54-2.37-6.43-.4-2.31 2.43-.81 6.47 3.51 6.6a15.55 15.55 0 0 0 7.12-1.63q1.08 1.5 2.22 3c-1.61 1.87-1.08 5 2.19 6.43a14.6 14.6 0 0 0 5 1.11c.2.16.4.32.62.47l.1.08q3.1 11.58 7.35 22.82c1.2 3.19 2.49 6.35 3.82 9.49h-12V406h36.67v-47.36h-19.52a258 258 0 0 1-4.78-11.07c-2.45-6.12-4.67-12.34-6.6-18.65a9 9 0 0 0 1 .23 4.4 4.4 0 0 0 1.35.06l-.52-3.29h-.35a6 6 0 0 1-.62-.12 9.5 9.5 0 0 1-1.35-.5l-.52-.24a16.9 16.9 0 0 0 5.29-3c3.47-3 2.49-7.1-.75-7.45-2.62-.29-4.1 1.93-5 4.56-.27.75-.49 1.53-.68 2.29-.19-.7-.38-1.4-.56-2.1-.53-2.07-1-4.16-1.48-6.25A16.8 16.8 0 0 0 94.8 310c3.47-3 2.48-7.09-.75-7.44-2.63-.29-4.1 1.93-5 4.56-.27.76-.5 1.55-.7 2.33-.3-1.52-.59-3.05-.86-4.58-.19-1.13-.37-2.27-.54-3.41-.06-1.62-.09-3.24-.07-4.87 0-.89 0-1.78.08-2.67a17.1 17.1 0 0 0 6.07.77c4.56-.3 6.24-4.2 3.86-6.41-1.94-1.81-4.45-.91-6.78.63a32 32 0 0 0-3 2.31 73 73 0 0 1 1.73-11.3 58 58 0 0 1 1.91-6.46 17.1 17.1 0 0 0 6.51.91c4.56-.29 6.24-4.19 3.86-6.41-1.93-1.8-4.45-.91-6.78.64a26 26 0 0 0-2.34 1.81 48 48 0 0 1 3.06-6A44.1 44.1 0 0 1 103.6 254a16.9 16.9 0 0 0 6.05 3.59c4.34 1.42 7.35-1.58 6-4.52-1.13-2.39-3.79-2.5-6.53-1.93a28 28 0 0 0-3.12.86l.07-.06a69 69 0 0 1 12-7.52 17.2 17.2 0 0 0 5.58 4.74c4.06 2.09 7.51-.39 6.61-3.51-.73-2.54-3.34-3.07-6.13-3a30 30 0 0 0-3.27.36c4.51-2.13 9.11-4.14 13.55-6.49h.1a17 17 0 0 0 6.89 3.6c4.43 1.1 7.21-2.12 5.61-5-1.3-2.3-4-2.2-6.65-1.44-.75.22-1.5.49-2.23.77a99 99 0 0 0 8.61-5.62l.23.25v-.13a17.36 17.36 0 0 0 6.95 3.65c4.42 1.09 7.21-2.12 5.61-5-1.26-2.17-3.92-2.08-6.61-1.31M83 316.9c-.91-1.06-1.77-2.17-2.61-3.29.2-.18.42-.38.64-.6a15.7 15.7 0 0 0 3.85.69v.21l.61-.13c.32 1.58.65 3.15 1 4.72a4.09 4.09 0 0 0-3.49-1.6m3.26-37.65c-.31 1.18-.57 2.36-.82 3.55l-.15-.21q0-3.66.11-7.3c.07-1.7.19-3.39.34-5.09a17.6 17.6 0 0 0 2.7 2.25 66 66 0 0 0-2.17 6.8Zm4.1-11.2c.06-.44.11-.89.13-1.33v-.67c.36-.11.73-.24 1.09-.39-.4.79-.82 1.59-1.21 2.39Zm5.21-8.45a3.2 3.2 0 0 0-1.83-1.72c-2.47-1-4.47.8-6.06 3.1l-.08.11h-.16a3 3 0 0 0-.51-.07.83.83 0 0 1 .07-.41 89 89 0 0 1 2.56-10.69 17 17 0 0 0 6.85-.53 5.83 5.83 0 0 0 3.36-2.39 15.4 15.4 0 0 0 2.47 5.61 46 46 0 0 0-6.66 7Z" class="animable" style="fill:#fff;opacity:.3;isolation:isolate;transform-origin:104.17px 287.755px"/></g><path id="elkirb0r2pduf" d="M399.49 362.37s-4.84-10.81-6-11.92-10.43-4.47-13-13-7.45-31.3 4.85-29.81 9.31 25.34 13.78 24.59-3.72-38.74 4.1-44 20.49-.37 19 19.75-4.47 31.66-1.86 30.55 10.06-5.22 10.06 3.35-7.08 14.53-11.18 14.9-6 .75-6 .75v5.58Z" class="animable" style="fill:#2e353a;stroke:#2e353a;stroke-linecap:round;stroke-linejoin:round;transform-origin:403.879px 324.688px"/><path id="el6w9k1q5fmc4" d="M395.55 341.42c-2.81-2.66-5.39-5.24-6.58-7.61-2.36-4.73-4.14-18-4.14-18" class="animable" style="fill:none;stroke:#fff;stroke-linecap:round;stroke-linejoin:round;stroke-width:.5px;transform-origin:390.19px 328.615px"/><path id="el8nrn1jhuvw7" d="M380.64 322.29c1.86 7.75 2.12 13.59 7.74 20.39 3 3.68 10.94 6.8 11.83 10.05a118 118 0 0 1 1.79 11.83l4.44.3s.9-7.7-1.64-13.19" class="animable" style="fill:none;stroke:#fff;stroke-linecap:round;stroke-linejoin:round;stroke-width:.5px;transform-origin:393.617px 343.575px"/><path id="elshwd5285ewh" d="M381.88 309.86s-3.32 2.55-2.14 8.83" class="animable" style="fill:none;stroke:#fff;stroke-linecap:round;stroke-linejoin:round;stroke-width:.5px;transform-origin:380.683px 314.275px"/><path id="el4elt7xh70c7" d="m403.15 332.73-1.76 2.85" class="animable" style="fill:none;stroke:#fff;stroke-linecap:round;stroke-linejoin:round;stroke-width:.5px;transform-origin:402.27px 334.155px"/><path id="ely7yg0lb5cce" d="m403.76 331.74-.61.99" class="animable" style="fill:none;stroke:#fff;stroke-linecap:round;stroke-linejoin:round;stroke-width:.5px;transform-origin:403.455px 332.235px"/><path id="elc89qi2gep2e" d="M409.67 289.16s-6.8-.29-6.8 6.21c0 5.49 1.68 24.23 1.32 32.8" class="animable" style="fill:none;stroke:#fff;stroke-linecap:round;stroke-linejoin:round;stroke-width:.5px;transform-origin:406.27px 308.664px"/><path id="elui5t40hzu7" d="M415 342.41c-.16 2.23-.26 3.81-.26 4.41 0 3.25 8.27-9.17 12.12-9.46 0 0 3.84-.3 2.36 6.8a14.78 14.78 0 0 1-10.34 11.23c-3.26.89-5.92-.59-6.51.89a27.4 27.4 0 0 0-.89 5.32" class="animable" style="fill:none;stroke:#fff;stroke-linecap:round;stroke-linejoin:round;stroke-width:.5px;transform-origin:420.52px 349.479px"/><path id="elqfuulfpo72" d="M416.93 295.33a26.3 26.3 0 0 1 .72 6.55c0 6.92-1.32 23.24-2.2 34.26" class="animable" style="fill:none;stroke:#fff;stroke-linecap:round;stroke-linejoin:round;stroke-width:.5px;transform-origin:416.552px 315.735px"/><path id="elp0nx3crshb" d="M413.51 289.76a5.24 5.24 0 0 1 2.07 2.18" class="animable" style="fill:none;stroke:#fff;stroke-linecap:round;stroke-linejoin:round;stroke-width:.5px;transform-origin:414.545px 290.85px"/><path id="elldems7mnb2" d="m408.7 340.61-.21 4.14" class="animable" style="fill:none;stroke:#fff;stroke-linecap:round;stroke-linejoin:round;stroke-width:.5px;transform-origin:408.595px 342.68px"/><path id="elb7ivix1wfa" d="M410.26 293.3s-1.77.59-1.18 6.8c.49 5.13 0 28.42-.23 36.37" class="animable" style="fill:none;stroke:#fff;stroke-linecap:round;stroke-linejoin:round;stroke-width:.5px;transform-origin:409.555px 314.885px"/><path id="elwtppdst3co9" d="M428.89 339.13a23.92 23.92 0 0 1-11.53 10.65c-8 3.25-8.28 1.77-8.28 5s-.3 9.17-.3 9.17" class="animable" style="fill:none;stroke:#fff;stroke-linecap:round;stroke-linejoin:round;stroke-width:.5px;transform-origin:418.835px 351.54px"/><path id="el23qiu5zkxg1" d="M417.8 405.97h-25.84l-5.53-37.43h36.9z" class="animable" style="fill:#2c9f45;stroke:#2e353a;stroke-linecap:round;stroke-linejoin:round;transform-origin:404.88px 387.255px"/><path id="el6e1ces7ohpa" d="M383.26 362.64h43.24v10.02h-43.24z" class="animable" style="fill:#2c9f45;stroke:#2e353a;stroke-linecap:round;stroke-linejoin:round;transform-origin:404.88px 367.65px"/></g><g id="freepik--Device--inject-62" class="animable" style="animation:1s 1 forwards cubic-bezier(.36,-.01,.5,1.38) fadeIn,6s Infinite linear wind;animation-delay:0s,1s;transform-origin:246px 296.22px"><path id="elv3fkpe6lmy" d="M275.92 380.77v-20.32h-59.84v20.32a29.43 29.43 0 0 1-6.36 18.23l-2.62 3.3h77.8l-2.62-3.3a29.43 29.43 0 0 1-6.36-18.23" class="animable" style="fill:#fff;stroke:#2e353a;stroke-linecap:round;stroke-linejoin:round;transform-origin:246px 381.375px"/><path id="elq2lbtoar6zq" d="M212.4 395h67.2a29.4 29.4 0 0 1-3.68-14.23v-20.32h-59.84v20.32A29.4 29.4 0 0 1 212.4 395" class="animable" style="fill:#2c9f45;transform-origin:246px 377.725px"/><rect id="el0pcdbktsuxo" width="240.51" height="180.39" x="125.74" y="186.47" class="animable" rx="8.48" style="fill:#2e353a;stroke:#2e353a;stroke-linecap:round;stroke-linejoin:round;transform-origin:245.995px 276.665px"/><path id="el967yw3w46bc" d="M125.74 338.82h240.52v19.55a8.48 8.48 0 0 1-8.48 8.48H134.23a8.48 8.48 0 0 1-8.48-8.48v-19.55Z" class="animable" style="fill:#fff;stroke:#2e353a;stroke-linecap:round;stroke-linejoin:round;transform-origin:246px 352.835px"/><path id="elvkz19vz65jb" d="M137.84 197.7h216.32v127.44H137.84z" class="animable" style="fill:#fff;stroke:#2e353a;stroke-linecap:round;stroke-linejoin:round;transform-origin:246px 261.42px"/><path id="elcfb08ga3irw" d="M250.44 352.84a4.44 4.44 0 1 0-4.44 4.44 4.44 4.44 0 0 0 4.44-4.44" class="animable" style="fill:#2e353a;stroke:#2e353a;stroke-linecap:round;stroke-linejoin:round;transform-origin:246px 352.84px"/><path id="eljm3f5qs1ldr" d="M207.1 402.34h77.81v3.63H207.1z" class="animable" style="fill:#fff;stroke:#2e353a;stroke-linecap:round;stroke-linejoin:round;transform-origin:246.005px 404.155px"/><path id="el9tospqldd8q" d="M139.54 206.68h212.59v11.17H139.54z" class="animable" style="fill:#fff;stroke:#2e353a;stroke-linecap:round;stroke-linejoin:round;transform-origin:245.835px 212.265px"/><path id="elzq5juglfh8f" d="m174.62 217.85-2.55-6.9h-32.53v108.76h212.59V217.85z" class="animable" style="fill:#2c9f45;stroke:#2e353a;stroke-linecap:round;stroke-linejoin:round;transform-origin:245.835px 265.33px"/><path id="elycxnq3qbuj" d="M196.76 268.36h99.68" class="animable" style="fill:none;stroke:#2e353a;stroke-linecap:round;stroke-linejoin:round;stroke-width:2px;transform-origin:246.6px 268.36px"/><path id="elcixymdv5" d="M196.76 278.16h99.68" class="animable" style="fill:none;stroke:#2e353a;stroke-linecap:round;stroke-linejoin:round;stroke-width:2px;transform-origin:246.6px 278.16px"/><path id="elztj0lsy9v1" d="M196.76 287.96h99.68" class="animable" style="fill:none;stroke:#2e353a;stroke-linecap:round;stroke-linejoin:round;stroke-width:2px;transform-origin:246.6px 287.96px"/><path id="elal398hnluat" d="M196.76 297.77h99.68" class="animable" style="fill:none;stroke:#2e353a;stroke-linecap:round;stroke-linejoin:round;stroke-width:2px;transform-origin:246.6px 297.77px"/><path id="el2nj0ytnigsk" d="M291.17 242.23h-90.33a7.08 7.08 0 0 1-7.09-7.07 7.08 7.08 0 0 1 7.07-7.09h90.35a7.08 7.08 0 0 1 7.09 7.09 7.08 7.08 0 0 1-7.09 7.07" class="animable" style="fill:#fff;stroke:#2e353a;stroke-linecap:round;stroke-linejoin:round;transform-origin:246.005px 235.15px"/><path id="el7udau0h2h6" d="M291.17 242.23h-12.34v-14.18h12.34a7.08 7.08 0 0 1 7.09 7.09 7.08 7.08 0 0 1-7.09 7.09" class="animable" style="fill:#2e353a;stroke:#2e353a;stroke-linecap:round;stroke-linejoin:round;transform-origin:288.545px 235.14px"/><path id="elnsxo46pal1i" d="M288.42 229.85a4.07 4.07 0 1 0 .19 5.75 4.05 4.05 0 0 0-.18-5.74Zm-.4 5.2a3.26 3.26 0 1 1-.15-4.62 3.27 3.27 0 0 1 .15 4.62" class="animable" style="fill:#fff;transform-origin:285.641px 232.82px"/><path id="els9lwja0wcfo" d="M291.48 237.08a.65.65 0 0 0-.69-.14l-1.47-1.38a.4.4 0 0 0-.56 0l-.13.14a.42.42 0 0 0 0 .57l1.45 1.36a.69.69 0 0 0 .17.72l2.5 2.45a.88.88 0 0 0 1.24 0 .88.88 0 0 0 0-1.24Z" class="animable" style="fill:#fff;transform-origin:291.382px 238.251px"/></g><g id="freepik--search-engines--inject-62" class="animable" style="animation:1s 1 forwards cubic-bezier(.36,-.01,.5,1.38) fadeIn,6s Infinite linear floating;animation-delay:0s,1s;transform-origin:257.635px 230.946px"><path id="elfimhanvary" d="M317.3 285a5.83 5.83 0 0 0 3.21 3.22c1.13.46 2.64.36 4.38 1.34 3.93 2.21 13.74.24 20.85 1s16.69-7.11 16.69-7.11l28.21 1.55v-28s-29.44 1.23-35.82-1.23-13.49-7.6-16.68-7.36-29.44 3.19-29.44 3.19l8.59 33.4Z" class="animable" style="fill:#fff;stroke:#2e353a;stroke-linecap:round;stroke-linejoin:round;transform-origin:349.67px 269.525px"/><path id="el5wu1uvlnptc" d="M310 172.1a29.63 29.63 0 1 0 32.71 26.19A29.61 29.61 0 0 0 310 172.1m5.88 53.08a23.77 23.77 0 1 1 21-26.25 23.77 23.77 0 0 1-21 26.25" class="animable" style="fill:#fff;stroke:#2e353a;stroke-linecap:round;stroke-linejoin:round;transform-origin:313.26px 201.549px"/><path id="elehfqfco6gth" d="M309.84 170.41a29.63 29.63 0 1 0 32.71 26.19 29.64 29.64 0 0 0-32.71-26.19m5.88 53.08a23.77 23.77 0 1 1 21-26.25 23.77 23.77 0 0 1-21 26.25" class="animable" style="fill:#fff;stroke:#2e353a;stroke-linecap:round;stroke-linejoin:round;transform-origin:313.1px 199.861px"/><g id="elgvsoob4p8ue"><rect id="elig1xslo4izl" width="7.17" height="26.42" x="314.5" y="229.86" class="animable" rx="2.88" style="fill:#2c9f45;stroke:#2e353a;stroke-linecap:round;stroke-linejoin:round;transform-origin:318.085px 243.07px;transform:rotate(-6.32deg)"/></g><path id="eldux7dwkr2ds" d="m316.88 247 3-.32a4.93 4.93 0 0 1 5.42 4.32l4.49 40.61a6.3 6.3 0 0 1-5.57 6.95h-.2a6.29 6.29 0 0 1-6.95-5.57l-4.49-40.6a4.92 4.92 0 0 1 4.35-5.44Z" class="animable" style="fill:#2e353a;stroke:#2e353a;stroke-linecap:round;stroke-linejoin:round;transform-origin:321.188px 272.625px"/><path id="elm1r95u5ltrj" d="M321.24 280.84s-7.11.26-8.11 1.49-.82 5.51 1.11 6c4.92 1.29 15.38.54 15.79-.34s1.25-6-.91-6.55a52 52 0 0 0-7.88-.6" class="animable" style="fill:#fff;stroke:#2e353a;stroke-linecap:round;stroke-linejoin:round;transform-origin:321.536px 284.931px"/><path id="el8i0ro6onuca" d="M319.19 270.92s-8.27-.31-9.56 1.18-1.54 7.06.64 7.9c5.56 2.13 18.07 1.3 18.64.2s1.81-6.81-.64-7.73-9.08-1.55-9.08-1.55" class="animable" style="fill:#fff;stroke:#2e353a;stroke-linecap:round;stroke-linejoin:round;transform-origin:319.189px 276.108px"/><path id="eltoxqzin3xz" d="M318 259.72s-8.84-.34-10.22 1.26-1.65 7.54.68 8.44c6 2.28 19 2.28 19.61 1.1s2.25-8.16-.37-9.15-9.7-1.65-9.7-1.65" class="animable" style="fill:#fff;stroke:#2e353a;stroke-linecap:round;stroke-linejoin:round;transform-origin:317.932px 265.495px"/><path id="elhgfvxbpb74" d="M312.9 249.24s-8.84-.33-10.22 1.26-1.71 7.72.68 8.44 19 2.28 19.61 1.11 2.25-8.17-.37-9.16-9.7-1.65-9.7-1.65" class="animable" style="fill:#fff;stroke:#2e353a;stroke-linecap:round;stroke-linejoin:round;transform-origin:312.821px 254.842px"/><path id="elk505s9212pq" d="M341.85 278.65a14.9 14.9 0 0 1-4.45-2.06c-7.11-4.91-6.87-16.19-6.87-16.19l-1.71-.49a15.2 15.2 0 0 1-3.93-2.21 35.5 35.5 0 0 1 1 7.11A5.31 5.31 0 0 1 321 270c-2.21.25-3.19.49-3.93-2.45s-4.41-14.72-4.66-16.44c-.22-1.56 2.4-4.34 6.57-5 6.41.52 12.73 2.31 19.19 2.31a13 13 0 0 1 6.25 2.3" class="animable" style="fill:#fff;stroke:#2e353a;stroke-linecap:round;stroke-linejoin:round;transform-origin:328.409px 262.38px"/><path id="elx8uzb5d4pn" d="M348.61 279.27a23 23 0 0 1-2.34 0" class="animable" style="fill:#fff;stroke:#2e353a;stroke-linecap:round;stroke-linejoin:round;transform-origin:347.44px 279.285px"/><path id="el0lz2007zmv2q" d="M353.84 278.3a22.7 22.7 0 0 1-5.23 1" class="animable" style="fill:#fff;stroke:#2e353a;stroke-linecap:round;stroke-linejoin:round;transform-origin:351.225px 278.8px"/><path id="el7zwvtbifq8i" d="M362.67 275.12h8.83" class="animable" style="fill:none;stroke:#2e353a;stroke-linecap:round;stroke-linejoin:round;transform-origin:367.085px 275.12px"/><path id="elzk5c6ggeuxq" d="M363.41 277.57h3.68" class="animable" style="fill:none;stroke:#2e353a;stroke-linecap:round;stroke-linejoin:round;transform-origin:365.25px 277.57px"/><path id="elhvc1q5t8cds" d="M330.53 260.4s4.88 0 8.08-2.91" class="animable" style="fill:none;stroke:#2e353a;stroke-linecap:round;stroke-linejoin:round;transform-origin:334.57px 258.945px"/><path id="el8zrmt2c03ou" d="M324.78 257.38a19.4 19.4 0 0 0-.83-3.92" class="animable" style="fill:none;stroke:#2e353a;stroke-linecap:round;stroke-linejoin:round;transform-origin:324.365px 255.42px"/><path id="el7bqw0n0ita3" d="M317 266.26s-.93-2.58.2-3.51 4.13-2.27 4.65-1.24 1.65 5.78 1.34 6.71l-.31.93" class="animable" style="fill:none;stroke:#2e353a;stroke-linecap:round;stroke-linejoin:round;stroke-width:.5px;transform-origin:319.942px 265.144px"/><path id="el0z16thdm7os" d="M452.55 297.55H368v-41.56h84.55" class="animable" style="fill:#2c9f45;stroke:#2e353a;stroke-linecap:round;stroke-linejoin:round;transform-origin:410.275px 276.77px"/><circle id="el4nm987cxdyl" cx="374.2" cy="292.87" r="1.9" class="animable" style="fill:#fff;stroke:#2e353a;stroke-linecap:round;stroke-linejoin:round;transform-origin:374.2px 292.87px"/><path id="el9wqsc7is81v" d="M239.83 216.41a5.83 5.83 0 0 0 3.22-3.21c.46-1.13.35-2.63 1.34-4.38 2.2-3.92.24-13.73 1-20.85s-7.12-16.68-7.12-16.68l1.53-28.21h-28s1.22 29.44-1.23 35.81-7.6 13.5-7.36 16.69 3.21 29.42 3.21 29.42l33.36-8.59Z" class="animable" style="fill:#fff;stroke:#2e353a;stroke-linecap:round;stroke-linejoin:round;transform-origin:224.338px 184.04px"/><path id="elawvjb7sn1ye" d="M127 223.69A29.63 29.63 0 1 0 153.21 191h-.07A29.63 29.63 0 0 0 127 223.69m53-5.89a23.78 23.78 0 1 1-26.27-21 23.79 23.79 0 0 1 26.27 21" class="animable" style="fill:#fff;stroke:#2e353a;stroke-linecap:round;stroke-linejoin:round;transform-origin:156.452px 220.452px"/><path id="elh3b4pcr85i5" d="M125.27 223.87a29.62 29.62 0 1 0 26.19-32.71 29.62 29.62 0 0 0-26.19 32.71m53.08-5.87a23.77 23.77 0 1 1-26.25-21 23.77 23.77 0 0 1 26.25 21" class="animable" style="fill:#fff;stroke:#2e353a;stroke-linecap:round;stroke-linejoin:round;transform-origin:154.709px 220.601px"/><g id="eli0ej4pcc5kc"><rect id="eltu8al11qlp" width="26.42" height="7.17" x="184.72" y="212.05" class="animable" rx="2.88" style="fill:#2c9f45;stroke:#2e353a;stroke-linecap:round;stroke-linejoin:round;transform-origin:197.93px 215.635px;transform:rotate(-6.32deg)"/></g><path id="elithjsskt2t" d="m201.86 216.84-.33-3a4.93 4.93 0 0 1 4.36-5.44l40.6-4.49a6.31 6.31 0 0 1 7 5.57v.2a6.31 6.31 0 0 1-5.57 7l-40.6 4.49a4.94 4.94 0 0 1-5.46-4.33" class="animable" style="fill:#2e353a;stroke:#2e353a;stroke-linecap:round;stroke-linejoin:round;transform-origin:227.516px 212.534px"/><path id="el4x69esed0bt" d="M235.69 212.48s.27 7.1 1.49 8.1 5.52.82 6-1.11c1.3-4.91.54-15.38-.34-15.78s-6-1.26-6.54.91a52 52 0 0 0-.61 7.88" class="animable" style="fill:#fff;stroke:#2e353a;stroke-linecap:round;stroke-linejoin:round;transform-origin:239.783px 212.179px"/><path id="elhw3q9u9farh" d="M225.78 214.52s-.32 8.27 1.17 9.56 7.06 1.55 7.9-.64c2.14-5.56 1.3-18.07.2-18.63s-6.81-1.81-7.73.64-1.54 9.07-1.54 9.07" class="animable" style="fill:#fff;stroke:#2e353a;stroke-linecap:round;stroke-linejoin:round;transform-origin:230.964px 214.53px"/><path id="el27j7ir32422" d="M214.58 215.73s-.34 8.84 1.25 10.22 7.55 1.65 8.45-.69c2.28-5.94 2.28-19 1.1-19.6s-8.17-2.25-9.15.37-1.65 9.7-1.65 9.7" class="animable" style="fill:#fff;stroke:#2e353a;stroke-linecap:round;stroke-linejoin:round;transform-origin:220.355px 215.799px"/><path id="eludj96kpjple" d="M204.1 220.82s-.34 8.84 1.26 10.22 7.72 1.71 8.44-.69 2.28-19 1.1-19.61-8.16-2.24-9.15.38-1.65 9.7-1.65 9.7" class="animable" style="fill:#fff;stroke:#2e353a;stroke-linecap:round;stroke-linejoin:round;transform-origin:209.699px 220.897px"/><path id="el0txc3w0xdfei" d="M234.12 185.08a17.44 17.44 0 0 1-2.68 11.23c-4.9 7.12-16.19 6.87-16.19 6.87l-.49 1.72a14.9 14.9 0 0 1-2.21 3.92 35.6 35.6 0 0 1 7.12-1 5.32 5.32 0 0 1 5.15 4.91c.25 2.21.49 3.19-2.45 3.92s-14.72 4.42-16.44 4.67c-1.56.22-4.34-2.4-5-6.57.53-6.41 2.32-12.74 2.32-19.19a13 13 0 0 1 2.3-6.26" class="animable" style="fill:#fff;stroke:#2e353a;stroke-linecap:round;stroke-linejoin:round;transform-origin:217.571px 203.206px"/><path id="elo81d665qdin" d="M233.16 179.88a20 20 0 0 1 .68 2.86" class="animable" style="fill:#fff;stroke:#2e353a;stroke-linecap:round;stroke-linejoin:round;transform-origin:233.5px 181.31px"/><path id="els6gbqcipfvg" d="M229.97 171.04v-8.83" class="animable" style="fill:none;stroke:#2e353a;stroke-linecap:round;stroke-linejoin:round;transform-origin:229.97px 166.625px"/><path id="el9iy5j1cklcd" d="M232.42 170.31v-3.68" class="animable" style="fill:none;stroke:#2e353a;stroke-linecap:round;stroke-linejoin:round;transform-origin:232.42px 168.47px"/><path id="elt0pij90m809" d="M215.25 203.18s0-4.88-2.91-8.08" class="animable" style="fill:none;stroke:#2e353a;stroke-linecap:round;stroke-linejoin:round;transform-origin:213.795px 199.14px"/><path id="el5b61kenfvff" d="M212.24 208.94a19.4 19.4 0 0 0-3.92.82" class="animable" style="fill:none;stroke:#2e353a;stroke-linecap:round;stroke-linejoin:round;transform-origin:210.28px 209.35px"/><path id="el9cnj11byatw" d="M221.12 216.68s-2.58.93-3.51-.21-2.27-4.13-1.24-4.64 5.78-1.65 6.71-1.34l.93.3" class="animable" style="fill:none;stroke:#2e353a;stroke-linecap:round;stroke-linejoin:round;stroke-width:.5px;transform-origin:220.004px 213.737px"/><path id="elwy62kf7k24" d="M252.41 81.16v84.55h-41.57V81.16" class="animable" style="fill:#2c9f45;stroke:#2e353a;stroke-linecap:round;stroke-linejoin:round;transform-origin:231.625px 123.435px"/><circle id="elxij2o9e6lyn" cx="247.72" cy="159.51" r="1.9" class="animable" style="fill:#fff;stroke:#2e353a;stroke-linecap:round;stroke-linejoin:round;transform-origin:247.72px 159.51px"/><path id="eletn6q7rquaq" d="M198 367a5.8 5.8 0 0 1-3.21 3.22c-1.13.47-2.63.36-4.38 1.34-3.92 2.21-13.73.25-20.85 1s-16.68-7.11-16.68-7.11L124.64 367v-28s29.44 1.23 35.82-1.22 13.49-7.61 16.68-7.36 29.44 3.19 29.44 3.19Z" class="animable" style="fill:#fff;stroke:#2e353a;stroke-linecap:round;stroke-linejoin:round;transform-origin:165.61px 351.531px"/><path id="elns64ivgpr2" d="M205.25 254.16a29.63 29.63 0 1 1-32.71 26.19 29.62 29.62 0 0 1 32.7-26.18Zm-5.88 53.08a23.78 23.78 0 1 0-21-26.27 23.79 23.79 0 0 0 21 26.27" class="animable" style="fill:#fff;stroke:#2e353a;stroke-linecap:round;stroke-linejoin:round;transform-origin:201.99px 283.615px"/><path id="eloz08e4dmoa" d="M205.43 252.47a29.62 29.62 0 1 1-32.71 26.18 29.62 29.62 0 0 1 32.71-26.18m-5.88 53.08a23.78 23.78 0 1 0-21-26.27 23.78 23.78 0 0 0 21 26.25Z" class="animable" style="fill:#fff;stroke:#2e353a;stroke-linecap:round;stroke-linejoin:round;transform-origin:202.16px 281.909px"/><g id="elqa5eqp4ej4c"><rect id="eltt0vreo4qu" width="26.42" height="7.17" x="183.96" y="321.54" class="animable" rx="2.88" style="fill:#2c9f45;stroke:#2e353a;stroke-linecap:round;stroke-linejoin:round;transform-origin:197.17px 325.125px;transform:rotate(-83.68deg)"/></g><path id="eli0p6xjjzqqm" d="M191.27 380.66h-.2a6.3 6.3 0 0 1-5.57-7l4.49-40.6a4.92 4.92 0 0 1 5.44-4.36l3 .33a4.93 4.93 0 0 1 4.36 5.44l-4.49 40.65a6.32 6.32 0 0 1-7 5.57Z" class="animable" style="fill:#2e353a;stroke:#2e353a;stroke-linecap:round;stroke-linejoin:round;transform-origin:194.138px 354.7px"/><path id="elxcg9i41ura" d="M194 362.89s7.1.27 8.1 1.49.82 5.51-1.11 6c-4.91 1.3-15.38.54-15.78-.34s-1.26-6 .91-6.55a52 52 0 0 1 7.88-.6" class="animable" style="fill:#fff;stroke:#2e353a;stroke-linecap:round;stroke-linejoin:round;transform-origin:193.699px 366.983px"/><path id="elxl86v5bzcqr" d="M196.08 353s8.27-.32 9.56 1.17 1.55 7.06-.64 7.9c-5.56 2.13-18.07 1.3-18.63.2s-1.81-6.81.64-7.73 9.07-1.54 9.07-1.54" class="animable" style="fill:#fff;stroke:#2e353a;stroke-linecap:round;stroke-linejoin:round;transform-origin:196.09px 358.182px"/><path id="el9ky8oim5gzs" d="M197.29 341.77s8.84-.33 10.22 1.26 1.65 7.55-.68 8.44c-6 2.29-19 2.28-19.61 1.11s-2.25-8.17.37-9.16 9.7-1.65 9.7-1.65" class="animable" style="fill:#fff;stroke:#2e353a;stroke-linecap:round;stroke-linejoin:round;transform-origin:197.358px 347.549px"/><path id="el6vtkkg32tti" d="M202.38 331.3s8.84-.34 10.22 1.25 1.71 7.73-.69 8.45-19 2.27-19.61 1.1-2.24-8.17.38-9.15 9.7-1.65 9.7-1.65" class="animable" style="fill:#fff;stroke:#2e353a;stroke-linecap:round;stroke-linejoin:round;transform-origin:202.457px 336.896px"/><path id="eljlouq6r6dv" d="M168 361.37a16.77 16.77 0 0 0 9.85-2.73c7.12-4.91 6.87-16.19 6.87-16.19l1.72-.49a14.9 14.9 0 0 0 3.92-2.21 35.5 35.5 0 0 0-1 7.11 5.33 5.33 0 0 0 4.91 5.16c2.21.24 3.19.49 3.93-2.46s4.41-14.72 4.66-16.43-2.4-4.35-6.57-5c-6.41.53-12.74 2.32-19.19 2.32a13.1 13.1 0 0 0-6.26 2.29" class="animable" style="fill:#fff;stroke:#2e353a;stroke-linecap:round;stroke-linejoin:round;transform-origin:185.438px 344.756px"/><path id="elyc33a877ruo" d="M161.44 360.36a22.4 22.4 0 0 0 4.29.87" class="animable" style="fill:#fff;stroke:#2e353a;stroke-linecap:round;stroke-linejoin:round;transform-origin:163.585px 360.795px"/><path id="elu1xyua64d2e" d="M152.6 357.17h-8.83" class="animable" style="fill:none;stroke:#2e353a;stroke-linecap:round;stroke-linejoin:round;transform-origin:148.185px 357.17px"/><path id="el9pfpuylk7wq" d="M151.87 359.62h-3.68" class="animable" style="fill:none;stroke:#2e353a;stroke-linecap:round;stroke-linejoin:round;transform-origin:150.03px 359.62px"/><path id="elkxpjbkyr5eh" d="M184.74 342.45s-4.88 0-8.08-2.91" class="animable" style="fill:none;stroke:#2e353a;stroke-linecap:round;stroke-linejoin:round;transform-origin:180.7px 340.995px"/><path id="el5ijglse6gdr" d="M190.5 339.43a19.4 19.4 0 0 1 .82-3.92" class="animable" style="fill:none;stroke:#2e353a;stroke-linecap:round;stroke-linejoin:round;transform-origin:190.91px 337.47px"/><path id="el58e4p2qlykw" d="M198.24 348.31s.93-2.58-.21-3.51-4.13-2.27-4.64-1.24-1.65 5.79-1.34 6.71l.31.93" class="animable" style="fill:none;stroke:#2e353a;stroke-linecap:round;stroke-linejoin:round;stroke-width:.5px;transform-origin:195.297px 347.194px"/><path id="elf82e0dd7fjq" d="M62.72 379.61h84.55v-41.57H62.72" class="animable" style="fill:#2c9f45;stroke:#2e353a;stroke-linecap:round;stroke-linejoin:round;transform-origin:104.995px 358.825px"/><path id="elzc6yqnremz8" d="M139.17 374.92a1.9 1.9 0 1 0 1.9-1.9 1.9 1.9 0 0 0-1.9 1.9" class="animable" style="fill:#fff;stroke:#2e353a;stroke-linecap:round;stroke-linejoin:round;transform-origin:141.07px 374.92px"/></g><defs><filter id="active" height="200%"><feMorphology in="SourceAlpha" operator="dilate" radius="2" result="DILATED"/><feFlood flood-color="#32dfec" flood-opacity="1" result="PINK"/><feComposite in="PINK" in2="DILATED" operator="in" result="OUTLINE"/><feMerge><feMergeNode in="OUTLINE"/><feMergeNode in="SourceGraphic"/></feMerge></filter><filter id="hover" height="200%"><feMorphology in="SourceAlpha" operator="dilate" radius="2" result="DILATED"/><feFlood flood-color="red" flood-opacity=".5" result="PINK"/><feComposite in="PINK" in2="DILATED" operator="in" result="OUTLINE"/><feMerge><feMergeNode in="OUTLINE"/><feMergeNode in="SourceGraphic"/></feMerge><feColorMatrix values="0 0 0 0 0 0 1 0 0 0 0 0 0 0 0 0 0 0 1 0"/></filter></defs></svg>