<svg xmlns="http://www.w3.org/2000/svg" id="freepik_stories-add-color" class="animated" viewBox="0 0 500 500"><style>@keyframes slideDown{0%{opacity:0;transform:translateY(-30px)}to{opacity:1;transform:translateY(0)}}@keyframes slideRight{0%{opacity:0;transform:translateX(30px)}to{opacity:1;transform:translateX(0)}}@keyframes heartbeat{0%,30%,40%,60%,to{transform:scale(1)}10%,50%{transform:scale(1.1)}}@keyframes wind{0%{transform:rotate(0deg)}25%{transform:rotate(1deg)}75%{transform:rotate(-1deg)}}@keyframes lightSpeedRight{0%{transform:translate3d(50%,0,0) skewX(-20deg);opacity:0}60%{transform:skewX(10deg);opacity:1}80%{transform:skewX(-2deg)}to{opacity:1;transform:translate3d(0,0,0)}}@keyframes slideUp{0%{opacity:0;transform:translateY(30px)}to{opacity:1;transform:inherit}}@keyframes shake{10%,90%{transform:translate3d(-1px,0,0)}20%,80%{transform:translate3d(2px,0,0)}30%,50%,70%{transform:translate3d(-4px,0,0)}40%,60%{transform:translate3d(4px,0,0)}}@keyframes lightSpeedLeft{0%{transform:translate3d(-50%,0,0) skewX(20deg);opacity:0}60%{transform:skewX(-10deg);opacity:1}80%{transform:skewX(2deg)}to{opacity:1;transform:translate3d(0,0,0)}}svg#freepik_stories-add-color:not(.animated) .animable{opacity:0}</style><g id="freepik--background-simple--inject-2" class="animable" style="animation:1s 1 forwards cubic-bezier(.36,-.01,.5,1.38) slideDown;animation-delay:0s;transform-origin:244.603px 246.88px"><path id="elygj816a3rz" d="M397.7 434.79a124.26 124.26 0 0 0 38.24-43.52c57.16-107.09 44.25-265-65.83-332.73C319.23 27.24 246 7.43 191 39.57c-44.6 26.08-71.94 75.17-94.56 119.83C82.23 187.49 70.52 217.72 53 244c-22.72 34.08-47.73 79.6-22.48 119.2 34.41 53.94 99.4 78.57 158.33 94.79 63.94 17.59 135.84 20.08 194.9-14.23q7.17-4.17 13.95-8.97" class="animable" style="fill:#2c9f45;transform-origin:244.603px 246.88px"/><path id="elho2xr7vmgfw" d="M397.7 434.79a124.26 124.26 0 0 0 38.24-43.52c57.16-107.09 44.25-265-65.83-332.73C319.23 27.24 246 7.43 191 39.57c-44.6 26.08-71.94 75.17-94.56 119.83C82.23 187.49 70.52 217.72 53 244c-22.72 34.08-47.73 79.6-22.48 119.2 34.41 53.94 99.4 78.57 158.33 94.79 63.94 17.59 135.84 20.08 194.9-14.23q7.17-4.17 13.95-8.97" class="animable" style="fill:#fff;opacity:.7;transform-origin:244.603px 246.88px"/></g><g id="freepik--Artboard--inject-2" class="animable" style="animation:1s 1 forwards cubic-bezier(.36,-.01,.5,1.38) slideRight,6s Infinite linear heartbeat;animation-delay:0s,1s;transform-origin:254.505px 184.8px"><path id="elgihrzit6dgd" d="M120.91 48.39h267.18v272.82H120.91z" class="animable" style="fill:#263238;stroke:#263238;stroke-linecap:round;stroke-linejoin:round;transform-origin:254.5px 184.8px"/><path id="elrliu0qzet" d="M129.2 68.12h-6.69" class="animable" style="fill:none;stroke:#ababab;stroke-linecap:round;stroke-linejoin:round;transform-origin:125.855px 68.12px"/><path id="el0eq3gpnyz37b" d="M129.2 80.46h-6.69" class="animable" style="fill:none;stroke:#ababab;stroke-linecap:round;stroke-linejoin:round;transform-origin:125.855px 80.46px"/><path id="elubpbscga0ho" d="M129.2 92.79h-6.69" class="animable" style="fill:none;stroke:#ababab;stroke-linecap:round;stroke-linejoin:round;transform-origin:125.855px 92.79px"/><path id="elhf8dkw2gcam" d="M129.2 105.13h-6.69" class="animable" style="fill:none;stroke:#ababab;stroke-linecap:round;stroke-linejoin:round;transform-origin:125.855px 105.13px"/><path id="elrmc3j3oy1x" d="M129.2 117.46h-6.69" class="animable" style="fill:none;stroke:#ababab;stroke-linecap:round;stroke-linejoin:round;transform-origin:125.855px 117.46px"/><path id="elk3t7gcm81f" d="M129.2 129.8h-6.69" class="animable" style="fill:none;stroke:#ababab;stroke-linecap:round;stroke-linejoin:round;transform-origin:125.855px 129.8px"/><path id="elnmr2jmririi" d="M129.2 142.13h-6.69" class="animable" style="fill:none;stroke:#ababab;stroke-linecap:round;stroke-linejoin:round;transform-origin:125.855px 142.13px"/><path id="eley0d31l22fn" d="M129.2 154.46h-6.69" class="animable" style="fill:none;stroke:#ababab;stroke-linecap:round;stroke-linejoin:round;transform-origin:125.855px 154.46px"/><path id="el3bxzaj6g3uq" d="M129.2 166.8h-6.69" class="animable" style="fill:none;stroke:#ababab;stroke-linecap:round;stroke-linejoin:round;transform-origin:125.855px 166.8px"/><path id="el5ws7at6vso" d="M129.2 179.13h-6.69" class="animable" style="fill:none;stroke:#ababab;stroke-linecap:round;stroke-linejoin:round;transform-origin:125.855px 179.13px"/><path id="elxp6iwlpj6kn" d="M129.2 191.47h-6.69" class="animable" style="fill:none;stroke:#ababab;stroke-linecap:round;stroke-linejoin:round;transform-origin:125.855px 191.47px"/><path id="el0sm3rxnem6f9" d="M129.2 203.8h-6.69" class="animable" style="fill:none;stroke:#ababab;stroke-linecap:round;stroke-linejoin:round;transform-origin:125.855px 203.8px"/><path id="els8v7t6t6h0e" d="M129.2 216.13h-6.69" class="animable" style="fill:none;stroke:#ababab;stroke-linecap:round;stroke-linejoin:round;transform-origin:125.855px 216.13px"/><path id="elueufkzr50j" d="M129.2 228.47h-6.69" class="animable" style="fill:none;stroke:#ababab;stroke-linecap:round;stroke-linejoin:round;transform-origin:125.855px 228.47px"/><path id="el6mferlm1kvq" d="M129.2 240.8h-6.69" class="animable" style="fill:none;stroke:#ababab;stroke-linecap:round;stroke-linejoin:round;transform-origin:125.855px 240.8px"/><path id="elfy9u4wq9q7a" d="M129.2 253.14h-6.69" class="animable" style="fill:none;stroke:#ababab;stroke-linecap:round;stroke-linejoin:round;transform-origin:125.855px 253.14px"/><path id="el3sk8gxftbcv" d="M129.2 265.47h-6.69" class="animable" style="fill:none;stroke:#ababab;stroke-linecap:round;stroke-linejoin:round;transform-origin:125.855px 265.47px"/><path id="elsfvwdb35p3d" d="M129.2 277.81h-6.69" class="animable" style="fill:none;stroke:#ababab;stroke-linecap:round;stroke-linejoin:round;transform-origin:125.855px 277.81px"/><path id="elupxtlamd7ue" d="M129.2 290.14h-6.69" class="animable" style="fill:none;stroke:#ababab;stroke-linecap:round;stroke-linejoin:round;transform-origin:125.855px 290.14px"/><path id="elwms37bvler" d="M129.2 302.47h-6.69" class="animable" style="fill:none;stroke:#ababab;stroke-linecap:round;stroke-linejoin:round;transform-origin:125.855px 302.47px"/><path id="el6pq6rh04vzh" d="M129.6 66.48v-4.73" class="animable" style="fill:none;stroke:#ababab;stroke-linecap:round;stroke-linejoin:round;transform-origin:129.6px 64.115px"/><path id="elm4kk8pa1g5l" d="M142.6 66.48v-4.73" class="animable" style="fill:none;stroke:#ababab;stroke-linecap:round;stroke-linejoin:round;transform-origin:142.6px 64.115px"/><path id="elv9p3jqtzfda" d="M155.61 66.48v-4.73" class="animable" style="fill:none;stroke:#ababab;stroke-linecap:round;stroke-linejoin:round;transform-origin:155.61px 64.115px"/><path id="el47u0tb7swo4" d="M168.61 66.48v-4.73" class="animable" style="fill:none;stroke:#ababab;stroke-linecap:round;stroke-linejoin:round;transform-origin:168.61px 64.115px"/><path id="elj2yhzzldnx" d="M181.61 66.48v-4.73" class="animable" style="fill:none;stroke:#ababab;stroke-linecap:round;stroke-linejoin:round;transform-origin:181.61px 64.115px"/><path id="elz2rmwfftjlc" d="M194.62 66.48v-4.73" class="animable" style="fill:none;stroke:#ababab;stroke-linecap:round;stroke-linejoin:round;transform-origin:194.62px 64.115px"/><path id="eleeq8uywk22j" d="M207.62 66.48v-4.73" class="animable" style="fill:none;stroke:#ababab;stroke-linecap:round;stroke-linejoin:round;transform-origin:207.62px 64.115px"/><path id="elqldh8xce35e" d="M220.62 66.48v-4.73" class="animable" style="fill:none;stroke:#ababab;stroke-linecap:round;stroke-linejoin:round;transform-origin:220.62px 64.115px"/><path id="elhzs40arhr0p" d="M233.63 66.48v-4.73" class="animable" style="fill:none;stroke:#ababab;stroke-linecap:round;stroke-linejoin:round;transform-origin:233.63px 64.115px"/><path id="elblfxat8enfr" d="M246.63 66.48v-4.73" class="animable" style="fill:none;stroke:#ababab;stroke-linecap:round;stroke-linejoin:round;transform-origin:246.63px 64.115px"/><path id="elzvyjux448s" d="M259.63 66.48v-4.73" class="animable" style="fill:none;stroke:#ababab;stroke-linecap:round;stroke-linejoin:round;transform-origin:259.63px 64.115px"/><path id="eljiuwmaeo0x" d="M272.64 66.48v-4.73" class="animable" style="fill:none;stroke:#ababab;stroke-linecap:round;stroke-linejoin:round;transform-origin:272.64px 64.115px"/><path id="elare5wpua6ol" d="M285.64 66.48v-4.73" class="animable" style="fill:none;stroke:#ababab;stroke-linecap:round;stroke-linejoin:round;transform-origin:285.64px 64.115px"/><path id="elwqtwrluunab" d="M298.64 66.48v-4.73" class="animable" style="fill:none;stroke:#ababab;stroke-linecap:round;stroke-linejoin:round;transform-origin:298.64px 64.115px"/><path id="elwfm1zgf0ew" d="M311.65 66.48v-4.73" class="animable" style="fill:none;stroke:#ababab;stroke-linecap:round;stroke-linejoin:round;transform-origin:311.65px 64.115px"/><path id="el834czexykum" d="M324.65 66.48v-4.73" class="animable" style="fill:none;stroke:#ababab;stroke-linecap:round;stroke-linejoin:round;transform-origin:324.65px 64.115px"/><path id="ele23kiz35e7c" d="M337.65 66.48v-4.73" class="animable" style="fill:none;stroke:#ababab;stroke-linecap:round;stroke-linejoin:round;transform-origin:337.65px 64.115px"/><path id="el6fnt4awlw48" d="M350.66 66.48v-4.73" class="animable" style="fill:none;stroke:#ababab;stroke-linecap:round;stroke-linejoin:round;transform-origin:350.66px 64.115px"/><path id="elg8wsffxskge" d="M363.66 66.48v-4.73" class="animable" style="fill:none;stroke:#ababab;stroke-linecap:round;stroke-linejoin:round;transform-origin:363.66px 64.115px"/><path id="elbiakzwqaeu4" d="M379.38 48.39h8.72v272.82h-8.72z" class="animable" style="fill:#696969;stroke:#263238;stroke-linecap:round;stroke-linejoin:round;transform-origin:383.74px 184.8px"/><path id="ela5ztguo5u4" d="M379.38 180.87h8.72v23.43h-8.72z" class="animable" style="fill:#263238;stroke:#263238;stroke-linecap:round;stroke-linejoin:round;transform-origin:383.74px 192.585px"/><path id="elaosvhd91tw6" d="M120.91 312.85h267.18v8.36H120.91z" class="animable" style="fill:#696969;stroke:#263238;stroke-linecap:round;stroke-linejoin:round;transform-origin:254.5px 317.03px"/><path id="el7l4qhh8cm6w" d="M129.2 68.12h250.61v244.62H129.2z" class="animable" style="fill:#fff;stroke:#263238;stroke-linecap:round;stroke-linejoin:round;transform-origin:254.505px 190.43px"/><path id="el7nha50ef1al" d="M128.97 235.78h251.08" class="animable" style="fill:#fff;stroke:#263238;stroke-linecap:round;stroke-linejoin:round;transform-origin:254.51px 235.78px"/><path id="elswvrujs6hsb" d="M120.91 48.39h267.18v11.98H120.91z" class="animable" style="fill:#696969;stroke:#263238;stroke-linecap:round;stroke-linejoin:round;transform-origin:254.5px 54.38px"/><path id="el50w8zmg34ou" d="M120.91 48.39h74.02v11.98h-74.02z" class="animable" style="fill:#8a8a8a;stroke:#263238;stroke-linecap:round;stroke-linejoin:round;transform-origin:157.92px 54.38px"/><path id="el9t9m44rzz6" d="M249.15 249.14c-.14-.67-1.14-1.28-2.77-1.55l-1.13-34.4a1.39 1.39 0 0 0-2.77.09l1.12 34.19c-2.21.14-4.07.86-3.88 1.67.37 1.62 9.99 2.68 9.43 0" class="animable" style="fill:#fff;stroke:#263238;stroke-linecap:round;stroke-linejoin:round;transform-origin:244.44px 231.365px"/><path id="ellumj146tg0r" d="M294.08 183.05s4.91 2 3.27 6.14-12.69 18.42-23.34 21.7-19.24 2.05-27.43 2.45-31.11.82-37.25 0a32.3 32.3 0 0 1-9.42-2.45s8.19 3.68 22.93-11.88S240 169.54 262.55 170s31.53 13.05 31.53 13.05" class="animable" style="fill:#fff;stroke:#263238;stroke-linecap:round;stroke-linejoin:round;transform-origin:248.798px 191.9px"/><path id="el3izzlf7enoc" d="M217.1 185.5s-4.91-7.37-12.28-10.23-37.67-9.83-41.76-3.69 7.37 21.7 18.42 30.3 22.52 12.69 33.58 10.24S251.5 183.46 256 181s34.39.41 38.08 2.05c0 0 15.56-52 15.56-55.69s-4.92-2.86-8.6 1.64-24.16 14.74-45.45 7.78S229 116.72 220 124.09s-11.46 27-7 43.4 4.1 18.01 4.1 18.01" class="animable" style="fill:#2c9f45;stroke:#263238;stroke-linecap:round;stroke-linejoin:round;transform-origin:235.926px 167.365px"/><path id="eljf14eeqjcy" d="M194.84 202c-.75-.29-1.52-.6-2.3-.93" class="animable" style="fill:none;stroke:#263238;stroke-linecap:round;stroke-linejoin:round;transform-origin:193.69px 201.535px"/><path id="el4u3etfx8vau" d="M290.39 179.77s-28.66-4.09-34-2.45-15.15 16-27.84 22.51c-10.6 5.47-19.2 6.66-29.62 3.57" class="animable" style="fill:none;stroke:#263238;stroke-linecap:round;stroke-linejoin:round;transform-origin:244.66px 191.003px"/><path id="ellpag9udhpgf" d="M230.33 196.3c.5.24 1 .46 1.51.67" class="animable" style="fill:none;stroke:#263238;stroke-linecap:round;stroke-linejoin:round;transform-origin:231.085px 196.635px"/><path id="el0ggc73zw4xyh" d="M217.1 185.5a46.5 46.5 0 0 0 11.19 9.71" class="animable" style="fill:none;stroke:#263238;stroke-linecap:round;stroke-linejoin:round;transform-origin:222.695px 190.355px"/><path id="elhscksprs2he" d="M198 210.1a1.39 1.39 0 0 0-1.73.92l-16.87 55.06c-3.19.06-5.73 1-5.73 2.18s2.71 2.19 6.05 2.19 6.06-1 6.06-2.19c0-.88-1.45-1.64-3.54-2l16.68-54.44a1.39 1.39 0 0 0-.92-1.72" class="animable" style="fill:#fff;stroke:#263238;stroke-linecap:round;stroke-linejoin:round;transform-origin:186.323px 240.245px"/><path id="elpmxyunv84ne" d="m250.21 284.52-1.55-73.12a1.37 1.37 0 0 0-1.42-1.36 1.39 1.39 0 0 0-1.36 1.42l1.56 73c-2.78.2-4.87 1.09-4.87 2.15s2.71 2.19 6.06 2.19 6.06-1 6.06-2.19c0-.99-1.9-1.84-4.48-2.09" class="animable" style="fill:#fff;stroke:#263238;stroke-linecap:round;stroke-linejoin:round;transform-origin:248.63px 249.42px"/><path id="eljxk0q5jaocn" d="m309.12 265.2-14.61-70.68a1.39 1.39 0 0 0-2.72.56l14.51 70.21c-1.84.25-3.14.89-3.14 1.65 0 1 2.2 1.78 4.92 1.78s4.92-.8 4.92-1.78-1.66-1.57-3.88-1.74" class="animable" style="fill:#fff;stroke:#263238;stroke-linecap:round;stroke-linejoin:round;transform-origin:302.386px 231.096px"/><path id="elwdghyfxzo2l" d="m314.72 163.56-22.64-10.33 10.48 22.57 2.85-7.75 7.64 7.6a1.12 1.12 0 0 0 1.58-1.59l-7.77-7.72Z" class="animable" style="fill:#fff;stroke:#263238;stroke-linecap:round;stroke-linejoin:round;transform-origin:303.52px 164.603px"/><path id="el4xpetbhhn3x" d="M316.51 183.06v.5h-.5" class="animable" style="fill:none;stroke:#263238;stroke-linecap:round;stroke-linejoin:round;stroke-width:.5px;transform-origin:316.26px 183.31px"/><path id="eldu6vcm4ac44" d="M315.11 183.56h-6.74" class="animable" style="fill:none;stroke:#263238;stroke-linecap:round;stroke-linejoin:round;stroke-width:.5px;stroke-dasharray:.898406,.898406;transform-origin:311.74px 183.56px"/><path id="el3jj1hc5gvr7" d="M307.92 183.56h-.5v-.5" class="animable" style="fill:none;stroke:#263238;stroke-linecap:round;stroke-linejoin:round;stroke-width:.5px;transform-origin:307.67px 183.31px"/><path id="elmngo5mal52d" d="M307.42 182.05v-5.61" class="animable" style="fill:none;stroke:#263238;stroke-linecap:round;stroke-linejoin:round;stroke-width:.5px;stroke-dasharray:1.01847,1.01847;transform-origin:307.42px 179.245px"/><path id="elx8zkqjvovvc" d="M307.42 175.94v-.5h.5" class="animable" style="fill:none;stroke:#263238;stroke-linecap:round;stroke-linejoin:round;stroke-width:.5px;transform-origin:307.67px 175.69px"/><path id="elwjr042rdrf" d="M308.82 175.43h6.74" class="animable" style="fill:none;stroke:#263238;stroke-linecap:round;stroke-linejoin:round;stroke-width:.5px;stroke-dasharray:.898406,.898406;transform-origin:312.19px 175.43px"/><path id="eldndn58j6eg" d="M316.01 175.44h.5v.5" class="animable" style="fill:none;stroke:#263238;stroke-linecap:round;stroke-linejoin:round;stroke-width:.5px;transform-origin:316.26px 175.69px"/><path id="elpix11qm7k6" d="M316.51 176.95v5.6" class="animable" style="fill:none;stroke:#263238;stroke-linecap:round;stroke-linejoin:round;stroke-width:.5px;stroke-dasharray:1.01847,1.01847;transform-origin:316.51px 179.75px"/><path id="eluwzrpfcv1pk" d="M311.25 177.83h10.52v10.52h-10.52z" class="animable" style="fill:#fff;stroke:#263238;stroke-linecap:round;stroke-linejoin:round;transform-origin:316.51px 183.09px"/><path id="eljxh3qcdb85o" d="M316.39 179.71v6.26" class="animable" style="fill:none;stroke:#263238;stroke-linecap:round;stroke-linejoin:round;transform-origin:316.39px 182.84px"/><path id="el2oirqq23d0m" d="M313.03 183.06h6.71" class="animable" style="fill:none;stroke:#263238;stroke-linecap:round;stroke-linejoin:round;transform-origin:316.385px 183.06px"/><circle id="elfplaq9mqpsr" cx="164.45" cy="99.19" r="22.76" class="animable" style="fill:#fff;stroke:#263238;stroke-linecap:round;stroke-linejoin:round;transform-origin:164.45px 99.19px"/><circle id="elo190xfw674" cx="164.45" cy="99.19" r="18.08" class="animable" style="fill:#fff;stroke:#263238;stroke-linecap:round;stroke-linejoin:round;transform-origin:164.45px 99.19px"/><circle id="el2ud6e7v4x8s" cx="164.45" cy="99.19" r="1.7" class="animable" style="fill:#fff;stroke:#263238;stroke-linecap:round;stroke-linejoin:round;transform-origin:164.45px 99.19px"/><path id="elfza0nuu187w" d="m166.15 99.19 6.63 2.58" class="animable" style="fill:none;stroke:#263238;stroke-linecap:round;stroke-linejoin:round;transform-origin:169.465px 100.48px"/><path id="eln72r07rqqwf" d="M164.45 97.49V84.66" class="animable" style="fill:none;stroke:#263238;stroke-linecap:round;stroke-linejoin:round;transform-origin:164.45px 91.075px"/></g><g id="freepik--tools-2--inject-2" class="animable" style="animation:1s 1 forwards cubic-bezier(.36,-.01,.5,1.38) slideDown,6s Infinite linear wind;animation-delay:0s,1s;transform-origin:380.68px 113.54px"><path id="ele3z69gjulp8" d="M326.48 77.67h108.39v71.74H326.48z" class="animable" style="fill:#263238;transform-origin:380.675px 113.54px"/><path id="eli8hauhwpnqb" d="M363.21 80.66h71.67v13.79h-71.67z" class="animable" style="fill:#fff;opacity:.1;transform-origin:399.045px 87.555px"/><path id="elnrkph8fjb3b" d="M363.21 94.46V80.67h-36.73v68.74h108.4V94.46z" class="animable" style="fill:#fff;opacity:.2;transform-origin:380.68px 115.04px"/><path id="eleduz16kd0m" d="M413.07 98.36h5.21" class="animable" style="fill:none;stroke:#fff;stroke-linecap:round;stroke-linejoin:round;stroke-width:.5px;transform-origin:415.675px 98.36px"/><path id="elhl1lvmokh1v" d="M413.07 100.35h5.21" class="animable" style="fill:none;stroke:#fff;stroke-linecap:round;stroke-linejoin:round;stroke-width:.5px;transform-origin:415.675px 100.35px"/><path id="el7mdpi7dws3e" d="M413.07 102.33h5.21" class="animable" style="fill:none;stroke:#fff;stroke-linecap:round;stroke-linejoin:round;stroke-width:.5px;transform-origin:415.675px 102.33px"/><path id="elbaq1jglqi3b" d="M413.07 104.32h5.21" class="animable" style="fill:none;stroke:#fff;stroke-linecap:round;stroke-linejoin:round;stroke-width:.5px;transform-origin:415.675px 104.32px"/><path id="elqeu0u15u0z" d="M413.07 106.31h5.21" class="animable" style="fill:none;stroke:#fff;stroke-linecap:round;stroke-linejoin:round;stroke-width:.5px;transform-origin:415.675px 106.31px"/><path id="el7ale0de7iwx" d="M421.32 97.54h9.44v9.44h-9.44z" class="animable" style="fill:#263238;opacity:.8;transform-origin:426.04px 102.26px"/><path id="elc315o761wr4" d="M422.58 98.61h1.88v1.88h-1.88z" class="animable" style="fill:#fff;transform-origin:423.52px 99.55px"/><path id="elk1pxxw0ylb" d="M425.05 98.61h1.88v1.88h-1.88z" class="animable" style="fill:#fff;transform-origin:425.99px 99.55px"/><path id="elzmdkiljbav" d="M427.52 98.61h1.88v1.88h-1.88z" class="animable" style="fill:#fff;transform-origin:428.46px 99.55px"/><path id="ele90eatd97y9" d="M422.58 101.09h1.88v1.88h-1.88z" class="animable" style="fill:#fff;transform-origin:423.52px 102.03px"/><path id="elmt1gl0lina" d="M425.05 101.09h1.88v1.88h-1.88z" class="animable" style="fill:#fff;transform-origin:425.99px 102.03px"/><path id="elbvx8f8a75t7" d="M427.52 101.09h1.88v1.88h-1.88z" class="animable" style="fill:#fff;transform-origin:428.46px 102.03px"/><path id="el4dzrixqtb" d="M422.58 103.56h1.88v1.88h-1.88z" class="animable" style="fill:#fff;transform-origin:423.52px 104.5px"/><path id="elbhg7rtcb3iq" d="M425.05 103.56h1.88v1.88h-1.88z" class="animable" style="fill:#fff;transform-origin:425.99px 104.5px"/><path id="eltg8mb1x65f9" d="M427.52 103.56h1.88v1.88h-1.88z" class="animable" style="fill:#fff;transform-origin:428.46px 104.5px"/><path id="elkk6p5yw90qa" d="M387.45 118.35h12.65v11.35h-12.65z" class="animable" style="fill:#263238;transform-origin:393.775px 124.025px"/><path id="elm4mofhdj74o" d="M346.42 118.35h12.65v11.35h-12.65z" class="animable" style="fill:#263238;transform-origin:352.745px 124.025px"/><path id="elevv6rrl7g2" d="M346.42 118.35h12.65v11.35h-12.65z" class="animable" style="fill:#fff;opacity:.75;transform-origin:352.745px 124.025px"/><path id="elyx5b7uvy7wc" d="M332.75 118.35h12.64v11.35h-12.64z" class="animable" style="fill:#fff;opacity:.75;transform-origin:339.07px 124.025px"/><path id="eljtbw496py6g" d="M373.78 118.35h12.65v11.35h-12.65z" class="animable" style="fill:#263238;transform-origin:380.105px 124.025px"/><path id="elfh8dxzjmxzt" d="M373.78 118.35h12.65v11.35h-12.65z" class="animable" style="fill:#fff;opacity:.15;transform-origin:380.105px 124.025px"/><path id="el3887hfrq5v" d="M360.1 118.35h12.64v11.35H360.1z" class="animable" style="fill:#263238;transform-origin:366.42px 124.025px"/><path id="elsuqcaa6zzcr" d="M360.1 118.35h12.64v11.35H360.1z" class="animable" style="fill:#fff;opacity:.25;transform-origin:366.42px 124.025px"/><path id="elasrvlmcgcur" d="M401.33 130.48h12.56v12.02h-12.56z" class="animable" style="fill:#2c9f45;transform-origin:407.61px 136.49px"/><g id="el2qbr1h51nts" class="animable" style="clip-path:url(#freepik--clip-path--inject-2);transform-origin:407.61px 136.49px"><path id="eldg42n3z8d4m" d="M401.33 130.48h12.56v12.02h-12.56z" class="animable" style="opacity:.5;transform-origin:407.61px 136.49px"/></g><path id="el8vc8vnc94sk" d="M387.61 130.48h12.56v12.02h-12.56z" class="animable" style="fill:#2c9f45;transform-origin:393.89px 136.49px"/><path id="eli3aqlgrqvi" d="M387.61 130.48h12.56v12.02h-12.56z" class="animable" style="opacity:.2;transform-origin:393.89px 136.49px"/><path id="elysncw0ixype" d="M373.9 130.48h12.56v12.02H373.9z" class="animable" style="fill:#2c9f45;transform-origin:380.18px 136.49px"/><path id="elxtyhhwvfpj" d="M360.19 130.48h12.56v12.02h-12.56z" class="animable" style="fill:#2c9f45;transform-origin:366.47px 136.49px"/><path id="elb6fszd8b8qp" d="M360.19 130.48h12.56v12.02h-12.56z" class="animable" style="fill:#2c9f45;opacity:.3;transform-origin:366.47px 136.49px"/><path id="el16vv8a0amk7" d="M346.47 130.48h12.56v12.02h-12.56z" class="animable" style="fill:#2c9f45;transform-origin:352.75px 136.49px"/><path id="elacyzlf8hpua" d="M346.47 130.48h12.56v12.02h-12.56z" class="animable" style="fill:#fff;opacity:.6;transform-origin:352.75px 136.49px"/><path id="elnrgv1lu3wl" d="M332.76 130.48h12.56v12.02h-12.56z" class="animable" style="fill:#fff;transform-origin:339.04px 136.49px"/><path id="elqcyhl7qoym" d="M414.98 130.48h12.56v12.02h-12.56z" class="animable" style="fill:#2c9f45;transform-origin:421.26px 136.49px"/><path id="el193vk1bbmc4" d="M414.98 130.48h12.56v12.02h-12.56z" class="animable" style="opacity:.8;transform-origin:421.26px 136.49px"/><path id="el3hwcd2lh38w" d="M336.74 101.21h8.49v8.12h-8.49z" class="animable" style="fill:none;stroke:#263238;stroke-linecap:round;stroke-linejoin:round;stroke-width:2px;transform-origin:340.985px 105.27px"/><path id="ely4wgap3oiw" d="M332.78 96.63h8.49v8.12h-8.49z" class="animable" style="fill:#2c9f45;transform-origin:337.025px 100.69px"/><path id="elvkaicw220y" d="M332.78 96.63h8.49v8.12h-8.49z" class="animable" style="fill:#2c9f45;opacity:.3;transform-origin:337.025px 100.69px"/><path id="elcjjqwfa42k" d="M334.12 87.86h21.89" class="animable" style="fill:none;stroke:#fff;stroke-linecap:round;stroke-linejoin:round;stroke-width:2px;transform-origin:345.065px 87.86px"/><path id="el7v59e6wejcm" d="M415.22 83.96v.73l1.51 1.27-1.51 1.26v.73l2.37-1.99z" class="animable" style="fill:#fff;transform-origin:416.405px 85.955px"/><path id="el5lqdc2eqlhp" d="M417.81 83.96v.73l1.51 1.27-1.51 1.26v.73l2.37-1.99z" class="animable" style="fill:#fff;transform-origin:418.995px 85.955px"/><path id="elufwxvx1saa" d="M423.18 82.76v6.9" class="animable" style="fill:none;stroke:#fff;stroke-linecap:round;stroke-linejoin:round;stroke-width:.5px;transform-origin:423.18px 86.21px"/><path id="elx4p0t8fdefa" d="M426.18 84.86h5.4" class="animable" style="fill:none;stroke:#fff;stroke-linecap:round;stroke-linejoin:round;stroke-width:.5px;transform-origin:428.88px 84.86px"/><path id="eleqcm3ku48x8" d="M426.18 86.06h5.4" class="animable" style="fill:none;stroke:#fff;stroke-linecap:round;stroke-linejoin:round;stroke-width:.5px;transform-origin:428.88px 86.06px"/><path id="elgmyjb2a7jh5" d="M426.18 87.26h5.4" class="animable" style="fill:none;stroke:#fff;stroke-linecap:round;stroke-linejoin:round;stroke-width:.5px;transform-origin:428.88px 87.26px"/><path id="eltyvpl8e6cl" d="M426.18 88.46h5.4" class="animable" style="fill:none;stroke:#fff;stroke-linecap:round;stroke-linejoin:round;stroke-width:.5px;transform-origin:428.88px 88.46px"/></g><g id="freepik--tools-1--inject-2" class="animable" style="animation:1s 1 forwards cubic-bezier(.36,-.01,.5,1.38) lightSpeedRight,6s Infinite linear wind;animation-delay:0s,1s;transform-origin:107.175px 254.34px"><path id="elwa7chcr96ii" d="M52.98 218.47h108.39v71.74H52.98z" class="animable" style="fill:#263238;transform-origin:107.175px 254.34px"/><path id="elw98pl5dygjm" d="M89.7 221.46h71.67v13.79H89.7z" class="animable" style="fill:#fff;opacity:.1;transform-origin:125.535px 228.355px"/><path id="elmvv8zxku8ms" d="M89.7 235.26v-13.79H52.98v68.73h108.39v-54.94z" class="animable" style="fill:#fff;opacity:.2;transform-origin:107.175px 255.835px"/><path id="elvxgibp7waa" d="M63.24 242.01h8.49v8.12h-8.49z" class="animable" style="fill:none;stroke:#263238;stroke-linecap:round;stroke-linejoin:round;stroke-width:2px;transform-origin:67.485px 246.07px"/><path id="elxt4o1vbr5h" d="M59.28 237.43h8.49v8.12h-8.49z" class="animable" style="fill:#2c9f45;transform-origin:63.525px 241.49px"/><path id="eli9g94oo44jp" d="M59.28 237.43h8.49v8.12h-8.49z" class="animable" style="fill:#2c9f45;opacity:.3;transform-origin:63.525px 241.49px"/><path id="el1l58862n25l" d="M60.61 228.66h21.9" class="animable" style="fill:none;stroke:#fff;stroke-linecap:round;stroke-linejoin:round;stroke-width:2px;transform-origin:71.56px 228.66px"/><path id="elrx52wi13ah" d="M141.72 224.76v.73l1.5 1.27-1.5 1.26v.73l2.37-1.99z" class="animable" style="fill:#fff;transform-origin:142.905px 226.755px"/><path id="el2hgkc6ur75e" d="M144.31 224.76v.73l1.5 1.27-1.5 1.26v.73l2.37-1.99z" class="animable" style="fill:#fff;transform-origin:145.495px 226.755px"/><path id="eldkrckscnu4u" d="M149.68 223.56v6.9" class="animable" style="fill:none;stroke:#fff;stroke-linecap:round;stroke-linejoin:round;stroke-width:.5px;transform-origin:149.68px 227.01px"/><path id="el2ujxdugwx8" d="M152.68 225.66h5.39" class="animable" style="fill:none;stroke:#fff;stroke-linecap:round;stroke-linejoin:round;stroke-width:.5px;transform-origin:155.375px 225.66px"/><path id="el5pqllu4mb0f" d="M152.68 226.86h5.39" class="animable" style="fill:none;stroke:#fff;stroke-linecap:round;stroke-linejoin:round;stroke-width:.5px;transform-origin:155.375px 226.86px"/><path id="eldy72cksz0rc" d="M152.68 228.06h5.39" class="animable" style="fill:none;stroke:#fff;stroke-linecap:round;stroke-linejoin:round;stroke-width:.5px;transform-origin:155.375px 228.06px"/><path id="ell9oakx1fyg" d="M152.68 229.26h5.39" class="animable" style="fill:none;stroke:#fff;stroke-linecap:round;stroke-linejoin:round;stroke-width:.5px;transform-origin:155.375px 229.26px"/><path id="elnvgmz1oyt1" d="M85.49 245.58h44.55" class="animable" style="fill:none;stroke:#9e9e9e;stroke-miterlimit:10;stroke-width:3px;transform-origin:107.765px 245.58px"/><path id="elf5y3w5vwycs" d="m86.72 246.66-1.89 2.23v1.67h3.89v-1.67z" class="animable" style="fill:#8f8f8f;transform-origin:86.775px 248.61px"/><path id="el43xq0mx5vxd" d="M85.49 258.07h44.55" class="animable" style="fill:none;stroke:#2c9f45;stroke-miterlimit:10;stroke-width:3px;transform-origin:107.765px 258.07px"/><path id="elfhkrg0veky" d="m127.65 259.14-1.88 2.24v1.67h3.89v-1.67z" class="animable" style="fill:#8f8f8f;transform-origin:127.715px 261.095px"/><path id="elz1gqfdbo0uo" d="M85.49 270.55h44.55" class="animable" style="fill:none;stroke:#fff;stroke-miterlimit:10;stroke-width:3px;transform-origin:107.765px 270.55px"/><path id="elzajg2jg5qol" d="m85.79 271.63-1.88 2.24v1.67h3.89v-1.67z" class="animable" style="fill:#8f8f8f;transform-origin:85.855px 273.585px"/><path id="el2s88ipqcsz" d="M129.61 279.24h16.42v6.94h-16.42z" class="animable" style="fill:#263238;transform-origin:137.82px 282.71px"/><path id="elj5lrouyvsl" d="M132.15 266.52h13.41v6.94h-13.41z" class="animable" style="fill:#263238;transform-origin:138.855px 269.99px"/><path id="el8j4p2lcgn84" d="M132.15 254.72h13.41v6.94h-13.41z" class="animable" style="fill:#263238;transform-origin:138.855px 258.19px"/><path id="eljgbmqbn1cgn" d="M132.15 242.93h13.41v6.94h-13.41z" class="animable" style="fill:#263238;transform-origin:138.855px 246.4px"/></g><g id="freepik--Character--inject-2" class="animable" style="animation:1s 1 forwards cubic-bezier(.36,-.01,.5,1.38) slideUp,6s Infinite linear shake;animation-delay:0s,2s;transform-origin:301.49px 371.647px"><path id="el9lpibkvuar6" d="M335.45 343.76s-23.1 5.25-30.19 7.35-13.65 3.68-12.34 6.83-7.09 29.4-7.09 29.4L274 416l16.8 13.13 13.39-26 12.07 59.07h81.13s-2.36-98.45-6.3-103.43-35.18-15.76-42.8-16.54a27.14 27.14 0 0 0-12.84 1.53" class="animable" style="fill:#2c9f45;stroke:#263238;stroke-linecap:round;stroke-linejoin:round;transform-origin:335.695px 402.114px"/><path id="elgbev6lwc24" d="M373.64 400.36a177 177 0 0 1-8.88-23.1" class="animable" style="fill:none;stroke:#263238;stroke-linecap:round;stroke-linejoin:round;transform-origin:369.2px 388.81px"/><path id="el3w2tl9rhppn" d="M366.11 398.22a17.17 17.17 0 0 0 10.64 6.14" class="animable" style="fill:none;stroke:#263238;stroke-linecap:round;stroke-linejoin:round;transform-origin:371.43px 401.29px"/><path id="eli577sddapdb" d="M363 392.81a16.4 16.4 0 0 0 1.54 3.17" class="animable" style="fill:none;stroke:#263238;stroke-linecap:round;stroke-linejoin:round;transform-origin:363.77px 394.395px"/><path id="el38ys303dtln" d="m299.71 378.65 4.5 24.44-8.21-24.45" class="animable" style="fill:none;stroke:#263238;stroke-linecap:round;stroke-linejoin:round;transform-origin:300.105px 390.865px"/><path id="el3shof85is46" d="m298.14 370.1.94 5.14" class="animable" style="fill:none;stroke:#263238;stroke-linecap:round;stroke-linejoin:round;transform-origin:298.61px 372.67px"/><path id="elpph7qs6crel" d="M324.77 342.2s-5.95 7.19-6.44 14.13.68 29 .68 29 12.21-6.68 17.17-6.68 16.36 9.67 16.36 9.67 7.69-24.79 3.72-39.42-21.07-18.36-31.49-6.7" class="animable" style="fill:#fff;stroke:#263238;stroke-linecap:round;stroke-linejoin:round;transform-origin:337.804px 361.814px"/><path id="el65fbyxn2x4o" d="M325.27 344.68s2 9.17 3.47 15.12 5.45 19.83 7.44 18.84 10.66-21.57 10.91-26.77c.1-2.25 4.57-12.7.62-15.37-5.21-3.5-19.48 1.5-22.44 8.18" class="animable" style="fill:#fff;stroke:#263238;stroke-linecap:round;stroke-linejoin:round;transform-origin:337.304px 357.02px"/><path id="elgj71lgw26c" d="M328.74 359.8c.38 1.51.91 3.53 1.54 5.68 1.26-1.09 2.74-2.4 4.49-4 9.64-8.81 11.74-15.93 11.74-15.93l-20.59 2.1c.71 3.19 1.87 8.35 2.82 12.15Z" class="animable" style="fill:#263238;stroke:#263238;stroke-linecap:round;stroke-miterlimit:10;transform-origin:336.215px 355.515px"/><path id="ell9l4u5c964" d="M294.23 422.52s-1.57-6.3-10.5-9.71-10-1.84-11.29.79-5.25 6.56-4.46 9.18 3.94 8.93 15.49 11.29 9.19-3.41 10.5-5 2.62-.77.26-6.55" class="animable" style="fill:#fff;stroke:#263238;stroke-linecap:round;stroke-linejoin:round;transform-origin:281.706px 422.743px"/><path id="elowhv3ktsd2d" d="M208.38 446.91s-11.81 3.94-11.29 6.57 11.55-3.15 11.55-3.15 1.84 3.41 5.26 2.1.52-6.57-1.32-6.3-4.2.78-4.2.78" class="animable" style="fill:#fff;stroke:#263238;stroke-linecap:round;stroke-linejoin:round;transform-origin:206.28px 450.143px"/><path id="elzp1ukg112k" d="M271.65 444.81s16-8.66 16-12.86-12.08-9.71-15.23-9.45-4.46 1.31-6.82 5.25-21.53 21.79-21.53 21.79-12.6-8.93-16.28-8.93-12.08 9.72-12.6 13.66 17.35 5.73 24.43 5.73c8.73 0 32.03-15.19 32.03-15.19" class="animable" style="fill:#fff;stroke:#263238;stroke-linecap:round;stroke-linejoin:round;transform-origin:251.414px 441.246px"/><path id="elmizef7kf8uj" d="M233.1 453.82s-9.89-11.15-22.62-6.05-11.59 13.7-11.59 13.7h37a10.2 10.2 0 0 0-2.79-7.65" class="animable" style="fill:#fff;stroke:#263238;stroke-linecap:round;stroke-linejoin:round;transform-origin:217.386px 453.952px"/><path id="elp34x4lez4vq" d="M214 440.54s-4.55.72-5.35 1.85-5.69 7.7-4 9.1 6.71-6.48 7.79-7.08 2.88-2.12 1.56-3.87" class="animable" style="fill:#fff;stroke:#263238;stroke-linecap:round;stroke-linejoin:round;transform-origin:209.381px 446.098px"/><path id="elzt70myswdyo" d="M218.28 441.56s-1.91-2.84-4.27-1-6 9.65-5.69 11.58 3 .87 4.28-.57 5.68-10.01 5.68-10.01" class="animable" style="fill:#fff;stroke:#263238;stroke-linecap:round;stroke-linejoin:round;transform-origin:213.291px 446.564px"/><path id="elnyqcnrfcukm" d="M229.39 442.19s-5-4.2-7.88-4.46-3.94 1.83-4.2 4.2-3.94 13.12-2.89 13.65 3.15.26 4.46-2.1a103 103 0 0 0 3.94-10l2.1 1.58" class="animable" style="fill:#fff;stroke:#263238;stroke-linecap:round;stroke-linejoin:round;transform-origin:221.811px 446.759px"/><path id="elg96utj12v6d" d="M233.67 448.47s-.85 2.26-1.7 4.24-15 4.52-15.55 7.07 8.2.84 11.31.84 8.76.85 12.16-2a31.4 31.4 0 0 1 4.52-3.4" class="animable" style="fill:#fff;stroke:#263238;stroke-linecap:round;stroke-linejoin:round;transform-origin:230.403px 454.826px"/><path id="el8y6tj7bxguk" d="M376.93 370a67.6 67.6 0 0 0-4.2 8.67c-1.05 3.15 1.84 42 1.84 42a21.44 21.44 0 0 1 10.76-.52c5.51 1.31 16.54 7.35 16.54 7.35s1.05-11.29-.79-19.69-5.25-42.27-7.61-45.68-1.57-5.25-6.56-3.41" class="animable" style="fill:#2c9f45;stroke:#263238;stroke-linecap:round;stroke-linejoin:round;transform-origin:387.334px 392.746px"/><path id="el9c7qnzgsazv" d="M405.55 421s-7.09-6-12.6-7.35-16 0-17.59.52-2.63 2.36-2.89 5-2.1 4.46-.79 6 8.66 6.56 14.7 8.14 15.23 1 16.54-2.89 3.94-6.59 2.63-9.42" class="animable" style="fill:#fff;stroke:#263238;stroke-linecap:round;stroke-linejoin:round;transform-origin:388.56px 423.598px"/><path id="eloyu20fm8xzo" d="M264.94 442.18s-8.45 3.62-11.17 4.53-3.63 3.4-1.2 4.22 13.45-3.31 14.49-3 12.38 3.93 16 4.23a10.5 10.5 0 0 0 6.64-2.16s-17.21-10.84-24.76-7.82" class="animable" style="fill:#fff;stroke:#263238;stroke-linecap:round;stroke-linejoin:round;transform-origin:270.43px 446.906px"/><path id="el1a6eamqvh3m" d="M394.26 437.77a7.54 7.54 0 0 0 1.43-13.69 23 23 0 0 0-5.9-2.35 33.2 33.2 0 0 0-18.9 1c-2.62 1.05-61.56 19.1-65.79 19.7s-32-8.76-36.23-9.06c-5.6-.4-12.07 14.39-13.88 18.33a4.5 4.5 0 0 0-.56 2 1.63 1.63 0 0 0 1.18 1.59c.8.14 1.49-.53 2-1.16 3.73-4.65 5.78-10.73 10.49-14.4l-6.53 12.61a5.4 5.4 0 0 0-.76 2.17 1.87 1.87 0 0 0 1.05 1.88c1 .37 2.05-.54 2.68-1.44a61 61 0 0 0 3.56-6.83c1.19-2.28 2.78-4.49 5.09-5.6a70.3 70.3 0 0 0-6.19 14.04 1.64 1.64 0 0 0 .79 2c1 .45 1.79-.54 2.28-1.39l7-12.25q-2.78 6.34-5 12.89a1.56 1.56 0 0 0-.12.92 1.09 1.09 0 0 0 .64.67 2.27 2.27 0 0 0 2.34-.54 6.5 6.5 0 0 0 1.35-2.13c1.26-2.77 2.15-5.72 3.46-8.43 3.62.77 6.64 4.15 10.6 4.76s11.17-1.21 11.17-1.21 72-9.89 81.49-11.73a114 114 0 0 0 11.26-2.35" class="animable" style="fill:#fff;stroke:#263238;stroke-linecap:round;stroke-linejoin:round;transform-origin:326.941px 440.166px"/><path id="elatxu6ewb7fs" d="M353.75 312.44a4.78 4.78 0 0 1 5.7.64c1.58 1.53 1.18 6.91.64 10.41-1 6.85-6 8.84-6 8.84s-7.3 16.39-13.44 22-13.32 7.5-22.28-5.89c-3.94-5.9-9.89-34-9.89-34s-2.22-6.54 1.13-12 14.19-10.44 21.32-10.81 13.24 4 16.8 7.82 5.38 9.89 5.38 9.89l.45 3.21Z" class="animable" style="fill:#fff;stroke:#263238;stroke-miterlimit:10;transform-origin:334.163px 325.099px"/><path id="els4spukttex" d="M330 321.59c.15 1.13.74 2 1.31 1.92s.9-1.06.75-2.2-.74-2-1.3-1.92-.95 1.06-.76 2.2" class="animable" style="fill:#263238;transform-origin:331.024px 321.45px"/><path id="elcb0jrlbpgtw" d="M316.76 323.66c.15 1.14.73 2 1.3 1.92s.91-1.05.75-2.19-.73-2-1.3-1.92-.9 1.06-.75 2.19" class="animable" style="fill:#263238;transform-origin:317.787px 323.525px"/><path id="elbiz9qyo2t0t" d="M335.17 314.3a8 8 0 0 0-7.55-1.43" class="animable" style="fill:none;stroke:#263238;stroke-linecap:round;stroke-miterlimit:10;stroke-width:2px;transform-origin:331.395px 313.39px"/><path id="elhp8o63wbdns" d="M319.08 316.39a5.94 5.94 0 0 0-5.72 3.59" class="animable" style="fill:none;stroke:#263238;stroke-linecap:round;stroke-miterlimit:10;stroke-width:2px;transform-origin:316.22px 318.182px"/><path id="eljlwdd37wdl" d="M322.92 319s1.28 10.26 1.68 12.61-2 4.36-.94 5.89 3.35.85 3.35.85" class="animable" style="fill:none;stroke:#263238;stroke-linecap:round;stroke-miterlimit:10;transform-origin:324.965px 328.75px"/><path id="elaqh62j38cw5" d="M328.46 343.14s5.87-.29 8.55-4.58" class="animable" style="fill:none;stroke:#263238;stroke-linecap:round;stroke-miterlimit:10;transform-origin:332.735px 340.85px"/><path id="eldwhtbezv29r" d="M334.25 283.3s-11.76-4.21-20.19-1-7.88 7.76-12.94 10.18-11.3 5.9-9.69 13.42c1.12 5.21 8.41 10 17.05 8.51s18.95-8.24 22-9.88a72 72 0 0 1 9.22-3.53s.54 8.55 3.87 10 4.36 2.93 5 4.53a39 39 0 0 0 2.81 4.91l2.72-.13-.5-4.88a27.45 27.45 0 0 0 1.62-14.91c-1.59-7.68-10.39-12.58-10.39-12.58Z" class="animable" style="fill:#263238;transform-origin:323.39px 300.767px"/><path id="elrf54bgu99zn" d="M306.34 311.53s14.71-2.7 23.74-11.3-3.67-13.91-3.67-13.91" class="animable" style="fill:none;stroke:#fff;stroke-linecap:round;stroke-miterlimit:10;stroke-width:.431737px;transform-origin:319.831px 298.925px"/><path id="elw610ryfkg6" d="M328.35 284.72c1.11-.42 13.09 3 13.24 8.94s-3.41 7.71-3.41 7.71" class="animable" style="fill:none;stroke:#fff;stroke-linecap:round;stroke-miterlimit:10;stroke-width:.431737px;transform-origin:334.972px 293.028px"/></g><g id="freepik--Plant--inject-2" class="animable" style="animation:1s 1 forwards cubic-bezier(.36,-.01,.5,1.38) lightSpeedRight;animation-delay:0s;transform-origin:88.6576px 416.954px"><path id="elhrd2ue6ou8" d="M64.29 389.87c1.55.68 5.36.59 5.36.59s-.82-2.49-.89-2.64c-.83-1.75-3.48-4.63-5.62-4.34a2.56 2.56 0 0 0-2.06 3.21c.35 1.49 1.92 2.6 3.21 3.18" class="animable" style="fill:#263238;transform-origin:65.3187px 386.962px"/><path id="elwni0r2wr2q" d="M114.13 376.91c-2.15-.23-4.71 2.73-5.5 4.49-.07.16-.86 2.67-.82 2.67-.41.46-.84 1-1.3 1.52-.85 1-1.79 2.21-2.73 3.57a45 45 0 0 0-2.83 4.5 34 34 0 0 0-2.41 5.43v.07-2.54c-.25-1.92-1.85-5.49-4-5.88a2.57 2.57 0 0 0-3 2.41c-.12 1.53 1 3.05 2.06 4s4.6 2.13 4.87 2.22a44 44 0 0 0-1.43 5.89c-.21 1.16-.38 2.33-.54 3.51v-1.11c-.25-1.92-1.85-5.48-4-5.87a2.56 2.56 0 0 0-3 2.41c-.12 1.52 1 3 2.06 4a17 17 0 0 0 4.72 2.18c-.06.45-.12.9-.17 1.36-.26 2.17-.51 4.34-.82 6.47-.11.75-.25 1.48-.38 2.21v-1c-.24-1.92-1.85-5.48-4-5.88A2.56 2.56 0 0 0 88 416c-.13 1.52 1 3.05 2.06 4a16 16 0 0 0 4.57 2.13c-.15.75-.31 1.5-.5 2.22-.14.48-.24 1-.4 1.44s-.31 1-.46 1.43c-.33.89-.66 1.82-1 2.68-.23.61-.46 1.18-.7 1.75.12-.74.32-2.2.32-2.32a9.94 9.94 0 0 0-1.33-4.85 3.6 3.6 0 0 0 0-.57 2.55 2.55 0 0 0-3.13-2.17c-2.1.55-3.43 4.23-3.53 6.16 0 .12.07 1.36.13 2.15-.1-.46-.2-.9-.32-1.37-.22-.93-.46-1.84-.72-2.83-.15-.48-.29-.95-.44-1.44s-.34-1-.5-1.46c-.42-1.14-.89-2.26-1.4-3.39a16.7 16.7 0 0 0 4.84-1.81c1.14-.88 2.36-2.32 2.35-3.85a2.57 2.57 0 0 0-2.84-2.59c-2.16.24-4 3.67-4.42 5.57 0 .12-.15 1.51-.21 2.27-.3-.67-.61-1.35-.94-2-1-1.94-2-3.87-3-5.81-.32-.59-.62-1.18-.93-1.77.29-.07 3.72-.87 5-1.86s2.36-2.32 2.35-3.85a2.56 2.56 0 0 0-2.77-2.62c-2.16.23-4 3.66-4.42 5.56 0 .14-.21 2.15-.23 2.66-.68-1.31-1.34-2.62-2-3.93a46 46 0 0 1-2.04-5.53c.13 0 3.72-.84 5-1.86 1.15-.88 2.36-2.32 2.35-3.85A2.57 2.57 0 0 0 76 391.7c-2.15.24-4 3.67-4.42 5.57 0 .15-.22 2.3-.23 2.7 0-.11-.08-.22-.11-.33a33.4 33.4 0 0 1-1.1-5.77c-.12-1.08-.17-2.11-.2-3.12.68-.08 3.8-.5 5.09-1.28s2.6-2.05 2.76-3.57a2.58 2.58 0 0 0-2.46-2.9c-2.17 0-4.4 3.21-5 5 0 .1-.25 1.15-.4 1.92v-1.36c0-1.64.11-3.14.21-4.47.07-.75.14-1.43.22-2.07.62-.43 3.13-2.2 3.9-3.47s1.37-3 .81-4.44a2.57 2.57 0 0 0-3.53-1.45c-1.93 1-2.44 4.88-2.12 6.78 0 .17.76 2.7.79 2.68-.09.61-.17 1.27-.25 2-.13 1.33-.27 2.83-.3 4.48a44 44 0 0 0 .12 5.31 33 33 0 0 0 1 5.87.2.2 0 0 0 0 .07c-.34-.54-1.35-2-1.44-2.11-1.26-1.46-4.57-3.55-6.57-2.7a2.57 2.57 0 0 0-1.13 3.65c.73 1.34 2.5 2 3.93 2.21 1.61.23 5-.75 5.28-.83a46 46 0 0 0 2.06 5.7c.47 1.08 1 2.15 1.49 3.23-.31-.46-.59-.86-.64-.91-1.26-1.47-4.57-3.55-6.57-2.7a2.57 2.57 0 0 0-1.1 3.61c.73 1.34 2.5 2 3.93 2.21s4.36-.57 5.13-.78c.2.41.4.82.61 1.22 1 2 2 3.91 2.88 5.85.33.69.62 1.37.91 2.06-.27-.4-.51-.74-.55-.79-1.27-1.46-4.57-3.55-6.57-2.7a2.57 2.57 0 0 0-1.14 3.65c.74 1.34 2.5 2 3.94 2.21a16.5 16.5 0 0 0 5-.75c.28.71.56 1.42.8 2.12.15.49.34.94.46 1.43s.27 1 .4 1.44c.23.93.46 1.89.65 2.79.14.64.27 1.24.39 1.85-.31-.69-1-2-1-2.12-1-1.64-4-4.2-6.08-3.66a2.56 2.56 0 0 0-1.68 3.43 5.38 5.38 0 0 0 3.55 2.78c1.53.46 4.9 0 5.32 0 .2 1 .39 2 .55 2.92.24 1.4.45 2.69.62 3.87h-2v23.47h9.33V438h-1.23c.37-.85.75-1.74 1.14-2.71s.8-2 1.21-3.07c.41.09 3.74.76 5.3.41s3.12-1.11 3.75-2.51a2.56 2.56 0 0 0-1.42-3.54c-2.05-.69-5.19 1.64-6.34 3.2-.07.09-.69 1.17-1.07 1.86l.49-1.32c.32-.89.62-1.79.95-2.76.14-.48.29-1 .43-1.44s.26-1 .39-1.5c.28-1.17.5-2.38.7-3.59.79.28 3.58 1.26 5 1.15s3.25-.63 4.09-1.91a2.56 2.56 0 0 0-.86-3.72c-1.93-1-5.38.84-6.76 2.2-.08.09-1 1.18-1.42 1.79.11-.73.23-1.46.32-2.21.27-2.15.47-4.33.68-6.51l.21-2c.28.11 3.58 1.34 5.2 1.22 1.44-.1 3.25-.63 4.09-1.91a2.57 2.57 0 0 0-.86-3.72c-1.93-1-5.38.84-6.76 2.2-.1.11-1.36 1.68-1.66 2.09.16-1.46.33-2.92.55-4.35a46.5 46.5 0 0 1 1.25-5.73c.13.05 3.57 1.35 5.23 1.23 1.44-.1 3.25-.63 4.09-1.91a2.57 2.57 0 0 0-.87-3.72c-1.92-1-5.38.84-6.75 2.2-.11.11-1.46 1.8-1.68 2.13 0-.11.05-.23.09-.34a32.6 32.6 0 0 1 2.26-5.41c.5-1 1-1.86 1.55-2.72.62.3 3.45 1.68 5 1.74s3.31-.27 4.28-1.46a2.57 2.57 0 0 0-.45-3.79c-1.81-1.2-5.44.25-7 1.45l-1.39 1.39c.25-.39.49-.79.74-1.15.9-1.37 1.82-2.56 2.64-3.61.47-.6.9-1.12 1.32-1.61.76 0 3.83-.11 5.17-.74a5.35 5.35 0 0 0 3.12-3.26 2.57 2.57 0 0 0-2.13-3.13m-23.86 57.91c-.51 1.16-1 2.23-1.45 3.21h-3.25c-.21-1.24-.45-2.61-.75-4.11-.2-1-.44-2.11-.69-3.23a28 28 0 0 0 3-1.39 18.9 18.9 0 0 0 4.32 2.79c-.45.91-.8 1.91-1.18 2.73" class="animable" style="fill:#263238;transform-origin:88.8025px 416.954px"/><path id="elh8kuwj3r7t4" d="M102.78 390.7s.69-2.53.71-2.69c.27-1.92-.34-5.78-2.3-6.72a2.56 2.56 0 0 0-3.49 1.54c-.52 1.44.14 3.2.93 4.42.92 1.42 4.14 3.45 4.15 3.45" class="animable" style="fill:#263238;transform-origin:100.533px 385.881px"/></g><g id="freepik--Device--inject-2" class="animable" style="animation:1s 1 forwards cubic-bezier(.36,-.01,.5,1.38) slideUp;animation-delay:0s;transform-origin:204.37px 422.5px"><path id="elajpsm1r1nbo" d="M221.3 458.23h67.28v3.52H221.3z" class="animable" style="fill:#fff;stroke:#263238;stroke-linecap:round;stroke-linejoin:round;transform-origin:254.94px 459.99px;transform:rotate(180deg)"/><path id="elzp2ue9ajqzo" d="M186.99 458.23h84.19v3.52h-84.19z" class="animable" style="fill:#fff;stroke:#263238;stroke-linecap:round;stroke-linejoin:round;transform-origin:229.085px 459.99px;transform:rotate(180deg)"/><path id="elh6gfrxd4g4f" d="M155.99 459.4h46.6v2.17h-46.6z" class="animable" style="fill:#fff;stroke:#263238;stroke-linecap:round;stroke-linejoin:round;transform-origin:179.29px 460.485px;transform:rotate(180deg)"/><path id="elersw4ybvsj9" d="M120.16 382.45H220.6v64.77H120.16z" class="animable" style="fill:#fff;stroke:#263238;stroke-linecap:round;stroke-linejoin:round;transform-origin:170.38px 414.835px;transform:rotate(180deg)"/><path id="el1qq3b72y4az" d="M120.16 382.45h94.95v64.77h-94.95z" class="animable" style="fill:#263238;stroke:#263238;stroke-linecap:round;stroke-linejoin:round;transform-origin:167.635px 414.835px;transform:rotate(180deg)"/><path id="el3e0w9jsf2sy" d="M154.92 412.55h21.97v50h-21.97z" class="animable" style="fill:#fff;stroke:#263238;stroke-linecap:round;stroke-linejoin:round;transform-origin:165.905px 437.55px;transform:rotate(180deg)"/><path id="el75f0wk5x603" d="M152.89 412.55h21.97v50h-21.97z" class="animable" style="fill:#263238;stroke:#263238;stroke-linecap:round;stroke-linejoin:round;transform-origin:163.875px 437.55px;transform:rotate(180deg)"/><path id="elyoder4qj4ye" d="M176.32 413.14h-23.94v34.24" class="animable" style="fill:none;stroke:#fff;stroke-linecap:round;stroke-linejoin:round;transform-origin:164.35px 430.26px"/></g><g id="freepik--Table--inject-2" class="animable" style="animation:1s 1 forwards cubic-bezier(.36,-.01,.5,1.38) lightSpeedLeft,6s Infinite linear shake;animation-delay:0s,1s;transform-origin:258.16px 465.7px"><path id="eliz5j8jm226f" d="M96.37 461.73h352.96v7.94H96.37z" class="animable" style="fill:#fff;stroke:#263238;stroke-linecap:round;stroke-linejoin:round;transform-origin:272.85px 465.7px;transform:rotate(180deg)"/><path id="elwctmrt92xhd" d="M66.99 461.73h255.65v7.94H66.99z" class="animable" style="fill:#263238;stroke:#263238;stroke-linecap:round;stroke-linejoin:round;transform-origin:194.815px 465.7px;transform:rotate(180deg)"/></g><defs><filter id="active" height="200%"><feMorphology in="SourceAlpha" operator="dilate" radius="2" result="DILATED"/><feFlood flood-color="#32dfec" flood-opacity="1" result="PINK"/><feComposite in="PINK" in2="DILATED" operator="in" result="OUTLINE"/><feMerge><feMergeNode in="OUTLINE"/><feMergeNode in="SourceGraphic"/></feMerge></filter><filter id="hover" height="200%"><feMorphology in="SourceAlpha" operator="dilate" radius="2" result="DILATED"/><feFlood flood-color="red" flood-opacity=".5" result="PINK"/><feComposite in="PINK" in2="DILATED" operator="in" result="OUTLINE"/><feMerge><feMergeNode in="OUTLINE"/><feMergeNode in="SourceGraphic"/></feMerge><feColorMatrix values="0 0 0 0 0 0 1 0 0 0 0 0 0 0 0 0 0 0 1 0"/></filter></defs><defs><clipPath id="freepik--clip-path--inject-2"><path d="M401.33 130.48h12.56v12.02h-12.56z" style="fill:#2c9f45"/></clipPath></defs></svg>