<svg xmlns="http://www.w3.org/2000/svg" id="freepik_stories-weather" class="animated" viewBox="0 0 500 500"><style>@keyframes slideLeft{0%{opacity:0;transform:translateX(-30px)}to{opacity:1;transform:translateX(0)}}@keyframes wind{0%{transform:rotate(0deg)}25%{transform:rotate(1deg)}75%{transform:rotate(-1deg)}}@keyframes lightSpeedRight{0%{transform:translate3d(50%,0,0) skewX(-20deg);opacity:0}60%{transform:skewX(10deg);opacity:1}80%{transform:skewX(-2deg)}to{opacity:1;transform:translate3d(0,0,0)}}@keyframes slideUp{0%{opacity:0;transform:translateY(30px)}to{opacity:1;transform:inherit}}@keyframes floating{0%,to{opacity:1;transform:translateY(0)}50%{transform:translateY(-10px)}}@keyframes fadeIn{0%{opacity:0}to{opacity:1}}@keyframes shake{10%,90%{transform:translate3d(-1px,0,0)}20%,80%{transform:translate3d(2px,0,0)}30%,50%,70%{transform:translate3d(-4px,0,0)}40%,60%{transform:translate3d(4px,0,0)}}@keyframes zoomOut{0%{opacity:0;transform:scale(1.5)}to{opacity:1;transform:scale(1)}}svg#freepik_stories-weather:not(.animated) .animable{opacity:0}</style><g id="freepik--background-simple--inject-61" class="animable" style="animation:1s 1 forwards cubic-bezier(.36,-.01,.5,1.38) slideLeft,3s Infinite linear wind;animation-delay:0s,1s;transform-origin:247.981px 237.612px"><path id="elkc7yregas2c" d="M50.23 279.56s11 69.58 74.91 108.08 144.86 30.64 210.6 26S446.91 365 447.45 307.93s-51.31-66.56-86.3-126.55-35.21-81.28-97.29-112.54-148.52 5.26-187 78.95-26.63 131.77-26.63 131.77" class="animable" style="fill:#2c9f45;transform-origin:247.981px 237.612px"/><path id="elrtyj18uck5" d="M50.23 279.56s11 69.58 74.91 108.08 144.86 30.64 210.6 26S446.91 365 447.45 307.93s-51.31-66.56-86.3-126.55-35.21-81.28-97.29-112.54-148.52 5.26-187 78.95-26.63 131.77-26.63 131.77" class="animable" style="fill:#fff;opacity:.7;transform-origin:247.981px 237.612px"/></g><g id="freepik--Floor--inject-61" class="animable" style="animation:1s 1 forwards cubic-bezier(.36,-.01,.5,1.38) lightSpeedRight;animation-delay:0s;transform-origin:244.514px 425.985px"><path id="el9fkjrzznjj" d="M51.83 435s-13.07 7.31 94.07-4.57 187.27-21.92 235.18-11 56.62 17.36 56.62 17.36" class="animable" style="fill:none;stroke:#263238;stroke-linecap:round;stroke-miterlimit:10;transform-origin:244.514px 425.985px"/></g><g id="freepik--Mountain--inject-61" class="animable" style="animation:1s 1 forwards cubic-bezier(.36,-.01,.5,1.38) slideUp;animation-delay:0s;transform-origin:255.755px 255.902px"><path id="eli6le1m75dlc" d="M53.72 336.25s196.75-164.14 211.5-160.64 145.67 123 145.67 123l46.9-11.71" class="animable" style="fill:none;stroke:#263238;stroke-linecap:round;stroke-miterlimit:10;transform-origin:255.755px 255.902px"/></g><g id="freepik--Device--inject-61" class="animable" style="animation:1s 1 forwards cubic-bezier(.36,-.01,.5,1.38) slideUp,3s Infinite linear floating;animation-delay:0s,1s;transform-origin:163.055px 241.7px"><rect id="el86sg3i1srp7" width="176.29" height="333" x="74.91" y="75.2" class="animable" rx="7.67" style="fill:#fff;stroke:#263238;stroke-linecap:round;stroke-linejoin:round;transform-origin:163.055px 241.7px"/><path id="elj0te9gn4qqj" d="M82.74 111.77h160.62v259.87H82.74z" class="animable" style="fill:#263238;transform-origin:163.05px 241.705px"/><g id="elcn85lglgx8p" class="animable" style="clip-path:url(#freepik--clip-path--inject-61);transform-origin:168.5px 327.975px"><path id="elaih8qz8x60l" d="M243.37 284.32 93.63 371.63h149.74z" class="animable" style="fill:#fff;opacity:.3;transform-origin:168.5px 327.975px"/></g><path id="elx1kp8b2nsr" d="M82.74 111.77h160.62v259.87H82.74z" class="animable" style="fill:none;stroke:#263238;stroke-linecap:round;stroke-linejoin:round;transform-origin:163.05px 241.705px"/><path id="el6t7n59xmoxx" d="M180.52 93.58h-34.93a2.39 2.39 0 0 1-2.38-2.38 2.39 2.39 0 0 1 2.38-2.39h34.93a2.39 2.39 0 0 1 2.38 2.39 2.39 2.39 0 0 1-2.38 2.38" class="animable" style="fill:#263238;transform-origin:163.055px 91.195px"/><path id="elzcvl0zmqkm" d="M172.58 386.31a9.53 9.53 0 1 0-9.53 9.52 9.53 9.53 0 0 0 9.53-9.52Z" class="animable" style="fill:#fff;stroke:#263238;stroke-linecap:round;stroke-miterlimit:10;stroke-width:.704333px;transform-origin:163.05px 386.3px"/><path id="elrlfdbyn1zqf" d="M158.23 381.48h9.65v9.65h-9.65z" class="animable" style="fill:#263238;transform-origin:163.055px 386.305px"/><path id="eltxknpcsr96" d="M189 169.39a3 3 0 0 0 3-2.4 15.7 15.7 0 0 0 .28-2.93 16 16 0 0 0-15.09-15.92 16 16 0 0 0-31.19 4.91c0 .44 0 .86.07 1.29H146a12.11 12.11 0 0 0-12.11 12.11 3 3 0 0 0 3 2.91Z" class="animable" style="fill:none;stroke:#fff;stroke-linecap:round;stroke-miterlimit:10;transform-origin:163.085px 153.278px"/><path id="elheju4pxto6i" d="M152.59 172.32v13.96" class="animable" style="fill:none;stroke:#fff;stroke-linecap:round;stroke-miterlimit:10;transform-origin:152.59px 179.3px"/><path id="elr8g88m2y97o" d="M159.57 179.3h-13.95" class="animable" style="fill:none;stroke:#fff;stroke-linecap:round;stroke-miterlimit:10;transform-origin:152.595px 179.3px"/><path id="el7njla33ncmq" d="m156.26 175.63-7.34 7.34" class="animable" style="fill:none;stroke:#fff;stroke-linecap:round;stroke-miterlimit:10;transform-origin:152.59px 179.3px"/><path id="elnnyutjr16g" d="m156.26 182.97-7.34-7.34" class="animable" style="fill:none;stroke:#fff;stroke-linecap:round;stroke-miterlimit:10;transform-origin:152.59px 179.3px"/><path id="elnixltxsb9xi" d="M166.54 185.91v9.54" class="animable" style="fill:none;stroke:#fff;stroke-linecap:round;stroke-miterlimit:10;transform-origin:166.54px 190.68px"/><path id="elhnrnlyiwto7" d="M171.31 190.68h-9.54" class="animable" style="fill:none;stroke:#fff;stroke-linecap:round;stroke-miterlimit:10;transform-origin:166.54px 190.68px"/><path id="el18sy1zus75g" d="m169.05 188.17-5.02 5.02" class="animable" style="fill:none;stroke:#fff;stroke-linecap:round;stroke-miterlimit:10;transform-origin:166.54px 190.68px"/><path id="elk96n8ynla3p" d="m169.05 193.19-5.02-5.02" class="animable" style="fill:none;stroke:#fff;stroke-linecap:round;stroke-miterlimit:10;transform-origin:166.54px 190.68px"/><path id="elpw54d4fyccm" d="M176.09 171.59v9.55" class="animable" style="fill:none;stroke:#fff;stroke-linecap:round;stroke-miterlimit:10;transform-origin:176.09px 176.365px"/><path id="elav6tox0z9ml" d="M180.86 176.36h-9.55" class="animable" style="fill:none;stroke:#fff;stroke-linecap:round;stroke-miterlimit:10;transform-origin:176.085px 176.36px"/><path id="el3b1766fylrp" d="m178.6 173.85-5.02 5.02" class="animable" style="fill:none;stroke:#fff;stroke-linecap:round;stroke-miterlimit:10;transform-origin:176.09px 176.36px"/><path id="el5xqdwoijck7" d="m178.6 178.87-5.02-5.02" class="animable" style="fill:none;stroke:#fff;stroke-linecap:round;stroke-miterlimit:10;transform-origin:176.09px 176.36px"/><path id="elhewyfnyi0th" d="M139.74 215.45q0-9.25 1.94-11.39a7.7 7.7 0 0 1 1.5-1.31 7.53 7.53 0 0 1 4.09-.94q6.49 0 6.5 10.95A22.75 22.75 0 0 1 151 223.5c-.82 1.53-1.66 3-2.49 4.5a30.5 30.5 0 0 0-4 10.34h8.65v3.48H140v-2.2q0-4.47 4.5-13.19l1.46-2.82c1-1.85 1.54-2.92 1.73-3.19a12.8 12.8 0 0 0 1.2-3.66 23.4 23.4 0 0 0 .46-4.66 18.5 18.5 0 0 0-.33-3.86 4.2 4.2 0 0 0-.83-2 1.65 1.65 0 0 0-1.18-.48 2.1 2.1 0 0 0-1.12.27c-1.08.65-1.62 2.89-1.62 6.69v5.15h-4.54Z" class="animable" style="fill:#2c9f45;transform-origin:146.75px 221.809px"/><path id="elip2gly3soe8" d="M158.42 212.24c0-3.51.56-6.13 1.66-7.86s3.2-2.59 6.29-2.59 5.21.86 6.33 2.58 1.68 4.35 1.68 7.87v18.91q0 5.46-1.62 8.3t-6.37 2.85c-3.15 0-5.27-1-6.35-2.83s-1.62-4.65-1.62-8.32Zm11.33-.25c0-3.83-.81-5.89-2.45-6.18a7 7 0 0 0-1.1-.07 3.6 3.6 0 0 0-1.38.27 2.72 2.72 0 0 0-1.21 1.6 12.3 12.3 0 0 0-.55 4.36v19.47c0 3.57.44 5.69 1.32 6.38a2.52 2.52 0 0 0 1.63.54 7 7 0 0 0 1.36-.09 1.8 1.8 0 0 0 .92-.45c1-.75 1.46-2.88 1.46-6.4V212Z" class="animable" style="fill:#2c9f45;transform-origin:166.4px 222.045px"/><path id="elhmtr1n2jos" d="M178.24 210.29q0-4.46 2-5.56a4.1 4.1 0 0 1 1.93-.44q2.86 0 3.66 2.31a12 12 0 0 1 .49 3.69v6.48q0 3.85-1 5.07a3.75 3.75 0 0 1-3 1.2 3.41 3.41 0 0 1-3.65-2.44 13 13 0 0 1-.44-3.83Zm5.61-.5c0-1.74-.25-2.8-.74-3.18a1.33 1.33 0 0 0-.8-.23 1.21 1.21 0 0 0-1.27.89 8.6 8.6 0 0 0-.29 2.52v7.67c0 1.8.25 2.89.76 3.26a1.16 1.16 0 0 0 .75.24h.05a1.2 1.2 0 0 0 1.25-.91 8.7 8.7 0 0 0 .29-2.59Z" class="animable" style="fill:#2c9f45;transform-origin:182.273px 213.675px"/><path id="elpszczb0lic" d="M91.5 257.83H234" class="animable" style="fill:none;stroke:#fff;stroke-linecap:round;stroke-miterlimit:10;transform-origin:162.75px 257.83px"/><path id="el0fnwnk5mi40t" d="M91.5 299.83H234" class="animable" style="fill:none;stroke:#fff;stroke-linecap:round;stroke-miterlimit:10;transform-origin:162.75px 299.83px"/><path id="el83gfqnroe1o" d="M98.75 125.1h1.82v12.33h-1.29v-5l.12-4.61-1.67 9.54h-1.31l-1.75-9.54.12 4.61v5h-1.28V125.1h1.81l1.76 10.14Z" class="animable" style="fill:#fff;transform-origin:97.04px 131.265px"/><path id="ellfz1xyf60a" d="M102.45 130.23q0-2.55 1.17-3.18a2.3 2.3 0 0 1 1.11-.25 2 2 0 0 1 2.1 1.32 6.6 6.6 0 0 1 .28 2.11V134a4.87 4.87 0 0 1-.59 2.91 2.17 2.17 0 0 1-1.73.69 2 2 0 0 1-2.09-1.4 7.6 7.6 0 0 1-.25-2.2Zm3.22-.28c0-1-.14-1.61-.43-1.82a.73.73 0 0 0-.45-.14.7.7 0 0 0-.74.51 5 5 0 0 0-.16 1.45v4.4c0 1 .14 1.66.43 1.87a.72.72 0 0 0 .44.14.69.69 0 0 0 .71-.53 5 5 0 0 0 .17-1.48Z" class="animable" style="fill:#fff;transform-origin:104.792px 132.198px"/><path id="el6vkq023itu3" d="M110.44 128a1.65 1.65 0 0 1 .62-.87 1.82 1.82 0 0 1 1.17-.37 1.4 1.4 0 0 1 1.15.57 2.75 2.75 0 0 1 .43 1.69v8.38h-1.43v-8.37a1.1 1.1 0 0 0-.25-.8.87.87 0 0 0-.68-.27 1 1 0 0 0-.72.3 1.3 1.3 0 0 0-.29.91v8.23H109v-10.48h1.43Z" class="animable" style="fill:#fff;transform-origin:111.409px 132.079px"/><path id="elwfgp6c5kzne" d="M116 136h1.23v1.39H116Z" class="animable" style="fill:#fff;transform-origin:116.615px 136.695px"/><path id="elfbzu0hu6dau" d="M92.63 263.75h2.65v.78h-.83v7.25h-.94v-7.25h-.88Z" class="animable" style="fill:#fff;transform-origin:93.955px 267.765px"/><path id="elqegvkc29hmo" d="M98.22 264.93h.94v6.85h-.94v-.7a1.25 1.25 0 0 1-.38.57 1.14 1.14 0 0 1-.72.22 1 1 0 0 1-.77-.37 1.75 1.75 0 0 1-.32-1.15v-5.42H97v5.32c0 .54.19.81.58.81a.59.59 0 0 0 .5-.23 1 1 0 0 0 .17-.6Z" class="animable" style="fill:#fff;transform-origin:97.5924px 268.4px"/><path id="el5hmfuz8nybm" d="M100.39 267.06a2.7 2.7 0 0 1 .46-1.81 1.43 1.43 0 0 1 1.08-.4 1.21 1.21 0 0 1 1.3.89 5.5 5.5 0 0 1 .14 1.36v1.29h-2v1.36a2.5 2.5 0 0 0 .14 1.11.48.48 0 0 0 .45.22.39.39 0 0 0 .4-.26 1.4 1.4 0 0 0 .11-.55v-1.06h.91v.3a5.3 5.3 0 0 1-.15 1.52 1.18 1.18 0 0 1-.46.64 1.54 1.54 0 0 1-.77.19 1.9 1.9 0 0 1-.74-.12 1 1 0 0 1-.43-.31 1.6 1.6 0 0 1-.29-.61 5.4 5.4 0 0 1-.12-1.35Zm2-.18a3.5 3.5 0 0 0-.06-.88.9.9 0 0 0-.13-.26.34.34 0 0 0-.3-.12.49.49 0 0 0-.52.35 3.3 3.3 0 0 0-.11.94v.84h1.12Z" class="animable" style="fill:#fff;transform-origin:101.881px 268.352px"/><path id="elzbbit03bxys" d="M107.29 270.21c0 1.1-.49 1.66-1.46 1.66a1.34 1.34 0 0 1-1.11-.47 2.5 2.5 0 0 1-.37-1.51v-.52h.91v.51c0 .79.18 1.19.54 1.19a.45.45 0 0 0 .42-.19 1.23 1.23 0 0 0 .13-.67 2 2 0 0 0-.68-1.41 3 3 0 0 0-.24-.23l-.24-.23a2.53 2.53 0 0 1-.89-1.88 1.67 1.67 0 0 1 .38-1.21 1.43 1.43 0 0 1 1.09-.4 1.4 1.4 0 0 1 .78.2c.42.27.63.92.63 1.94v.32h-.89v-.47a2.5 2.5 0 0 0-.12-.89.4.4 0 0 0-.4-.3.5.5 0 0 0-.42.18 1 1 0 0 0-.14.6 1.83 1.83 0 0 0 .62 1.29l.5.46a2.78 2.78 0 0 1 .96 2.03" class="animable" style="fill:#fff;transform-origin:105.792px 268.36px"/><path id="elvolw3uwusl" d="M108.35 270.87h.8v.91h-.8Z" class="animable" style="fill:#fff;transform-origin:108.75px 271.325px"/><path id="el26wiikic7ob" d="M97.55 305.75h.86l-1 8h-.93l-.86-5.93-.91 5.93h-.91l-1.06-8h.87l.69 6.15.91-6.15H96l1 6.15Z" class="animable" style="fill:#fff;transform-origin:95.575px 309.75px"/><path id="elg8i3vh65jnh" d="M99.24 309.06a2.7 2.7 0 0 1 .46-1.81 1.43 1.43 0 0 1 1.08-.4 1.21 1.21 0 0 1 1.3.89 5.5 5.5 0 0 1 .14 1.36v1.29h-2v1.36a2.5 2.5 0 0 0 .14 1.11.48.48 0 0 0 .45.22.39.39 0 0 0 .4-.26 1.4 1.4 0 0 0 .11-.55v-1.06h.91v.3a5.3 5.3 0 0 1-.15 1.52 1.18 1.18 0 0 1-.46.64 1.54 1.54 0 0 1-.77.19 1.9 1.9 0 0 1-.74-.12 1 1 0 0 1-.43-.31 1.6 1.6 0 0 1-.29-.61 5.4 5.4 0 0 1-.12-1.35Zm2.05-.18a3.5 3.5 0 0 0-.06-.88.9.9 0 0 0-.13-.26.34.34 0 0 0-.3-.12.49.49 0 0 0-.52.35 3.3 3.3 0 0 0-.11.94v.84h1.12Z" class="animable" style="fill:#fff;transform-origin:100.731px 310.352px"/><path id="elfeqe2z8cn" d="M105.42 305.66h.94v8.12h-.94v-.58a1 1 0 0 1-1 .64c-.62 0-1-.42-1.1-1.25a7 7 0 0 1-.06-1V309a2.9 2.9 0 0 1 .4-1.75 1.13 1.13 0 0 1 .91-.4.8.8 0 0 1 .47.15 1 1 0 0 1 .33.39Zm0 3.33a3.2 3.2 0 0 0-.12-1 .45.45 0 0 0-.46-.31.46.46 0 0 0-.47.31 3.4 3.4 0 0 0-.12 1.06v2.76c0 .67.09 1.08.27 1.22a.46.46 0 0 0 .31.08.47.47 0 0 0 .32-.1c.18-.16.27-.57.27-1.24Z" class="animable" style="fill:#fff;transform-origin:104.804px 309.751px"/><path id="el58c2cao43bb" d="M107.81 312.87h.79v.91h-.79Z" class="animable" style="fill:#fff;transform-origin:108.205px 313.325px"/><path id="elygs38cmuqia" d="M151.43 286.84a1.63 1.63 0 0 0 1.61-1.31 8.4 8.4 0 0 0 .15-1.6 8.72 8.72 0 0 0-8.25-8.71 8.74 8.74 0 0 0-17 2.69v.7a6.63 6.63 0 0 0-6.62 6.62 1.62 1.62 0 0 0 1.64 1.59Z" class="animable" style="fill:none;stroke:#fff;stroke-linecap:round;stroke-miterlimit:10;transform-origin:137.255px 278.086px"/><path id="el33wzjnslwgq" d="M123.88 280a6.43 6.43 0 1 1 7.92-9.37" class="animable" style="fill:none;stroke:#fff;stroke-linecap:round;stroke-miterlimit:10;transform-origin:125.869px 273.82px"/><path id="elubh3vqah2zi" d="M126.38 261.95v4.11" class="animable" style="fill:none;stroke:#fff;stroke-linecap:round;stroke-miterlimit:10;transform-origin:126.38px 264.005px"/><path id="elezf60rc1ddm" d="M114.56 273.52h3.85" class="animable" style="fill:none;stroke:#fff;stroke-linecap:round;stroke-miterlimit:10;transform-origin:116.485px 273.52px"/><path id="elaey7o2gz507" d="m120.47 279.94-2.83 2.32" class="animable" style="fill:none;stroke:#fff;stroke-linecap:round;stroke-miterlimit:10;transform-origin:119.055px 281.1px"/><path id="elxdsj96wzdnq" d="m117.9 265.29 2.82 2.83" class="animable" style="fill:none;stroke:#fff;stroke-linecap:round;stroke-miterlimit:10;transform-origin:119.31px 266.705px"/><path id="elb81brv2n0xq" d="M151.43 327.2a1.63 1.63 0 0 0 1.61-1.31 8.4 8.4 0 0 0 .15-1.6 8.72 8.72 0 0 0-8.25-8.71 8.74 8.74 0 0 0-17 2.69v.7a6.62 6.62 0 0 0-6.62 6.62 1.62 1.62 0 0 0 1.64 1.59Z" class="animable" style="fill:none;stroke:#fff;stroke-linecap:round;stroke-miterlimit:10;transform-origin:137.255px 318.446px"/><path id="elnu5olorolsq" d="M123.88 320.31a6.43 6.43 0 1 1 7.92-9.37" class="animable" style="fill:none;stroke:#fff;stroke-linecap:round;stroke-miterlimit:10;transform-origin:125.869px 314.13px"/><path id="ell1cyqtxt6jb" d="M126.38 302.31v4.11" class="animable" style="fill:none;stroke:#fff;stroke-linecap:round;stroke-miterlimit:10;transform-origin:126.38px 304.365px"/><path id="el0thcjffclq2" d="M114.56 313.88h3.85" class="animable" style="fill:none;stroke:#fff;stroke-linecap:round;stroke-miterlimit:10;transform-origin:116.485px 313.88px"/><path id="elswjoo4ez5l" d="m120.47 320.3-2.83 2.32" class="animable" style="fill:none;stroke:#fff;stroke-linecap:round;stroke-miterlimit:10;transform-origin:119.055px 321.46px"/><path id="elclob2ap6l2f" d="m117.9 305.65 2.82 2.83" class="animable" style="fill:none;stroke:#fff;stroke-linecap:round;stroke-miterlimit:10;transform-origin:119.31px 307.065px"/></g><g id="freepik--Character--inject-61" class="animable" style="animation:1s 1 forwards cubic-bezier(.36,-.01,.5,1.38) fadeIn,6s Infinite linear shake;animation-delay:0s,1s;transform-origin:323.624px 279.397px"><ellipse id="eldjy38j0071w" cx="335" cy="436" class="animable" rx="51" ry="10" style="fill:#2c9f45;transform-origin:335px 436px"/><ellipse id="el9c5uh371ny" cx="335" cy="436" class="animable" rx="51" ry="10" style="fill:#fff;opacity:.5;transform-origin:335px 436px"/><path id="eloky7gt0w3ko" d="M296.63 360.28a52 52 0 0 1 13.93-3.57c8.33-1 10.88 1.87 10.88 1.87s-12.75 13.42-24.81 1.7" class="animable" style="fill:#fff;stroke:#263238;stroke-linecap:round;stroke-linejoin:round;transform-origin:309.035px 360.79px"/><path id="elrxk3vwos01" d="M330.44 356.2s8.67-7 15.81-10.54 8.83-1.19 8.83-1.19 0 4.59-5.09 10-9.69 4.76-13.09 4.42a14.5 14.5 0 0 1-6.46-2.69" class="animable" style="fill:#fff;stroke:#263238;stroke-linecap:round;stroke-linejoin:round;transform-origin:342.76px 351.407px"/><path id="el16p0olr6onoh" d="M292 301.65s-1.36 6.11 1.19 16.14 6.28 23.11 6.11 24.3-.85 18.36 0 21.76 5.61 4.75 11.22 4.24 7.48-2.38 8.5-5.94 2.72-28.38 2.72-28.38 11 21.41 12.23 25 8.33 5.61 13.77 4.42 7.3-8.16 7.14-12.58-12.41-25.83-12.41-25.83l4.25-23.11-36-18.53Z" class="animable" style="fill:#fff;transform-origin:323.264px 325.667px"/><g id="eluptif9uzr3k" class="animable" style="clip-path:url(#freepik--clip-path-2--inject-61);transform-origin:319.214px 301.649px"><path id="el628bsf8aond" d="m343.79 317.78 3-16.13-36-18.53L292 301.65s-1.2 5.4.77 14.38a43.5 43.5 0 0 0 7.84 1.29c11.22 1 16 .64 16 .64s6.61 5.11 27.18-.18" class="animable" style="fill:#2c9f45;transform-origin:319.214px 301.649px"/><path id="el5pyy8rsc195" d="m343.79 317.78 3-16.13-36-18.53L292 301.65s-1.2 5.4.77 14.38a43.5 43.5 0 0 0 7.84 1.29c11.22 1 16 .64 16 .64s6.61 5.11 27.18-.18" class="animable" style="fill:#fff;opacity:.5;transform-origin:319.214px 301.649px"/></g><path id="elor7hn7c5ygk" d="M292 301.65s-1.36 6.11 1.19 16.14 6.28 23.11 6.11 24.3-.85 18.36 0 21.76 5.61 4.75 11.22 4.24 7.48-2.38 8.5-5.94 2.72-28.38 2.72-28.38 11 21.41 12.23 25 8.33 5.61 13.77 4.42 7.3-8.16 7.14-12.58-12.41-25.83-12.41-25.83l4.25-23.11-36-18.53Z" class="animable" style="fill:none;stroke:#263238;stroke-linecap:round;stroke-linejoin:round;transform-origin:323.264px 325.667px"/><path id="elr61zbjrh65" d="M320.76 331.05s-3.4-11.05-3.23-16.49" class="animable" style="fill:#fff;stroke:#263238;stroke-linecap:round;stroke-linejoin:round;transform-origin:319.142px 322.805px"/><path id="elq9uqjgqkpw" d="M296.63 360.28s3.9 3.23 11.89 2.55a27.65 27.65 0 0 0 12.92-4.25s-3.91 50.3-3.91 52.51-.51 10-.51 11.73.68 1.69.68 4.24 0 4.25-.85 5.27-4.08.68-7.14.68-5.1 2.55-9.52 3.74-13.76.51-14.44-1.36 6.46-5.61 10-9.52 6.11-9.51 6.11-11.89-5.23-53.7-5.23-53.7" class="animable" style="fill:#263238;stroke:#263238;stroke-linecap:round;stroke-linejoin:round;transform-origin:303.572px 397.961px"/><path id="el6u9a7yce714" d="M330.44 356.2s28 49.79 28 50.47-.51 6.8-1.36 11.9-3.39 12.57-1.36 12.57 10-4.93 12.75-9.51 3.06-10.2 3.74-11.9 2.21-1.7 3.23-4.76.51-6.12-1.19-7.48-8.33-3.57-8.33-3.57l-10.88-49.45s-3.52 12.58-24.6 11.73" class="animable" style="fill:#263238;stroke:#263238;stroke-linecap:round;stroke-linejoin:round;transform-origin:353.202px 387.805px"/><circle id="elitjfzpfr5nh" cx="370.55" cy="127.46" r="10.37" class="animable" style="fill:#2c9f45;stroke:#263238;stroke-linecap:round;stroke-linejoin:round;transform-origin:370.55px 127.46px;transform:rotate(-45deg)"/><path id="el3x1ybi1u9fa" d="M402.84 218s4.76-5.61 6.63-6.46 7.13-.51 9-1.87 3.91 1 3.23 3.4-3.23 3.74-4.25 4.08 6.29 1 6.29 1 4.42-7.14 6.29-5.27-1.7 11.89-3.57 13.76-4.59 3.23-12.24 3.06a81.4 81.4 0 0 1-11.38-.85Z" class="animable" style="fill:#fff;stroke:#263238;stroke-linecap:round;stroke-linejoin:round;transform-origin:416.698px 219.493px"/><path id="el2i7erodzneb" d="M248 198c-.51-.68-2.72-4.93-7.14-6.8s-9.34-.68-11.38-1-4.08.85-3.57 2.72 2.72 2 3.91 2.72-3.74 2.38-5.1 2.38-3.91-6.46-7-4.25 1.53 8.33 4.08 11.39 8 3.4 11.56 3.06 10.7-.51 10.7-.51Z" class="animable" style="fill:#fff;stroke:#263238;stroke-linecap:round;stroke-linejoin:round;transform-origin:232.346px 199.221px"/><path id="elydoaqrhi28k" d="M312.94 173.34s-6.63 1.36-9.69 5.27-24.3 33-24.3 33a2.18 2.18 0 0 0-2.38 0l-1 .85s-25.15-18.53-26.17-18.19-10.9 13.23-10.56 14.73 31.61 26 36 26.34 5.44 0 6.29-.68 15-10.54 15-10.54l1 13.43s-14.78 31.27-14.95 61c0 0 3.23 8.66 22.43 12.23a9.6 9.6 0 0 0 1.87-2.89c.68-1.69 2.72-9.34 2.72-9.34s1 11.72 2.38 12.74 16.65-.51 31.27-3.74 17.5-6.11 17.5-8.83-5.43-42.66-12.23-59.31l5.1-7.31s6.62 10.37 10 11.56 37.22-5.95 40.28-7.31 2.72-1.53 2.72-2.72-.85-16-3.06-16.48-25.32 3.05-26.17 3.05-2.55-1.36-3.06-1.36h-.51s0-23.45-3.74-31.43-12.07-13.09-22.77-15.81-33.97 1.74-33.97 1.74" class="animable" style="fill:#2c9f45;transform-origin:322.531px 241.162px"/><g id="elkc5ni854ceh" class="animable" style="clip-path:url(#freepik--clip-path-3--inject-61);transform-origin:325.128px 238.56px"><g id="elmjsk6ax59d" class="animable" style="opacity:.2;transform-origin:325.128px 238.56px"><path id="elh4j9v47iso4" d="m294.92 219.78-.36-6.35s-2.47 4.24-5.64 6-6 4.23-9.17 4.23-37.75-14.81-35.63-10.58S264.93 235 272.69 236a25.26 25.26 0 0 0 13.06-1.41l10.25-8.11Z" class="animable" style="transform-origin:270.013px 224.312px"/><path id="elfnq8ymcgr3j" d="M406.23 234.52c-7 1.57-18.54 4.08-25.6 5-10.58 1.41-19.4-1.42-22.22-3.18s-8.47-10.23-8.47-12 2.12-7.41 0-1.77a69.6 69.6 0 0 1-8.81 16.23c-2.83 3.53 2.11 9.52 6 25 3.07 12.28 2.39 33.36 2 42.17 9.23-2.61 11.26-5 11.26-7.28 0-2.72-5.43-42.66-12.23-59.31l5.1-7.31s6.62 10.37 10 11.56 37.22-5.95 40.28-7.31c2.12-.88 2.6-1.25 2.69-1.8" class="animable" style="transform-origin:373.262px 263.047px"/><path id="elyrj9zboifu" d="M346.06 195.44c11.29-.7 18.35-6.35 19.76-2.47s2.47 13.05 2.82 18.7.35 9.52.35 9.52a2.27 2.27 0 0 1 3.18 1.41l1.06 2.47 31.52-4.59c-.42-1.83-.94-3.15-1.57-3.29-2.21-.51-25.32 3.05-26.17 3.05s-2.55-1.36-3.06-1.36h-.51s0-23.45-3.74-31.43-12.07-13.09-22.77-15.81a26 26 0 0 0-2.6-.49 33.63 33.63 0 0 0-15.2 22.18s5.65 2.82 16.93 2.11" class="animable" style="transform-origin:366.94px 198.11px"/></g></g><path id="elry5hlg1deop" d="M312.94 173.34s-6.63 1.36-9.69 5.27-24.3 33-24.3 33a2.18 2.18 0 0 0-2.38 0l-1 .85s-25.15-18.53-26.17-18.19-10.9 13.23-10.56 14.73 31.61 26 36 26.34 5.44 0 6.29-.68 15-10.54 15-10.54l1 13.43s-14.78 31.27-14.95 61c0 0 3.23 8.66 22.43 12.23a9.6 9.6 0 0 0 1.87-2.89c.68-1.69 2.72-9.34 2.72-9.34s1 11.72 2.38 12.74 16.65-.51 31.27-3.74 17.5-6.11 17.5-8.83-5.43-42.66-12.23-59.31l5.1-7.31s6.62 10.37 10 11.56 37.22-5.95 40.28-7.31 2.72-1.53 2.72-2.72-.85-16-3.06-16.48-25.32 3.05-26.17 3.05-2.55-1.36-3.06-1.36h-.51s0-23.45-3.74-31.43-12.07-13.09-22.77-15.81-33.97 1.74-33.97 1.74" class="animable" style="fill:none;stroke:#263238;stroke-linecap:round;stroke-linejoin:round;transform-origin:322.531px 241.162px"/><path id="ele8p9aom1ger" d="M323.65 187.11s-11.56 20.56-13.77 31.44-.68 80-.68 80" class="animable" style="fill:none;stroke:#263238;stroke-linecap:round;stroke-linejoin:round;transform-origin:316.167px 242.83px"/><path id="el3atzn4wgmnz" d="M296.12 224.15s-3.4-17.33-.34-24.47" class="animable" style="fill:none;stroke:#263238;stroke-linecap:round;stroke-linejoin:round;transform-origin:295.311px 211.915px"/><path id="elol9z097oykt" d="M298.83 240s20.4 4.59 36.54 1.53" class="animable" style="fill:none;stroke:#263238;stroke-linecap:round;stroke-linejoin:round;transform-origin:317.1px 241.291px"/><path id="eluuzpugf2sbt" d="M353.22 232.14s-4.93-8.67-5.27-17.5" class="animable" style="fill:none;stroke:#263238;stroke-linecap:round;stroke-linejoin:round;transform-origin:350.585px 223.39px"/><path id="el55ulxc1g8n8" d="M349.65 207.84S359.16 190.5 368 192" class="animable" style="fill:none;stroke:#263238;stroke-linecap:round;stroke-linejoin:round;transform-origin:358.825px 199.874px"/><path id="elrhujxqfh1h" d="M373.44 218.88s-6.12.51-8.84 9" class="animable" style="fill:none;stroke:#263238;stroke-linecap:round;stroke-linejoin:round;transform-origin:369.02px 223.38px"/><path id="elcduy2p7779" d="M279 211.58s4.93 2.89 4.08 10.87" class="animable" style="fill:none;stroke:#263238;stroke-linecap:round;stroke-linejoin:round;transform-origin:281.089px 217.015px"/><path id="elnzegp3mlkp9" d="m298.66 257.29-11.89 12.58-.17 3.06 12.91-11.9z" class="animable" style="fill:#263238;stroke:#263238;stroke-linecap:round;stroke-linejoin:round;transform-origin:293.055px 265.11px"/><path id="el1k7l5r4d13a" d="m331.46 259.16-3.23 3.23 16.83 22.77 3.91-3.91z" class="animable" style="fill:#263238;stroke:#263238;stroke-linecap:round;stroke-linejoin:round;transform-origin:338.6px 272.16px"/><path id="eltdwx9szw3mj" d="M291.7 271.91a121 121 0 0 0 13.76 1" class="animable" style="fill:none;stroke:#263238;stroke-linecap:round;stroke-linejoin:round;transform-origin:298.58px 272.41px"/><path id="elg7w50vo4acd" d="M313.79 273.44a95.7 95.7 0 0 0 18.18-1" class="animable" style="fill:none;stroke:#263238;stroke-linecap:round;stroke-linejoin:round;transform-origin:322.88px 272.979px"/><path id="el7thtdusd6jx" d="M285.92 286.18s7 6.46 20.73 7.65" class="animable" style="fill:none;stroke:#263238;stroke-linecap:round;stroke-linejoin:round;transform-origin:296.285px 290.005px"/><path id="elr52zc162tpm" d="M314 294.17s15.63.34 27.53-3.4" class="animable" style="fill:none;stroke:#263238;stroke-linecap:round;stroke-linejoin:round;transform-origin:327.765px 292.474px"/><path id="elrsiuj7p3cm" d="M324.33 190.5s-6.46 3.4-14.62-5.77-1.53-24.81 6.46-30.42 21.41-7.65 29.57-6.46 11.72 8.5 11.21 20.22-10.19 12.24-20.05 14.79-12.57 7.64-12.57 7.64" class="animable" style="fill:#fff;transform-origin:331.489px 169.32px"/><g id="el745j9pdt5cg" class="animable" style="clip-path:url(#freepik--clip-path-4--inject-61);transform-origin:336.21px 167.99px"><path id="elyuq7vezidt" d="m319 163.31 1.4 5.69-3.26-1.9 1.36 2.44-2.72.27 3.81 3-3.27 1.09 3 2.72-1.32 1.64 6 3.53 4 2.21s20.66-7.34 22.83-8.7 6.52-10.87 5.71-13.59-6.8-7.07-10.33-8.15-20.37-6.01-27.21 9.75" class="animable" style="fill:#2c9f45;transform-origin:336.21px 167.99px"/><path id="elg87fhrfn52h" d="m319 163.31 1.4 5.69-3.26-1.9 1.36 2.44-2.72.27 3.81 3-3.27 1.09 3 2.72-1.32 1.64 6 3.53 4 2.21s20.66-7.34 22.83-8.7 6.52-10.87 5.71-13.59-6.8-7.07-10.33-8.15-20.37-6.01-27.21 9.75" class="animable" style="fill:#fff;opacity:.5;transform-origin:336.21px 167.99px"/></g><path id="elnfz3adudm6n" d="M324.33 190.5s-6.46 3.4-14.62-5.77-1.53-24.81 6.46-30.42 21.41-7.65 29.57-6.46 11.72 8.5 11.21 20.22-10.19 12.24-20.05 14.79-12.57 7.64-12.57 7.64" class="animable" style="fill:none;stroke:#263238;stroke-linecap:round;stroke-linejoin:round;transform-origin:331.489px 169.32px"/><path id="elwikwidwyswi" d="M326.53 170.62s0 3.91-.51 9.69a32.6 32.6 0 0 1-1.86 9s13.93-8 17.5-12.58 2.72-16.82 2.72-16.82a77 77 0 0 1-9.86 6.28Z" class="animable" style="fill:#fff;stroke:#263238;stroke-linecap:round;stroke-linejoin:round;transform-origin:334.314px 174.61px"/><path id="el9ocie62l9a" d="M347.61 162.12s3.06 3.4-5.78 8.67-15.3 6-18.18 14.62 5.94 9.85 17.84 8.32 24.3-4.58 30.25-15.29 2.38-24.13-6.29-27.36-14.95 4.25-17.84 11.04" class="animable" style="fill:#fff;transform-origin:348.891px 172.298px"/><g id="el66dhk2rgrvn" class="animable" style="clip-path:url(#freepik--clip-path-5--inject-61);transform-origin:348.916px 172.277px"><path id="elgshlf0uyg3s" d="M365.45 151.08c-4.69-1.75-8.68-.36-11.82 2.37-1.47 1.69-2.83 3.33-4 4.73a27 27 0 0 0-1.81 3.38 39 39 0 0 1 4.88-2.05c1.91-.55 3.26-.55 4.7-1.26s5.36.71 7 .71a28.7 28.7 0 0 1 4.89.82l2.72 4.07a2.86 2.86 0 0 0-.82 1.63c0 .82 0 4.08-1.08 5.44l-.55 5.16-1.63-.54s-3 4.08-3.8 4.35-1.63-1.36-1.63-1.36l-2.72 3.53-.78-1.36a86 86 0 0 0-6 6.53c-1.36 1.9-.28-2.45-.28-2.45l-5.14 3.22v-3l-5.44 3.81-.81-1.63-6.8 3.8-.27-3.26-7.34 1.9-.27-1.9-3.5 1.4c.68 5.22 8.45 5.84 18.34 4.56 11.9-1.53 24.3-4.58 30.25-15.29s2.38-24.08-6.29-27.31" class="animable" style="fill:#2c9f45;transform-origin:348.916px 172.277px"/><path id="elbv0nlamf61m" d="M365.45 151.08c-4.69-1.75-8.68-.36-11.82 2.37-1.47 1.69-2.83 3.33-4 4.73a27 27 0 0 0-1.81 3.38 39 39 0 0 1 4.88-2.05c1.91-.55 3.26-.55 4.7-1.26s5.36.71 7 .71a28.7 28.7 0 0 1 4.89.82l2.72 4.07a2.86 2.86 0 0 0-.82 1.63c0 .82 0 4.08-1.08 5.44l-.55 5.16-1.63-.54s-3 4.08-3.8 4.35-1.63-1.36-1.63-1.36l-2.72 3.53-.78-1.36a86 86 0 0 0-6 6.53c-1.36 1.9-.28-2.45-.28-2.45l-5.14 3.22v-3l-5.44 3.81-.81-1.63-6.8 3.8-.27-3.26-7.34 1.9-.27-1.9-3.5 1.4c.68 5.22 8.45 5.84 18.34 4.56 11.9-1.53 24.3-4.58 30.25-15.29s2.38-24.08-6.29-27.31" class="animable" style="fill:#fff;opacity:.5;transform-origin:348.916px 172.277px"/></g><path id="eltdpfvc0lv78" d="M347.61 162.12s3.06 3.4-5.78 8.67-15.3 6-18.18 14.62 5.94 9.85 17.84 8.32 24.3-4.58 30.25-15.29 2.38-24.13-6.29-27.36-14.95 4.25-17.84 11.04" class="animable" style="fill:none;stroke:#263238;stroke-linecap:round;stroke-linejoin:round;transform-origin:348.891px 172.298px"/><path id="elxypyz7qpj1" d="M357 155.16s7.48-6.29 9.69-15.13-3.23-17-9.35-18.52-16.65-1.36-24.3 3.57-8 6.79-8 6.79 18.18-5.94 24.47 5.1 7.49 18.19 7.49 18.19" class="animable" style="fill:#263238;stroke:#263238;stroke-linecap:round;stroke-linejoin:round;transform-origin:346.116px 137.912px"/><path id="eli2wjdd13k6" d="M322.8 141.73c-1.19-.34-3.91-.34-4.08-3.4s5.27-9.34 10-10.87 17.17-.34 23.12 7.13a30.13 30.13 0 0 1 6.16 20.74c-.51 3.91-4.75 7.13-8.66 8a6.43 6.43 0 0 1-6.63-2.38c-.51-.67 4.59-2.54 2-9.17s-9.52-12.41-14.79-13.09-7.12 3.04-7.12 3.04" class="animable" style="fill:#2c9f45;stroke:#263238;stroke-linecap:round;stroke-linejoin:round;transform-origin:338.404px 145.192px"/><path id="elugr15982wu" d="M324.16 136s-4.76 7.31-5.27 15-.51 20.39 5.61 21.07a19.75 19.75 0 0 0 14.95-4.93 41 41 0 0 0 5.61-5.78 3.32 3.32 0 0 0 3.74-1.18c1.7-2 1.19-3.74.85-6.29s-5.78-22.36-25.49-17.89" class="animable" style="fill:#fff;stroke:#263238;stroke-linecap:round;stroke-linejoin:round;transform-origin:334.341px 153.749px"/><path id="elzasqtf8uf1k" d="M349.65 153.85a25.6 25.6 0 0 0-2.64-7.23c-.9 1.5-1.95 4-.39 6a2.93 2.93 0 0 0 3.03 1.23" class="animable" style="fill:#263238;transform-origin:347.735px 150.266px"/><path id="elgvcrniw3kdr" d="M346.36 145.41c-3-5.1-8.46-10.46-17.67-10.06-.27 1.78 0 5.15 4.83 7.57a26.8 26.8 0 0 0 12.84 2.49" class="animable" style="fill:#263238;transform-origin:337.489px 140.39px"/><path id="el6fuzfyhfxew" d="M328.91 143.94s-1.36 2.38-2.72 2.72-4.75 1.87-3.22 3.4 4.92.17 4.92.17" class="animable" style="fill:none;stroke:#263238;stroke-linecap:round;stroke-linejoin:round;transform-origin:325.746px 147.364px"/><path id="ellvsxwn2ga4" d="M322.29 153.29s2.38 2.72 7.47.85" class="animable" style="fill:none;stroke:#263238;stroke-linecap:round;stroke-linejoin:round;transform-origin:326.025px 154.043px"/><path id="elz8erqbvfylc" d="M332.14 147s3.57-2 5.27 1.19" class="animable" style="fill:none;stroke:#263238;stroke-linecap:round;stroke-linejoin:round;transform-origin:334.775px 147.285px"/><path id="elpsoknddii3r" d="M326 145.3a2.5 2.5 0 0 0-3.56.34" class="animable" style="fill:none;stroke:#263238;stroke-linecap:round;stroke-linejoin:round;transform-origin:324.22px 145.175px"/></g><g id="freepik--Snow--inject-61" class="animable" style="animation:1s 1 forwards cubic-bezier(.36,-.01,.5,1.38) zoomOut;animation-delay:0s;transform-origin:313.933px 239.526px"><path id="elo6yrowtpo2s" d="M283.15 193.48c-.85.77-2.66.14-4-1.39s-1.8-3.39-.95-4.15 2.66-.15 4 1.38 1.8 3.4.95 4.16Z" class="animable" style="fill:#fff;stroke:#263238;stroke-linecap:round;stroke-miterlimit:10;stroke-width:.5px;transform-origin:280.675px 190.711px"/><path id="elcrxgcch8cvl" d="M357.36 225.38c-.85.76-2.66.14-4-1.39s-1.8-3.39-.95-4.16 2.66-.14 4 1.39 1.8 3.39.95 4.16Z" class="animable" style="fill:#fff;stroke:#263238;stroke-linecap:round;stroke-miterlimit:10;stroke-width:.5px;transform-origin:354.885px 222.603px"/><path id="el8slabrthzfw" d="M231.11 187.09c-.85.77-2.65.15-4-1.38s-1.8-3.4-1-4.16 2.65-.15 4 1.39 1.89 3.39 1 4.15Z" class="animable" style="fill:#fff;stroke:#263238;stroke-linecap:round;stroke-miterlimit:10;stroke-width:.5px;transform-origin:228.63px 184.322px"/><path id="elo5mzqk420ua" d="M201.79 192c-.85.76-2.65.14-4-1.39s-1.8-3.4-.95-4.16 2.65-.14 4 1.39 1.8 3.42.95 4.16Z" class="animable" style="fill:#fff;stroke:#263238;stroke-linecap:round;stroke-miterlimit:10;stroke-width:.5px;transform-origin:199.315px 189.225px"/><path id="elt43dp63swo" d="M253.36 219.22c-.42.38-1.33.07-2-.69s-.91-1.7-.48-2.08 1.33-.07 2 .69.91 1.7.48 2.08Z" class="animable" style="fill:#fff;stroke:#263238;stroke-linecap:round;stroke-miterlimit:10;stroke-width:.5px;transform-origin:252.12px 217.835px"/><path id="el2rp5fbmfng4" d="M267.4 173c-.43.38-1.33.07-2-.7s-.9-1.69-.47-2.07 1.32-.08 2 .69.89 1.68.47 2.08Z" class="animable" style="fill:#fff;stroke:#263238;stroke-linecap:round;stroke-miterlimit:10;stroke-width:.5px;transform-origin:266.164px 171.614px"/><path id="elg93a6ivrc1" d="M293.44 229.25c-.43.38-1.33.07-2-.69s-.9-1.7-.48-2.08 1.33-.07 2 .69.9 1.7.48 2.08Z" class="animable" style="fill:#fff;stroke:#263238;stroke-linecap:round;stroke-miterlimit:10;stroke-width:.5px;transform-origin:292.2px 227.865px"/><path id="el750gjpqapry" d="M282.11 129c-.85.77-2.66.15-4-1.39s-1.8-3.39-.95-4.15 2.66-.15 4 1.38 1.84 3.38.95 4.16Z" class="animable" style="fill:#fff;stroke:#263238;stroke-linecap:round;stroke-miterlimit:10;stroke-width:.5px;transform-origin:279.644px 126.232px"/><path id="elro3hizjdurl" d="M236.06 113.25c-.85.77-2.65.14-4-1.39s-1.8-3.39-.95-4.15 2.66-.15 4 1.38 1.81 3.4.95 4.16Z" class="animable" style="fill:#fff;stroke:#263238;stroke-linecap:round;stroke-miterlimit:10;stroke-width:.5px;transform-origin:233.586px 110.481px"/><path id="elyaczi62kn18" d="M252.32 154.72c-.42.38-1.33.07-2-.69s-.91-1.7-.48-2.08 1.33-.07 2 .69.91 1.7.48 2.08Z" class="animable" style="fill:#fff;stroke:#263238;stroke-linecap:round;stroke-miterlimit:10;stroke-width:.5px;transform-origin:251.08px 153.335px"/><path id="el3pxcedf7wc" d="M266.36 108.48c-.43.38-1.33.07-2-.69s-.9-1.7-.47-2.08 1.32-.08 2 .69.89 1.7.47 2.08Z" class="animable" style="fill:#fff;stroke:#263238;stroke-linecap:round;stroke-miterlimit:10;stroke-width:.5px;transform-origin:265.124px 107.094px"/><path id="elzuzavpern0h" d="M223.52 141.09c-.42.39-1.32.08-2-.69s-.9-1.7-.48-2.08 1.33-.07 2 .69.96 1.7.48 2.08Z" class="animable" style="fill:#fff;stroke:#263238;stroke-linecap:round;stroke-miterlimit:10;stroke-width:.5px;transform-origin:222.292px 139.708px"/><path id="el7jlf5t2enfh" d="M292.4 164.75c-.43.38-1.33.07-2-.69s-.9-1.7-.48-2.08 1.33-.07 2 .69.9 1.7.48 2.08Z" class="animable" style="fill:#fff;stroke:#263238;stroke-linecap:round;stroke-miterlimit:10;stroke-width:.5px;transform-origin:291.16px 163.365px"/><path id="elt6pmuy7fux" d="M347.15 122.48c-.85.77-2.66.14-4-1.39s-1.8-3.39-.95-4.15 2.66-.15 4 1.38 1.8 3.4.95 4.16Z" class="animable" style="fill:#fff;stroke:#263238;stroke-linecap:round;stroke-miterlimit:10;stroke-width:.5px;transform-origin:344.675px 119.711px"/><path id="el0zmyw2legk6" d="M315.15 69.48c-.85.77-2.66.14-4-1.39s-1.8-3.39-.95-4.15 2.66-.15 4 1.38 1.8 3.4.95 4.16Z" class="animable" style="fill:#fff;stroke:#263238;stroke-linecap:round;stroke-miterlimit:10;stroke-width:.5px;transform-origin:312.675px 66.7112px"/><path id="eln1jc8pmj7g" d="M317.36 148.22c-.42.38-1.33.07-2-.69s-.91-1.7-.48-2.08 1.33-.07 2 .69.91 1.7.48 2.08Z" class="animable" style="fill:#fff;stroke:#263238;stroke-linecap:round;stroke-miterlimit:10;stroke-width:.5px;transform-origin:316.12px 146.835px"/><path id="elt7nwj48gn5" d="M331.4 102c-.43.38-1.33.07-2-.7s-.9-1.69-.47-2.07 1.32-.08 2 .69.89 1.68.47 2.08Z" class="animable" style="fill:#fff;stroke:#263238;stroke-linecap:round;stroke-miterlimit:10;stroke-width:.5px;transform-origin:330.164px 100.614px"/><path id="el0oo9cjfbxx2h" d="M357.44 158.25c-.43.38-1.33.07-2-.69s-.9-1.7-.48-2.08 1.33-.07 2 .69.9 1.7.48 2.08Z" class="animable" style="fill:#fff;stroke:#263238;stroke-linecap:round;stroke-miterlimit:10;stroke-width:.5px;transform-origin:356.2px 156.865px"/><path id="el097s12jzdx2x" d="M399.61 96.87c-.86.76-2.66.14-4-1.39s-1.8-3.39-.95-4.16 2.66-.14 4 1.39 1.8 3.39.95 4.16Z" class="animable" style="fill:#fff;stroke:#263238;stroke-linecap:round;stroke-miterlimit:10;stroke-width:.5px;transform-origin:397.135px 94.0928px"/><path id="elbqt63ndowih" d="M373.11 92.75c-.86.77-2.66.14-4-1.39s-1.8-3.39-.95-4.16 2.66-.14 4 1.39 1.84 3.41.95 4.16Z" class="animable" style="fill:#fff;stroke:#263238;stroke-linecap:round;stroke-miterlimit:10;stroke-width:.5px;transform-origin:370.644px 89.975px"/><path id="el12pugn3w9uqj" d="M369.82 122.61c-.42.38-1.33.07-2-.7s-.91-1.69-.48-2.08 1.33-.07 2 .7.91 1.69.48 2.08Z" class="animable" style="fill:#fff;stroke:#263238;stroke-linecap:round;stroke-miterlimit:10;stroke-width:.5px;transform-origin:368.58px 121.218px"/><path id="eldqmvgpxpcc" d="M383.86 76.36c-.43.39-1.33.08-2-.69s-.9-1.7-.47-2.08 1.32-.07 2 .69.89 1.72.47 2.08Z" class="animable" style="fill:#fff;stroke:#263238;stroke-linecap:round;stroke-miterlimit:10;stroke-width:.5px;transform-origin:382.624px 74.9781px"/><path id="el4xyodyvqaoj" d="M409.9 132.64c-.43.38-1.33.07-2-.7s-.9-1.69-.48-2.08 1.33-.07 2 .7.9 1.69.48 2.08Z" class="animable" style="fill:#fff;stroke:#263238;stroke-linecap:round;stroke-miterlimit:10;stroke-width:.5px;transform-origin:408.66px 131.248px"/><path id="eln12zgx8ztvq" d="M413.61 198.87c-.86.76-2.66.14-4-1.39s-1.8-3.39-.95-4.16 2.66-.14 4 1.39 1.8 3.39.95 4.16Z" class="animable" style="fill:#fff;stroke:#263238;stroke-linecap:round;stroke-miterlimit:10;stroke-width:.5px;transform-origin:411.135px 196.093px"/><path id="el33dq4knllpn" d="M371.07 179.25c-.86.77-2.66.14-4-1.39s-1.8-3.39-.95-4.15 2.66-.15 4 1.38 1.8 3.4.95 4.16Z" class="animable" style="fill:#fff;stroke:#263238;stroke-linecap:round;stroke-miterlimit:10;stroke-width:.5px;transform-origin:368.595px 176.481px"/><path id="elm88y6hq2rl" d="M383.82 224.61c-.42.38-1.33.07-2-.7s-.91-1.69-.48-2.08 1.33-.07 2 .7.91 1.69.48 2.08Z" class="animable" style="fill:#fff;stroke:#263238;stroke-linecap:round;stroke-miterlimit:10;stroke-width:.5px;transform-origin:382.58px 223.218px"/><path id="elrlwyw7cidje" d="M397.86 178.36c-.43.39-1.33.08-2-.69s-.9-1.7-.47-2.08 1.32-.07 2 .69.89 1.72.47 2.08Z" class="animable" style="fill:#fff;stroke:#263238;stroke-linecap:round;stroke-miterlimit:10;stroke-width:.5px;transform-origin:396.624px 176.978px"/><path id="el43s19nmpm08" d="M302.13 81.79c-.43.38-1.33.07-2-.7s-.9-1.69-.47-2.08 1.32-.07 2 .7.89 1.69.47 2.08Z" class="animable" style="fill:#fff;stroke:#263238;stroke-linecap:round;stroke-miterlimit:10;stroke-width:.5px;transform-origin:300.894px 80.3978px"/><path id="eldv3jhr23hmr" d="M423.9 234.64c-.43.38-1.33.07-2-.7s-.9-1.69-.48-2.08 1.33-.07 2 .7.9 1.69.48 2.08Z" class="animable" style="fill:#fff;stroke:#263238;stroke-linecap:round;stroke-miterlimit:10;stroke-width:.5px;transform-origin:422.66px 233.248px"/><path id="elspv8693lgen" d="M430.07 253.25c-.86.77-2.66.14-4-1.39s-1.8-3.39-.95-4.15 2.66-.15 4 1.38 1.8 3.4.95 4.16Z" class="animable" style="fill:#fff;stroke:#263238;stroke-linecap:round;stroke-miterlimit:10;stroke-width:.5px;transform-origin:427.595px 250.481px"/><path id="elt9k2baia9mo" d="M403.56 249.14c-.85.76-2.65.14-4-1.39s-1.8-3.4-.95-4.16 2.66-.14 4 1.39 1.81 3.39.95 4.16Z" class="animable" style="fill:#fff;stroke:#263238;stroke-linecap:round;stroke-miterlimit:10;stroke-width:.5px;transform-origin:401.086px 246.365px"/><path id="elrb6mx6vr3bo" d="M400.28 279c-.42.38-1.33.07-2-.69s-.9-1.7-.47-2.08 1.33-.07 2 .69.9 1.69.47 2.08Z" class="animable" style="fill:#fff;stroke:#263238;stroke-linecap:round;stroke-miterlimit:10;stroke-width:.5px;transform-origin:399.045px 277.615px"/><path id="eld6034hwajgv" d="M234.49 73.5c-.43.38-1.33.07-2-.69s-.9-1.7-.48-2.08 1.33-.07 2 .69.9 1.7.48 2.08Z" class="animable" style="fill:#fff;stroke:#263238;stroke-linecap:round;stroke-miterlimit:10;stroke-width:.5px;transform-origin:233.25px 72.115px"/><path id="elplnbtxq3a3o" d="M414.32 232.75c-.43.38-1.33.07-2-.69s-.9-1.7-.47-2.08 1.32-.08 2 .69.89 1.7.47 2.08Z" class="animable" style="fill:#fff;stroke:#263238;stroke-linecap:round;stroke-miterlimit:10;stroke-width:.5px;transform-origin:413.084px 231.364px"/><path id="el9sxgmficsrd" d="M440.36 289c-.43.38-1.33.07-2-.69s-.9-1.7-.48-2.08 1.33-.07 2 .69.9 1.72.48 2.08Z" class="animable" style="fill:#fff;stroke:#263238;stroke-linecap:round;stroke-miterlimit:10;stroke-width:.5px;transform-origin:439.12px 287.615px"/><path id="elziq3k6cj8or" d="M330.58 330.86c-.85.77-2.65.15-4-1.38s-1.8-3.4-.95-4.16 2.65-.15 4 1.39 1.8 3.39.95 4.15Z" class="animable" style="fill:#fff;stroke:#263238;stroke-linecap:round;stroke-miterlimit:10;stroke-width:.5px;transform-origin:328.105px 328.092px"/><path id="eloubt9svv1u" d="M318.11 255.75c-.86.77-2.66.14-4-1.39s-1.8-3.39-.95-4.16 2.66-.14 4 1.39 1.84 3.41.95 4.16Z" class="animable" style="fill:#fff;stroke:#263238;stroke-linecap:round;stroke-miterlimit:10;stroke-width:.5px;transform-origin:315.644px 252.975px"/><path id="elt0tly5bfnai" d="M314.82 285.61c-.42.38-1.33.07-2-.7s-.91-1.69-.48-2.08 1.33-.07 2 .7.91 1.69.48 2.08Z" class="animable" style="fill:#fff;stroke:#263238;stroke-linecap:round;stroke-miterlimit:10;stroke-width:.5px;transform-origin:313.58px 284.218px"/><path id="elo0fojaag8s" d="M328.86 239.36c-.43.39-1.33.08-2-.69s-.9-1.7-.47-2.08 1.32-.07 2 .69.89 1.72.47 2.08Z" class="animable" style="fill:#fff;stroke:#263238;stroke-linecap:round;stroke-miterlimit:10;stroke-width:.5px;transform-origin:327.624px 237.978px"/><path id="elkaqhbtiz097" d="M354.9 295.64c-.43.38-1.33.07-2-.7s-.9-1.69-.48-2.08 1.33-.07 2 .7.9 1.69.48 2.08Z" class="animable" style="fill:#fff;stroke:#263238;stroke-linecap:round;stroke-miterlimit:10;stroke-width:.5px;transform-origin:353.66px 294.248px"/><path id="el782aclhei" d="M206.38 263.72c.69-.91 2.58-.64 4.22.61s2.41 3 1.72 3.9-2.59.64-4.23-.6-2.4-3-1.71-3.91Z" class="animable" style="fill:#fff;stroke:#263238;stroke-linecap:round;stroke-miterlimit:10;stroke-width:.5px;transform-origin:209.349px 265.973px"/><path id="el8dbskth3nbr" d="M273.33 277c.69-.91 2.58-.64 4.22.61s2.41 3 1.72 3.9-2.58.64-4.22-.6-2.41-3.01-1.72-3.91Z" class="animable" style="fill:#fff;stroke:#263238;stroke-linecap:round;stroke-miterlimit:10;stroke-width:.5px;transform-origin:276.3px 279.253px"/><path id="elqib1a049vo" d="M238 286.38c.69-.91 2.58-.64 4.22.61s2.41 3 1.72 3.9-2.59.64-4.23-.6-2.39-3-1.71-3.91Z" class="animable" style="fill:#fff;stroke:#263238;stroke-linecap:round;stroke-miterlimit:10;stroke-width:.5px;transform-origin:240.971px 288.633px"/><path id="el5ik5kd7v36j" d="M271 247.05c.34-.45 1.29-.32 2.11.31s1.2 1.49.86 1.95-1.3.32-2.12-.3-1.25-1.5-.85-1.96Z" class="animable" style="fill:#fff;stroke:#263238;stroke-linecap:round;stroke-miterlimit:10;stroke-width:.5px;transform-origin:272.471px 248.182px"/><path id="eliggzp3f5coo" d="M265.85 295.11c.34-.46 1.29-.32 2.11.3s1.2 1.5.86 1.95-1.29.32-2.11-.3-1.21-1.5-.86-1.95Z" class="animable" style="fill:#fff;stroke:#263238;stroke-linecap:round;stroke-miterlimit:10;stroke-width:.5px;transform-origin:267.333px 296.233px"/><path id="el93f8droi2s" d="M229.7 244.73c.35-.45 1.29-.32 2.11.3s1.21 1.5.86 2-1.29.32-2.11-.31-1.21-1.53-.86-1.99Z" class="animable" style="fill:#fff;stroke:#263238;stroke-linecap:round;stroke-miterlimit:10;stroke-width:.5px;transform-origin:231.185px 245.891px"/><path id="el766osag5ln7" d="M221.09 353.43c.69-.92 2.58-.64 4.22.6s2.41 3 1.72 3.91-2.58.64-4.22-.61-2.41-2.99-1.72-3.9Z" class="animable" style="fill:#fff;stroke:#263238;stroke-linecap:round;stroke-miterlimit:10;stroke-width:.5px;transform-origin:224.06px 355.683px"/><path id="el1y4kltql8vn" d="M247.89 352.49c.69-.91 2.58-.64 4.22.6s2.41 3 1.72 3.91-2.58.64-4.22-.61-2.41-2.99-1.72-3.9Z" class="animable" style="fill:#fff;stroke:#263238;stroke-linecap:round;stroke-miterlimit:10;stroke-width:.5px;transform-origin:250.86px 354.745px"/><path id="el5at8xq0t35p" d="M245.5 322.55c.35-.46 1.3-.32 2.12.3s1.2 1.5.85 1.95-1.29.32-2.11-.3-1.2-1.5-.86-1.95Z" class="animable" style="fill:#fff;stroke:#263238;stroke-linecap:round;stroke-miterlimit:10;stroke-width:.5px;transform-origin:246.988px 323.673px"/><path id="ely63481c23v" d="M185.6 110.7c.34-.46 1.29-.32 2.11.3s1.2 1.5.86 2-1.29.32-2.11-.3-1.21-1.55-.86-2Z" class="animable" style="fill:#fff;stroke:#263238;stroke-linecap:round;stroke-miterlimit:10;stroke-width:.5px;transform-origin:187.083px 111.859px"/><path id="elapesvyp5919" d="M240.41 370.6c.34-.45 1.29-.32 2.11.31s1.2 1.49.86 1.95-1.29.32-2.11-.3-1.21-1.5-.86-1.96Z" class="animable" style="fill:#fff;stroke:#263238;stroke-linecap:round;stroke-miterlimit:10;stroke-width:.5px;transform-origin:241.893px 371.732px"/><path id="el5jz7u0i4qy4" d="M204.26 320.23c.35-.46 1.29-.32 2.11.3s1.2 1.5.86 2-1.29.32-2.11-.3-1.21-1.55-.86-2Z" class="animable" style="fill:#fff;stroke:#263238;stroke-linecap:round;stroke-miterlimit:10;stroke-width:.5px;transform-origin:205.743px 321.389px"/><path id="ele3ref607u7w" d="M368.37 338.52c.69-.91 2.58-.64 4.22.61s2.41 3 1.72 3.9-2.58.64-4.22-.6-2.41-3-1.72-3.91Z" class="animable" style="fill:#fff;stroke:#263238;stroke-linecap:round;stroke-miterlimit:10;stroke-width:.5px;transform-origin:371.34px 340.773px"/><path id="el96zs845axu8" d="M395.17 337.58c.7-.91 2.59-.64 4.23.61s2.4 3 1.71 3.9-2.58.64-4.22-.6-2.41-3-1.72-3.91Z" class="animable" style="fill:#fff;stroke:#263238;stroke-linecap:round;stroke-miterlimit:10;stroke-width:.5px;transform-origin:398.141px 339.833px"/><path id="elnm3gb7pvmio" d="M392.79 307.64c.34-.45 1.29-.32 2.11.31s1.2 1.49.86 1.95-1.29.32-2.11-.3-1.21-1.5-.86-1.96Z" class="animable" style="fill:#fff;stroke:#263238;stroke-linecap:round;stroke-miterlimit:10;stroke-width:.5px;transform-origin:394.273px 308.773px"/><path id="elwgpej3iijy" d="M439.3 335c.34-.46 1.29-.32 2.11.3s1.2 1.5.86 2-1.29.32-2.11-.3-1.16-1.58-.86-2Z" class="animable" style="fill:#fff;stroke:#263238;stroke-linecap:round;stroke-miterlimit:10;stroke-width:.5px;transform-origin:440.793px 336.159px"/><path id="el204x3tbq4d1" d="M387.69 355.7c.35-.46 1.29-.32 2.11.3s1.21 1.5.86 1.95-1.29.32-2.11-.3-1.21-1.5-.86-1.95Z" class="animable" style="fill:#fff;stroke:#263238;stroke-linecap:round;stroke-miterlimit:10;stroke-width:.5px;transform-origin:389.175px 356.823px"/><path id="ell8h82b82gl" d="M351.54 305.32c.35-.45 1.29-.32 2.11.3s1.21 1.5.86 2-1.29.32-2.11-.31-1.2-1.53-.86-1.99Z" class="animable" style="fill:#fff;stroke:#263238;stroke-linecap:round;stroke-miterlimit:10;stroke-width:.5px;transform-origin:353.027px 306.481px"/><path id="elvhh2hddnkz" d="M309.58 395.67c.7-.91 2.59-.64 4.23.6s2.41 3 1.71 3.91-2.58.64-4.22-.61-2.41-2.99-1.72-3.9Z" class="animable" style="fill:#fff;stroke:#263238;stroke-linecap:round;stroke-miterlimit:10;stroke-width:.5px;transform-origin:312.553px 397.925px"/><path id="elwf7qvynbah" d="M336.39 394.73c.69-.91 2.58-.64 4.22.61s2.41 3 1.72 3.9-2.59.64-4.23-.6-2.41-3-1.71-3.91Z" class="animable" style="fill:#fff;stroke:#263238;stroke-linecap:round;stroke-miterlimit:10;stroke-width:.5px;transform-origin:339.357px 396.983px"/><path id="elgbiq1znn1zh" d="M334 364.79c.35-.46 1.29-.32 2.11.3s1.21 1.5.86 2-1.29.32-2.11-.31-1.2-1.53-.86-1.99Z" class="animable" style="fill:#fff;stroke:#263238;stroke-linecap:round;stroke-miterlimit:10;stroke-width:.5px;transform-origin:335.487px 365.948px"/><path id="el8uikpv8zbc" d="M328.9 412.85c.35-.46 1.3-.32 2.12.3s1.2 1.5.85 2-1.29.32-2.11-.3-1.2-1.55-.86-2Z" class="animable" style="fill:#fff;stroke:#263238;stroke-linecap:round;stroke-miterlimit:10;stroke-width:.5px;transform-origin:330.388px 414.009px"/><path id="el4zlmt655kwq" d="M292.76 362.47c.34-.46 1.29-.32 2.11.3s1.2 1.5.86 2-1.3.32-2.12-.3-1.2-1.55-.85-2Z" class="animable" style="fill:#fff;stroke:#263238;stroke-linecap:round;stroke-miterlimit:10;stroke-width:.5px;transform-origin:294.242px 363.629px"/></g><defs><filter id="active" height="200%"><feMorphology in="SourceAlpha" operator="dilate" radius="2" result="DILATED"/><feFlood flood-color="#32dfec" flood-opacity="1" result="PINK"/><feComposite in="PINK" in2="DILATED" operator="in" result="OUTLINE"/><feMerge><feMergeNode in="OUTLINE"/><feMergeNode in="SourceGraphic"/></feMerge></filter><filter id="hover" height="200%"><feMorphology in="SourceAlpha" operator="dilate" radius="2" result="DILATED"/><feFlood flood-color="red" flood-opacity=".5" result="PINK"/><feComposite in="PINK" in2="DILATED" operator="in" result="OUTLINE"/><feMerge><feMergeNode in="OUTLINE"/><feMergeNode in="SourceGraphic"/></feMerge><feColorMatrix values="0 0 0 0 0 0 1 0 0 0 0 0 0 0 0 0 0 0 1 0"/></filter></defs><defs><clipPath id="freepik--clip-path--inject-61"><path d="M82.74 111.77h160.62v259.87H82.74z" style="fill:#263238;stroke:#263238;stroke-linecap:round;stroke-linejoin:round"/></clipPath><clipPath id="freepik--clip-path-2--inject-61"><path d="M292 301.65s-1.36 6.11 1.19 16.14 6.28 23.11 6.11 24.3-.85 18.36 0 21.76 5.61 4.75 11.22 4.24 7.48-2.38 8.5-5.94 2.72-28.38 2.72-28.38 11 21.41 12.23 25 8.33 5.61 13.77 4.42 7.3-8.16 7.14-12.58-12.41-25.83-12.41-25.83l4.25-23.11-36-18.53Z" style="fill:#fff;stroke:#263238;stroke-linecap:round;stroke-linejoin:round"/></clipPath><clipPath id="freepik--clip-path-3--inject-61"><path d="M312.94 173.34s-6.63 1.36-9.69 5.27-24.3 33-24.3 33a2.18 2.18 0 0 0-2.38 0l-1 .85s-25.15-18.53-26.17-18.19-10.9 13.23-10.56 14.73 31.61 26 36 26.34 5.44 0 6.29-.68 15-10.54 15-10.54l1 13.43s-14.78 31.27-14.95 61c0 0 3.23 8.66 22.43 12.23a9.6 9.6 0 0 0 1.87-2.89c.68-1.69 2.72-9.34 2.72-9.34s1 11.72 2.38 12.74 16.65-.51 31.27-3.74 17.5-6.11 17.5-8.83-5.43-42.66-12.23-59.31l5.1-7.31s6.62 10.37 10 11.56 37.22-5.95 40.28-7.31 2.72-1.53 2.72-2.72-.85-16-3.06-16.48-25.32 3.05-26.17 3.05-2.55-1.36-3.06-1.36h-.51s0-23.45-3.74-31.43-12.07-13.09-22.77-15.81-33.97 1.74-33.97 1.74" style="fill:#2c9f45;stroke:#263238;stroke-linecap:round;stroke-linejoin:round"/></clipPath><clipPath id="freepik--clip-path-4--inject-61"><path d="M324.33 190.5s-6.46 3.4-14.62-5.77-1.53-24.81 6.46-30.42 21.41-7.65 29.57-6.46 11.72 8.5 11.21 20.22-10.19 12.24-20.05 14.79-12.57 7.64-12.57 7.64" style="fill:#fff;stroke:#263238;stroke-linecap:round;stroke-linejoin:round"/></clipPath><clipPath id="freepik--clip-path-5--inject-61"><path d="M347.61 162.12s3.06 3.4-5.78 8.67-15.3 6-18.18 14.62 5.94 9.85 17.84 8.32 24.3-4.58 30.25-15.29 2.38-24.13-6.29-27.36-14.95 4.25-17.84 11.04" style="fill:#fff;stroke:#263238;stroke-linecap:round;stroke-linejoin:round"/></clipPath></defs></svg>